<svg width="125" height="35" viewBox="0 0 125 35" fill="none" xmlns="http://www.w3.org/2000/svg">
<g clip-path="url(#clip0_125_347)">
<path d="M49.8383 21.7258H47.1372L46.3531 19.2862H42.4322L41.648 21.7258H38.947L42.955 10.7474H45.9174L49.8383 21.7258ZM45.8303 17.4564L44.6105 13.797C44.5233 13.4485 44.4362 13.0999 44.4362 12.7514H44.3491C44.3491 13.0999 44.2619 13.3613 44.1748 13.7099L42.955 17.4564H45.8303Z" fill="#9E9E9E"/>
<path d="M55.676 21.6387C55.3274 21.8129 54.8047 21.9001 54.0205 21.9001C52.2779 21.9001 51.4937 21.0288 51.4937 19.2862V15.7139H50.1868V13.9713H51.4937V12.2287L53.9334 11.5316V13.8841H55.676V15.6267H53.9334V18.7634C53.9334 19.5476 54.2819 19.9832 54.8918 19.9832C55.1532 19.9832 55.4146 19.8961 55.676 19.7218V21.6387Z" fill="#9E9E9E"/>
<path d="M60.8166 21.9872C59.5097 21.9872 58.4641 21.6387 57.7671 20.8545C57.0701 20.0703 56.6344 19.1119 56.6344 17.8921C56.6344 16.5851 56.9829 15.5396 57.7671 14.8425C58.5513 14.1455 59.5968 13.7098 60.9038 13.7098C62.2107 13.7098 63.2563 14.0584 63.9533 14.8425C64.6504 15.5396 65.086 16.5851 65.086 17.7178C65.086 19.0248 64.7375 20.0703 63.9533 20.7674C63.1691 21.4644 62.1236 21.9872 60.8166 21.9872ZM60.9038 15.6267C60.2939 15.6267 59.8582 15.801 59.5968 16.2366C59.3354 16.6723 59.1612 17.195 59.1612 17.8921C59.1612 19.3733 59.7711 20.1575 60.9909 20.1575C62.1236 20.1575 62.7335 19.3733 62.7335 17.8049C62.6464 16.3237 62.0365 15.6267 60.9038 15.6267Z" fill="#9E9E9E"/>
<path d="M79.1139 21.7258H76.6742V17.2822C76.6742 16.1495 76.2386 15.5396 75.4544 15.5396C75.0188 15.5396 74.7574 15.7138 74.496 16.0623C74.2346 16.4109 74.0603 16.8465 74.0603 17.3693V21.7258H71.6207V17.195C71.6207 16.0623 71.1851 15.5396 70.4009 15.5396C69.9652 15.5396 69.6167 15.7138 69.4425 16.0623C69.1811 16.4109 69.0939 16.8465 69.0939 17.3693V21.7258H66.6543V13.8841H69.0939V15.191C69.3553 14.7554 69.7038 14.4069 70.1395 14.1455C70.5751 13.8841 71.0979 13.7098 71.6207 13.7098C72.7534 13.7098 73.4504 14.2326 73.8861 15.191C74.496 14.2326 75.3673 13.7098 76.5 13.7098C78.2426 13.7098 79.0267 14.7554 79.0267 16.8465V21.7258H79.1139Z" fill="#9E9E9E"/>
<path d="M82.2505 12.6642C81.8149 12.6642 81.4663 12.5771 81.205 12.3157C80.9436 12.0543 80.8564 11.7929 80.8564 11.4444C80.8564 11.0959 80.9436 10.7474 81.205 10.5731C81.4663 10.3989 81.8149 10.2246 82.2505 10.2246C82.6862 10.2246 83.0347 10.3117 83.2961 10.5731C83.5575 10.8345 83.6446 11.0959 83.6446 11.4444C83.6446 11.7929 83.5575 12.1415 83.2961 12.3157C83.0347 12.49 82.6862 12.6642 82.2505 12.6642ZM83.4703 21.7258H81.0307V13.8841H83.4703V21.7258Z" fill="#9E9E9E"/>
<path d="M91.3993 21.4644C90.8765 21.8129 90.0923 21.9 89.0468 21.9C87.8269 21.9 86.8685 21.5515 86.0844 20.7674C85.3002 19.9832 84.9517 19.1119 84.9517 17.9792C84.9517 16.6723 85.3873 15.6267 86.1715 14.8425C86.9556 14.0584 88.0012 13.7098 89.3953 13.7098C90.3537 13.7098 90.9636 13.797 91.3993 14.0584V16.1495C90.8765 15.801 90.3537 15.5396 89.7438 15.5396C89.0468 15.5396 88.524 15.7138 88.0883 16.1495C87.6527 16.5851 87.4784 17.1079 87.4784 17.8049C87.4784 18.502 87.6527 19.0248 88.0883 19.4604C88.524 19.8961 89.0468 20.0703 89.6567 20.0703C90.2666 20.0703 90.8765 19.8961 91.3993 19.4604V21.4644Z" fill="#9E9E9E"/>
<path d="M97.0627 21.3772V18.9376C97.4984 19.2861 98.0211 19.5475 98.5439 19.8089C99.0667 19.9831 99.5895 20.0703 100.112 20.0703C100.461 20.0703 100.722 20.0703 100.896 19.9831C101.158 19.896 101.332 19.8089 101.506 19.7218C101.681 19.6346 101.768 19.5475 101.855 19.3732C101.942 19.199 101.942 19.1118 101.942 18.9376C101.942 18.7633 101.855 18.5019 101.768 18.3277C101.681 18.1534 101.506 17.9792 101.245 17.892C100.984 17.8049 100.809 17.6306 100.461 17.4564C100.112 17.2821 99.8509 17.195 99.5023 17.0207C98.631 16.6722 98.0211 16.2366 97.5855 15.7138C97.1498 15.191 96.9756 14.5811 96.9756 13.8841C96.9756 13.2741 97.0627 12.8385 97.3241 12.4028C97.5855 11.9672 97.8469 11.6187 98.2825 11.3573C98.7182 11.0959 99.1538 10.9216 99.6766 10.7474C100.199 10.6603 100.722 10.5731 101.332 10.5731C101.942 10.5731 102.378 10.5731 102.813 10.6603C103.249 10.7474 103.685 10.8345 104.033 11.0088V13.2741C103.859 13.187 103.685 13.0128 103.423 12.9256C103.162 12.8385 102.988 12.7514 102.726 12.6642C102.465 12.5771 102.291 12.5771 102.029 12.49C101.768 12.49 101.593 12.4028 101.419 12.4028C101.158 12.4028 100.896 12.4028 100.635 12.49C100.374 12.5771 100.199 12.5771 100.025 12.7514C99.8509 12.9256 99.7637 12.9256 99.6766 13.0999C99.5895 13.2741 99.5895 13.3613 99.5895 13.5355C99.5895 13.7098 99.6766 13.8841 99.7637 14.0583C99.8509 14.2326 100.025 14.3197 100.199 14.494C100.374 14.5811 100.635 14.7554 100.809 14.8425C100.984 14.9296 101.332 15.1039 101.681 15.191C102.116 15.3653 102.552 15.5395 102.9 15.8009C103.249 15.9752 103.51 16.2366 103.772 16.498C104.033 16.7593 104.207 17.0207 104.382 17.3693C104.556 17.7178 104.556 18.0663 104.556 18.5019C104.556 19.1118 104.469 19.6346 104.207 20.0703C103.946 20.5059 103.685 20.8544 103.249 21.1158C102.813 21.3772 102.378 21.5515 101.855 21.6386C101.332 21.7257 100.809 21.8129 100.199 21.8129C99.5895 21.8129 99.0667 21.7257 98.4568 21.6386C97.934 21.7257 97.4984 21.5515 97.0627 21.3772Z" fill="#9E9E9E"/>
<path d="M112.92 21.7258H106.298V10.7474H112.659V12.7514H108.825V15.1911H112.398V17.195H108.825V19.7218H112.92V21.7258Z" fill="#9E9E9E"/>
<path d="M119.368 21.9872C117.8 21.9872 116.493 21.4644 115.534 20.4188C114.576 19.3733 114.053 18.0663 114.053 16.4109C114.053 14.6683 114.576 13.2742 115.534 12.2286C116.493 11.1831 117.887 10.6603 119.542 10.6603C121.111 10.6603 122.417 11.1831 123.376 12.2286C124.334 13.2742 124.857 14.5811 124.857 16.3237C124.857 18.0663 124.334 19.4604 123.376 20.506C122.243 21.4644 120.936 21.9872 119.368 21.9872ZM119.455 12.7514C118.584 12.7514 117.887 13.0999 117.364 13.7098C116.841 14.3197 116.58 15.191 116.58 16.3237C116.58 17.3693 116.841 18.2406 117.364 18.9376C117.887 19.6347 118.584 19.896 119.368 19.896C120.239 19.896 120.936 19.5475 121.372 18.9376C121.808 18.3277 122.156 17.4564 122.156 16.4109C122.156 15.2782 121.895 14.4069 121.459 13.797C121.023 13.187 120.326 12.7514 119.455 12.7514Z" fill="#9E9E9E"/>
<path d="M26.4004 17.9792C25.2677 17.9792 24.3092 18.9376 24.3092 20.0703C24.3092 20.3317 24.3964 20.6802 24.4835 20.9416L19.7785 25.6466C19.6042 25.5595 19.43 25.3852 19.2557 25.2981V12.4029C21.5211 12.3157 23.2637 10.3989 23.2637 8.1335C23.2637 5.78099 21.3468 3.86414 18.9943 3.86414C16.6418 3.86414 14.725 5.78099 14.725 8.1335C14.725 8.74341 14.8121 9.26619 15.0735 9.78897L9.14864 14.4069C8.19021 13.4484 6.88326 12.9256 5.40205 12.9256C2.43964 12.9256 0 15.3653 0 18.3277C0 21.2901 2.43964 23.7297 5.40205 23.7297C8.36447 23.7297 10.8041 21.2901 10.8041 18.3277C10.8041 17.3693 10.5427 16.498 10.1071 15.7138L15.9448 11.183C16.3804 11.7058 16.9903 12.0543 17.6874 12.2286V25.0367C16.0319 25.1238 14.8121 26.5179 14.8121 28.0862C14.8121 29.8288 16.2062 31.2229 17.9488 31.2229C19.6914 31.2229 21.0854 29.8288 21.0854 28.0862C21.0854 27.6506 20.9983 27.3021 20.824 26.9536L25.7033 22.0743C25.9647 22.1614 26.2261 22.2485 26.5746 22.2485C27.7073 22.2485 28.6657 21.2901 28.6657 20.1574C28.4915 18.8505 27.533 17.9792 26.4004 17.9792Z" fill="#9E9E9E"/>
</g>
<defs>
<clipPath id="clip0_125_347">
<rect width="124.77" height="27.2717" fill="white" transform="translate(0 3.86414)"/>
</clipPath>
</defs>
</svg>
