<svg width="125" height="35" viewBox="0 0 125 35" fill="none" xmlns="http://www.w3.org/2000/svg">
<g clip-path="url(#clip0_125_361)">
<path d="M12.0871 12.6261C10.43 10.774 7.99308 9.99423 5.65364 10.2867C5.45869 10.6766 5.26373 11.0665 5.06878 11.4564C6.33598 11.7488 7.60317 12.3337 8.57794 13.4059C11.0149 16.0378 10.8199 20.1318 8.18803 22.5687C7.31074 23.446 6.14102 23.9334 5.06878 24.1283C5.16626 24.3233 5.26373 24.5182 5.36121 24.6157C7.60317 25.1031 9.94261 24.5182 11.6972 22.8611C14.6215 20.1318 14.8164 15.5504 12.0871 12.6261ZM7.40822 20.3267C8.77289 18.4747 8.38298 15.7453 6.43345 14.3807C4.5814 13.016 1.85205 13.4059 0.487383 15.3554C0.29243 15.6479 0.0974766 15.9403 0 16.3302C0.779813 15.5504 1.94953 15.4529 2.82682 16.1353C3.80159 16.8176 3.99654 18.2797 3.3142 19.2545C2.63187 20.2293 1.16972 20.4242 0.194953 19.7419C0.194953 19.7419 0.0974766 19.7419 0.0974766 19.6444C0.389906 20.2293 0.877289 20.8141 1.46215 21.204C3.41168 22.6662 6.04355 22.1788 7.40822 20.3267ZM20.1776 9.79927C17.1559 6.48507 12.5745 5.41283 8.48046 6.58255C8.38298 6.68002 8.38298 6.7775 8.28551 6.7775C7.70065 7.36236 7.11579 7.94722 6.72588 8.53208C9.35775 8.33712 12.0871 9.21441 14.0366 11.3589C17.3508 14.9655 17.0584 20.5217 13.4518 23.8359C11.5022 25.688 8.87037 26.3703 6.43345 26.0779C6.72588 26.4678 7.01831 26.8577 7.40822 27.2476C7.70065 27.6375 8.09056 27.9299 8.38298 28.2223C12.0871 29.3921 16.3761 28.6122 19.4953 25.7854C24.0767 21.5939 24.4666 14.4781 20.1776 9.79927ZM11.3073 4.63302C15.3038 4.14563 19.5928 5.5103 22.5171 8.72703C27.3909 13.9908 27.001 22.1788 21.7373 27.0526C18.813 29.6845 15.1089 30.7567 11.4048 30.3668C16.6685 33.0962 23.2969 32.4138 27.8783 28.2223C33.8244 22.7637 34.2143 13.6009 28.7556 7.65479C24.2717 2.68348 17.0584 1.61124 11.3073 4.63302Z" fill="#9E9E9E"/>
<path d="M45.7166 9.99414H51.1752C52.345 9.99414 53.2222 10.2866 54.0021 10.8714C54.6844 11.4563 55.0743 12.2361 55.0743 13.2109C55.0743 13.7957 54.8793 14.3806 54.5869 14.868C54.197 15.3554 53.7096 15.7453 53.1248 15.9402C53.8071 16.1352 54.392 16.5251 54.8793 17.0125C55.2693 17.4998 55.5617 18.0847 55.5617 18.8645C55.5617 19.8393 55.1718 20.7166 54.392 21.3014C53.6122 21.8863 52.6374 22.2762 51.4677 22.2762H45.7166V9.99414ZM50.9803 11.7487H47.861V15.1604H50.9803C51.5651 15.1604 52.0525 14.9654 52.4424 14.673C52.8323 14.3806 53.0273 13.9907 53.0273 13.4058C53.0273 12.821 52.8323 12.4311 52.4424 12.1386C52.0525 11.8462 51.5651 11.7487 50.9803 11.7487ZM51.1752 20.5216C51.8576 20.5216 52.345 20.3267 52.7349 20.0342C53.1248 19.6443 53.3197 19.2544 53.3197 18.6696C53.3197 18.0847 53.1248 17.5973 52.7349 17.3049C52.345 17.0125 51.8576 16.8175 51.1752 16.8175H47.861V20.5216H51.1752Z" fill="#9E9E9E"/>
<path d="M57.3163 17.8897C57.3163 17.2074 57.4138 16.6226 57.7062 16.1352C57.9011 15.5503 58.2911 15.0629 58.681 14.673C59.0709 14.2831 59.5582 13.9907 60.0456 13.6983C60.6305 13.5033 61.2153 13.3083 61.8002 13.3083C62.3851 13.3083 62.9699 13.4058 63.5548 13.6983C64.1396 13.9907 64.5295 14.2831 64.9195 14.673C65.3094 15.0629 65.6018 15.5503 65.8942 16.1352C66.0892 16.72 66.1867 17.3049 66.1867 17.8897C66.1867 18.4746 66.0892 19.1569 65.7967 19.7418C65.6018 20.3267 65.2119 20.814 64.822 21.204C64.4321 21.5939 63.9447 21.8863 63.4573 22.1787C62.9699 22.3737 62.3851 22.4711 61.7027 22.4711C61.0204 22.4711 60.533 22.3737 59.9482 22.0812C59.3633 21.8863 58.9734 21.4964 58.5835 21.1065C58.1936 20.7166 57.9011 20.2292 57.6087 19.6443C57.4138 19.1569 57.3163 18.5721 57.3163 17.8897ZM61.7027 20.7166C62.3851 20.7166 62.9699 20.4241 63.4573 19.9368C63.9447 19.3519 64.1396 18.767 64.1396 17.8897C64.1396 17.0125 63.9447 16.3301 63.4573 15.8427C62.9699 15.2579 62.3851 15.0629 61.7027 15.0629C61.0204 15.0629 60.4355 15.3554 59.9482 15.8427C59.4608 16.4276 59.2658 17.1099 59.2658 17.8897C59.2658 18.6696 59.4608 19.3519 59.9482 19.9368C60.4355 20.5216 61.0204 20.7166 61.7027 20.7166Z" fill="#9E9E9E"/>
<path d="M67.8438 17.8897C67.8438 17.2074 67.9412 16.6226 68.2337 16.1352C68.4286 15.5503 68.8185 15.0629 69.2084 14.673C69.5983 14.2831 70.0857 13.9907 70.5731 13.6983C71.158 13.5033 71.7428 13.3083 72.3277 13.3083C72.9125 13.3083 73.4974 13.4058 74.0823 13.6983C74.6671 13.9907 75.057 14.2831 75.4469 14.673C75.8368 15.0629 76.1293 15.5503 76.4217 16.1352C76.6166 16.72 76.7141 17.3049 76.7141 17.8897C76.7141 18.4746 76.6166 19.1569 76.3242 19.7418C76.1293 20.3267 75.7394 20.814 75.3495 21.204C74.9595 21.5939 74.4722 21.8863 73.9848 22.1787C73.3999 22.3737 72.8151 22.5686 72.2302 22.5686C71.6453 22.5686 71.0605 22.4711 70.4756 22.1787C69.8908 21.9838 69.5009 21.5939 69.1109 21.204C68.721 20.814 68.4286 20.3267 68.1362 19.7418C67.9412 19.1569 67.8438 18.5721 67.8438 17.8897ZM72.3277 20.7166C73.01 20.7166 73.5949 20.4241 74.0823 19.9368C74.5696 19.3519 74.7646 18.767 74.7646 17.8897C74.7646 17.0125 74.5696 16.3301 74.0823 15.8427C73.5949 15.2579 73.01 15.0629 72.3277 15.0629C71.6453 15.0629 71.0605 15.3554 70.5731 15.8427C70.0857 16.4276 69.8908 17.1099 69.8908 17.8897C69.8908 18.6696 70.0857 19.3519 70.5731 19.9368C70.963 20.5216 71.5479 20.7166 72.3277 20.7166Z" fill="#9E9E9E"/>
<path d="M77.9813 21.3015L78.9561 19.9368C79.5409 20.3267 80.0283 20.5217 80.4182 20.7166C80.8081 20.9116 81.2955 20.9116 81.6854 20.9116C82.1728 20.9116 82.6602 20.8141 82.9526 20.6192C83.2451 20.4242 83.44 20.1318 83.44 19.7419C83.44 19.4494 83.3425 19.2545 83.1476 19.0595C82.9526 18.8646 82.6602 18.7671 82.2703 18.6696L80.7107 18.3772C79.8334 18.1822 79.2485 17.9873 78.7611 17.4999C78.3712 17.11 78.0788 16.5251 78.0788 15.9403C78.0788 15.1605 78.3712 14.4781 79.0536 13.9908C79.6384 13.5034 80.5157 13.2109 81.4905 13.2109C82.0753 13.2109 82.6602 13.3084 83.2451 13.5034C83.8299 13.6983 84.4148 13.8933 84.9022 14.2832L83.9274 15.5504C83.44 15.2579 83.0501 15.063 82.5627 14.868C82.1728 14.7706 81.6854 14.6731 81.2955 14.6731C80.8081 14.6731 80.5157 14.7706 80.2233 14.9655C79.9309 15.1605 79.8334 15.3554 79.8334 15.7453C79.8334 16.0378 79.9309 16.2327 80.1258 16.3302C80.3208 16.4277 80.6132 16.6226 81.1006 16.6226L82.6602 16.915C83.5375 17.11 84.2198 17.4024 84.6097 17.7923C84.9996 18.1822 85.2921 18.7671 85.2921 19.352C85.2921 19.7419 85.1946 20.1318 84.9996 20.5217C84.8047 20.9116 84.6097 21.204 84.2198 21.399C83.8299 21.5939 83.5375 21.8864 83.0501 21.9838C82.5627 22.0813 82.1728 22.1788 81.6854 22.1788C80.9056 22.1788 80.2233 22.0813 79.5409 21.8864C78.8586 21.6914 78.4687 21.6914 77.9813 21.3015Z" fill="#9E9E9E"/>
<path d="M88.1188 19.9368V15.063H86.3643V13.5033H88.1188V11.0664L90.0684 10.6765V13.5033H92.5053V15.063H90.0684V19.5469C90.0684 19.9368 90.1658 20.3267 90.3608 20.4242C90.5557 20.6191 90.8482 20.7166 91.3356 20.7166C91.5305 20.7166 91.7255 20.7166 91.9204 20.7166C92.1154 20.7166 92.3103 20.6191 92.6028 20.5216V22.1787C92.3103 22.2762 92.0179 22.2762 91.7255 22.3737C91.433 22.3737 91.1406 22.4712 90.8482 22.4712C89.9709 22.4712 89.2886 22.2762 88.8012 21.8863C88.3138 21.4964 88.1188 20.8141 88.1188 19.9368Z" fill="#9E9E9E"/>
<path d="M101.668 21.204C101.083 21.6913 100.596 21.9838 100.011 22.1787C99.4261 22.3737 98.8412 22.4711 98.1589 22.4711C97.5741 22.4711 96.9892 22.3737 96.4043 22.0812C95.8195 21.8863 95.4296 21.4964 94.9422 21.1065C94.4548 20.7166 94.2599 20.2292 93.9674 19.6443C93.675 19.0595 93.5775 18.4746 93.5775 17.8897C93.5775 17.2074 93.675 16.6226 93.8699 16.1352C94.0649 15.5503 94.3573 15.0629 94.7472 14.673C95.1371 14.2831 95.6245 13.9907 96.1119 13.6983C96.5993 13.4058 97.1842 13.3083 97.769 13.3083C98.3539 13.3083 98.9387 13.4058 99.4261 13.6983C99.9135 13.8932 100.401 14.2831 100.693 14.673C100.986 15.0629 101.376 15.5503 101.571 16.1352C101.766 16.72 101.863 17.3049 101.863 17.9872V18.4746H95.3321C95.4296 19.1569 95.722 19.7418 96.2094 20.2292C96.6968 20.7166 97.2816 20.9115 97.964 20.9115C98.3539 20.9115 98.7438 20.814 99.1337 20.7166C99.5236 20.6191 99.816 20.3267 100.011 20.1317L101.668 21.204ZM97.964 14.9655C97.3791 14.9655 96.8917 15.1604 96.5018 15.5503C96.1119 15.9402 95.8195 16.5251 95.722 17.1099H100.303C100.206 16.4276 99.9135 15.9402 99.5236 15.5503C99.1337 15.1604 98.5488 14.9655 97.964 14.9655Z" fill="#9E9E9E"/>
<path d="M104.203 22.2763V13.5034H106.152V15.4529C106.347 14.7706 106.737 14.2832 107.127 13.8933C107.517 13.5034 108.004 13.4059 108.589 13.4059C108.784 13.4059 108.881 13.4059 108.979 13.5034C109.076 13.5034 109.271 13.6008 109.369 13.6008V15.3554C109.174 15.2579 109.076 15.2579 108.881 15.1605C108.686 15.063 108.491 15.063 108.297 15.063C107.809 15.063 107.419 15.1605 107.029 15.4529C106.639 15.7453 106.347 16.0378 106.152 16.5251V22.2763H104.203Z" fill="#9E9E9E"/>
<path d="M112.098 11.7487C111.806 11.7487 111.513 11.6513 111.221 11.3588C110.928 11.0664 110.831 10.8715 110.831 10.4816C110.831 10.1891 110.928 9.89669 111.221 9.60426C111.513 9.31183 111.708 9.21436 112.098 9.21436C112.391 9.21436 112.683 9.31183 112.975 9.60426C113.268 9.89669 113.365 10.0916 113.365 10.4816C113.365 10.774 113.268 11.0664 112.975 11.3588C112.683 11.6513 112.391 11.7487 112.098 11.7487ZM113.073 13.5033V22.2762H111.123V13.5033H113.073Z" fill="#9E9E9E"/>
<path d="M115.12 17.8897C115.12 17.2074 115.217 16.6226 115.51 16.1352C115.705 15.5503 116.095 15.0629 116.485 14.673C116.874 14.2831 117.362 13.9907 117.849 13.6983C118.434 13.5033 119.019 13.3083 119.604 13.3083C120.189 13.3083 120.774 13.4058 121.358 13.6983C121.943 13.9907 122.333 14.2831 122.723 14.673C123.113 15.0629 123.405 15.5503 123.698 16.1352C123.893 16.72 123.99 17.3049 123.99 17.8897C123.99 18.4746 123.893 19.1569 123.6 19.7418C123.405 20.3267 123.015 20.814 122.626 21.204C122.236 21.5939 121.748 21.8863 121.261 22.1787C120.676 22.3737 120.091 22.5686 119.506 22.5686C118.921 22.5686 118.337 22.4711 117.752 22.1787C117.167 21.9838 116.777 21.5939 116.387 21.204C115.997 20.814 115.705 20.3267 115.412 19.7418C115.217 19.1569 115.12 18.5721 115.12 17.8897ZM119.506 20.7166C120.189 20.7166 120.774 20.4241 121.261 19.9368C121.748 19.3519 121.943 18.767 121.943 17.8897C121.943 17.0125 121.748 16.3301 121.261 15.8427C120.774 15.2579 120.189 15.0629 119.506 15.0629C118.824 15.0629 118.239 15.3554 117.752 15.8427C117.264 16.4276 117.069 17.1099 117.069 17.8897C117.069 18.6696 117.264 19.3519 117.752 19.9368C118.239 20.5216 118.824 20.7166 119.506 20.7166Z" fill="#9E9E9E"/>
</g>
<defs>
<clipPath id="clip0_125_361">
<rect width="124.77" height="29.048" fill="white" transform="translate(0 2.97595)"/>
</clipPath>
</defs>
</svg>
