<svg width="97" height="96" viewBox="0 0 97 96" fill="none" xmlns="http://www.w3.org/2000/svg">
<g filter="url(#filter0_d_125_403)">
<rect x="13.89" y="13" width="70" height="70" rx="5" fill="white" fill-opacity="0.01" shape-rendering="crispEdges"/>
<g clip-path="url(#clip0_125_403)">
<path d="M67.0462 68.1575H65.3327V43.2775C65.3327 42.1194 64.3905 41.1773 63.2326 41.1773H59.4026C58.2445 41.1773 57.3024 42.1195 57.3024 43.2775V68.1575H52.9515V54.55C52.9515 53.392 52.0094 52.4499 50.8513 52.4499H47.0213C45.8633 52.4499 44.9212 53.3921 44.9212 54.55V68.1575H40.5702V61.1103C40.5702 59.9522 39.628 59.0101 38.4701 59.0101H34.64C33.4819 59.0101 32.5398 59.9523 32.5398 61.1103V68.1575H30.7339C30.3024 68.1575 29.9526 68.5072 29.9526 68.9387C29.9526 69.3702 30.3024 69.72 30.7339 69.72H67.0462C67.4777 69.72 67.8275 69.3702 67.8275 68.9387C67.8275 68.5072 67.4777 68.1575 67.0462 68.1575ZM39.0076 68.1575H34.1022V61.1103C34.1022 60.8138 34.3434 60.5726 34.6399 60.5726H38.4699C38.7664 60.5726 39.0076 60.8138 39.0076 61.1103V68.1575ZM51.3889 68.1575H46.4836V54.55C46.4836 54.2536 46.7247 54.0124 47.0212 54.0124H50.8512C51.1476 54.0124 51.3889 54.2536 51.3889 54.55V68.1575ZM63.7702 68.1575H58.8649V43.2775C58.8649 42.981 59.1061 42.7398 59.4026 42.7398H63.2326C63.529 42.7398 63.7702 42.981 63.7702 43.2775V68.1575Z" fill="#E61C1C"/>
<path d="M65.3308 30.5415C65.3418 30.3283 65.2668 30.1115 65.104 29.9487C64.9412 29.7859 64.7244 29.7108 64.5112 29.7218C64.4986 29.7213 64.4862 29.72 64.4733 29.72H59.7468C59.3153 29.72 58.9655 30.0697 58.9655 30.5012C58.9655 30.9327 59.3153 31.2825 59.7468 31.2825H62.6653L54.9421 39.0058L52.0296 36.0933C51.8831 35.9468 51.6844 35.8644 51.4772 35.8644C51.27 35.8644 51.0712 35.9468 50.9248 36.0933L36.8803 50.1378C36.5752 50.4429 36.5752 50.9375 36.8803 51.2427C37.0329 51.3951 37.2328 51.4714 37.4327 51.4714C37.6326 51.4714 37.8326 51.3951 37.9851 51.2425L51.4772 37.7504L54.3897 40.6629C54.6947 40.968 55.1894 40.968 55.4946 40.6629L63.7702 32.3874V35.0288C63.7702 35.4603 64.12 35.81 64.5515 35.81C64.983 35.81 65.3327 35.4603 65.3327 35.0288V30.5793C65.3327 30.5666 65.3314 30.5542 65.3308 30.5415Z" fill="#E61C1C"/>
<path d="M34.7994 54.1973C35.2309 54.1973 35.5807 53.8475 35.5807 53.4161C35.5807 52.9846 35.2309 52.6348 34.7994 52.6348C34.368 52.6348 34.0182 52.9846 34.0182 53.4161C34.0182 53.8475 34.368 54.1973 34.7994 54.1973Z" fill="#E61C1C"/>
</g>
</g>
<defs>
<filter id="filter0_d_125_403" x="0.890015" y="0" width="96" height="96" filterUnits="userSpaceOnUse" color-interpolation-filters="sRGB">
<feFlood flood-opacity="0" result="BackgroundImageFix"/>
<feColorMatrix in="SourceAlpha" type="matrix" values="0 0 0 0 0 0 0 0 0 0 0 0 0 0 0 0 0 0 127 0" result="hardAlpha"/>
<feOffset/>
<feGaussianBlur stdDeviation="6.5"/>
<feComposite in2="hardAlpha" operator="out"/>
<feColorMatrix type="matrix" values="0 0 0 0 0 0 0 0 0 0 0 0 0 0 0 0 0 0 0.15 0"/>
<feBlend mode="normal" in2="BackgroundImageFix" result="effect1_dropShadow_125_403"/>
<feBlend mode="normal" in="SourceGraphic" in2="effect1_dropShadow_125_403" result="shape"/>
</filter>
<clipPath id="clip0_125_403">
<rect width="40" height="40" fill="white" transform="translate(28.89 29.72)"/>
</clipPath>
</defs>
</svg>
