<svg width="97" height="96" viewBox="0 0 97 96" fill="none" xmlns="http://www.w3.org/2000/svg">
<g filter="url(#filter0_d_125_430)">
<rect x="13.28" y="13" width="70" height="70" rx="5" fill="white" fill-opacity="0.01" shape-rendering="crispEdges"/>
<g clip-path="url(#clip0_125_430)">
<path d="M29.066 69.6033C29.5 69.6033 29.8519 69.2514 29.8519 68.8174C29.8519 68.3833 29.5 68.0314 29.066 68.0314C28.6319 68.0314 28.28 68.3833 28.28 68.8174C28.28 69.2514 28.6319 69.6033 29.066 69.6033Z" fill="#E61C1C"/>
<path d="M49.1398 49.6691C49.573 49.6691 49.9242 49.3179 49.9242 48.8847C49.9242 48.4515 49.573 48.1003 49.1398 48.1003C48.7066 48.1003 48.3555 48.4515 48.3555 48.8847C48.3555 49.3179 48.7066 49.6691 49.1398 49.6691Z" fill="#E61C1C"/>
<path d="M59.4112 38.9413C58.7807 38.3106 57.9423 37.9634 57.0506 37.9634C56.1589 37.9634 55.3204 38.3108 54.69 38.9413C53.3883 40.243 53.3883 42.3609 54.69 43.6626C55.3409 44.3135 56.1956 44.6388 57.0506 44.6388C57.9054 44.6388 58.7605 44.3133 59.4112 43.6626C60.7129 42.3609 60.7129 40.2429 59.4112 38.9413ZM58.3021 42.5533C57.612 43.2433 56.4891 43.2433 55.7992 42.5533C55.1091 41.8633 55.1091 40.7405 55.7992 40.0504C56.1335 39.7161 56.5779 39.532 57.0506 39.532C57.5233 39.532 57.9677 39.7161 58.302 40.0504C58.9921 40.7405 58.9921 41.8633 58.3021 42.5533Z" fill="#E61C1C"/>
<path d="M38.0776 61.8646C37.6898 61.6715 37.219 61.8294 37.0259 62.2171L36.0917 64.0933C35.6854 64.909 34.8684 65.4544 33.9592 65.5166L32.8726 65.591C32.6889 65.6033 32.5682 65.5118 32.5123 65.4559C32.4564 65.4001 32.3647 65.2791 32.3772 65.0955L32.4516 64.009C32.5139 63.0999 33.0593 62.2828 33.875 61.8765L35.751 60.9423C36.1389 60.7492 36.2967 60.2783 36.1036 59.8906C35.9105 59.5029 35.4396 59.345 35.0518 59.5381L33.1757 60.4723C31.8639 61.1256 30.9867 62.4397 30.8865 63.9019L30.8121 64.9883C30.772 65.5748 30.9873 66.1495 31.4029 66.5651C31.7856 66.9478 32.3032 67.1608 32.8407 67.1608C32.8868 67.1608 32.9333 67.1592 32.9797 67.156L34.0663 67.0816C35.5285 66.9816 36.8425 66.1044 37.4958 64.7924L38.43 62.9163C38.6232 62.5285 38.4654 62.0577 38.0776 61.8646Z" fill="#E61C1C"/>
<path d="M67.7386 30.359C67.3706 29.9964 66.8636 29.8068 66.3486 29.8403L65.6182 29.8869C59.0699 30.305 52.9415 33.4658 48.8045 38.5591L47.0855 40.6754L42.5868 40.5433C42.5791 40.5431 42.5714 40.543 42.5638 40.543C38.996 40.543 35.6417 41.9324 33.1188 44.4552L28.5111 49.063C28.292 49.2821 28.2224 49.6098 28.3336 49.8991C28.4449 50.1884 28.716 50.3851 29.0255 50.4009L38.779 50.9019L38.3813 51.3916C38.1809 51.6384 38.1492 51.9816 38.3012 52.2609C38.454 52.5418 38.6141 52.8183 38.7812 53.0903L36.4682 55.8362C36.2705 56.0709 36.2279 56.3995 36.3591 56.677C36.8643 57.7446 37.5348 58.7038 38.3523 59.5281C39.1897 60.3724 40.1688 61.0629 41.2624 61.5805C41.3693 61.6311 41.4839 61.6559 41.5978 61.6559C41.7745 61.6559 41.9496 61.5962 42.0921 61.4806C42.5904 61.0764 43.1648 60.597 43.7205 60.1334C44.1165 59.8029 44.5216 59.4649 44.9003 59.1531C45.1263 59.2892 45.3552 59.421 45.5874 59.5474C45.7049 59.6113 45.8338 59.6427 45.9621 59.6427C46.1329 59.6427 46.3026 59.5871 46.4431 59.4781L46.9777 59.0632L47.4809 68.8578C47.4969 69.1673 47.6935 69.4384 47.9827 69.5496C48.0743 69.5848 48.1695 69.602 48.264 69.602C48.4683 69.602 48.6689 69.5221 48.8188 69.3721L53.4265 64.7644C55.9494 62.2415 57.3387 58.8873 57.3387 55.3194V51.0229L59.1564 49.6123C64.604 45.385 67.9218 39.0104 68.259 32.1231L68.2776 31.7414C68.3031 31.2254 68.1065 30.7217 67.7386 30.359ZM30.8677 48.9248L34.228 45.5645C36.4519 43.3407 39.408 42.1147 42.5525 42.1117L45.8404 42.2083L40.0037 49.3942L30.8677 48.9248ZM42.7155 58.9289C42.306 59.2705 41.8862 59.6208 41.4967 59.9412C40.7433 59.5331 40.0617 59.024 39.4661 58.4234C38.8892 57.8417 38.3982 57.1795 38.0023 56.4499L39.6957 54.4395C40.2077 55.1265 40.7682 55.7772 41.3737 56.3868C41.3741 56.3873 41.3746 56.3877 41.3751 56.3881C41.3752 56.3883 41.3754 56.3885 41.3755 56.3887C41.3758 56.3889 41.376 56.3891 41.3762 56.3893C42.0476 57.0649 42.7697 57.6849 43.5357 58.2456C43.2652 58.4702 42.9881 58.7014 42.7155 58.9289ZM55.7703 55.3194C55.7703 58.4682 54.5441 61.4285 52.3174 63.6552L48.9571 67.0155L48.4882 57.8911L55.7702 52.2403V55.3194H55.7703ZM66.6924 32.0464C66.3776 38.4759 63.2804 44.4267 58.195 48.373L45.8934 57.9191C44.8732 57.323 43.9223 56.6191 43.0521 55.8217L47.1995 51.6744C47.5057 51.3681 47.5057 50.8714 47.1995 50.5651C46.8931 50.2587 46.3965 50.2587 46.0902 50.5651L41.9467 54.7085C41.1849 53.8652 40.5102 52.9475 39.9358 51.966L50.0222 39.5481C53.8841 34.7935 59.605 31.8427 65.7181 31.4525L66.4484 31.406C66.5441 31.4 66.6082 31.4475 66.6377 31.4766C66.6672 31.5056 66.7158 31.5686 66.7111 31.6648L66.6924 32.0464Z" fill="#E61C1C"/>
</g>
</g>
<defs>
<filter id="filter0_d_125_430" x="0.280029" y="0" width="96" height="96" filterUnits="userSpaceOnUse" color-interpolation-filters="sRGB">
<feFlood flood-opacity="0" result="BackgroundImageFix"/>
<feColorMatrix in="SourceAlpha" type="matrix" values="0 0 0 0 0 0 0 0 0 0 0 0 0 0 0 0 0 0 127 0" result="hardAlpha"/>
<feOffset/>
<feGaussianBlur stdDeviation="6.5"/>
<feComposite in2="hardAlpha" operator="out"/>
<feColorMatrix type="matrix" values="0 0 0 0 0 0 0 0 0 0 0 0 0 0 0 0 0 0 0.15 0"/>
<feBlend mode="normal" in2="BackgroundImageFix" result="effect1_dropShadow_125_430"/>
<feBlend mode="normal" in="SourceGraphic" in2="effect1_dropShadow_125_430" result="shape"/>
</filter>
<clipPath id="clip0_125_430">
<rect width="40" height="40" fill="white" transform="translate(28.28 29.72)"/>
</clipPath>
</defs>
</svg>
