<svg width="125" height="27" viewBox="0 0 125 27" fill="none" xmlns="http://www.w3.org/2000/svg">
<g clip-path="url(#clip0_125_324)">
<path d="M56.3363 15.9724C56.3363 16.5905 56.248 17.1203 55.9831 17.6501C55.8065 18.1799 55.4533 18.6214 55.1001 18.9746C54.7469 19.3278 54.3054 19.681 53.7756 19.8576C53.2458 20.0342 52.716 20.2108 52.0979 20.2108C51.4797 20.2108 50.8616 20.1225 50.3318 19.8576C49.802 19.681 49.3605 19.3278 48.919 18.9746C48.5658 18.6214 48.2126 18.1799 47.9477 17.6501C47.6828 17.1203 47.5945 16.5905 47.5945 15.9724C47.5945 15.3542 47.6828 14.8244 47.9477 14.2946C48.2126 13.7648 48.4775 13.3233 48.8307 12.9701C49.1839 12.6169 49.7137 12.2637 50.2435 12.0871C50.7733 11.9105 51.3914 11.7339 51.9213 11.7339C52.6277 11.7339 53.2458 11.9105 53.8639 12.1754C54.482 12.4403 55.0118 12.8818 55.365 13.3233L53.9522 14.5595C53.6873 14.2063 53.3341 13.9414 53.0692 13.7648C52.8043 13.5882 52.3628 13.4999 51.9213 13.4999C51.568 13.4999 51.3031 13.5882 51.0382 13.6765C50.7733 13.7648 50.5084 13.9414 50.3318 14.2063C50.1552 14.4712 49.9786 14.6478 49.8903 15.001C49.802 15.2659 49.7137 15.6192 49.7137 15.9724C49.7137 16.3256 49.802 16.6788 49.8903 16.9437C49.9786 17.2086 50.1552 17.4735 50.4201 17.7384C50.685 18.0033 50.8616 18.0916 51.1265 18.2682C51.3914 18.3565 51.7447 18.4448 52.0979 18.4448C52.5394 18.4448 52.9809 18.3565 53.3341 18.0916C53.6873 17.8267 53.9522 17.5618 54.0405 17.1203H51.833V15.3542H56.248V15.9724H56.3363Z" fill="#9E9E9E"/>
<path d="M57.396 20.1226V11.9105H61.6345C62.076 11.9105 62.4292 11.9988 62.7824 12.0871C63.1356 12.1754 63.4005 12.4403 63.6654 12.6169C63.9303 12.8818 64.1069 13.1467 64.2835 13.4116C64.4601 13.7649 64.4601 14.1181 64.4601 14.4713C64.4601 15.0011 64.2835 15.4426 64.0186 15.8841C63.7537 16.3256 63.4005 16.5905 62.8707 16.8554L64.6367 20.1226H62.3409L60.9281 17.1203H59.4269V20.1226H57.396ZM61.4579 13.5883H59.4269V15.4426H61.4579C61.8111 15.4426 61.9877 15.3543 62.2526 15.1777C62.4292 15.0011 62.5175 14.8245 62.5175 14.4713C62.5175 14.2064 62.4292 13.9415 62.2526 13.7649C61.9877 13.6766 61.7228 13.5883 61.4579 13.5883Z" fill="#9E9E9E"/>
<path d="M65.5197 20.1226V11.9105H71.9657V13.6766H67.4623V15.1777H70.3762V16.8554H67.4623V18.4448H71.9657V20.2109H65.5197V20.1226Z" fill="#9E9E9E"/>
<path d="M73.2902 20.1226V11.9105H79.7362V13.6766H75.2328V15.1777H78.1467V16.8554H75.2328V18.4448H79.7362V20.2109H73.2902V20.1226Z" fill="#9E9E9E"/>
<path d="M80.9724 11.9105H82.915L86.6237 16.6788V11.9105H88.5663V20.1226H86.8003L82.915 15.1777V20.1226H80.9724V11.9105Z" fill="#9E9E9E"/>
<path d="M92.1868 20.1226V11.9105H94.2177V15.0894H97.5732V11.9105H99.6041V20.1226H97.5732V16.9437H94.2177V20.1226H92.1868Z" fill="#9E9E9E"/>
<path d="M109.406 15.9724C109.406 16.5905 109.317 17.1203 109.052 17.6501C108.787 18.1799 108.522 18.6214 108.081 18.9746C107.728 19.3278 107.198 19.681 106.668 19.8576C106.138 20.0342 105.52 20.2108 104.902 20.2108C104.284 20.2108 103.754 20.1225 103.136 19.8576C102.606 19.681 102.165 19.3278 101.723 18.9746C101.37 18.6214 101.017 18.1799 100.84 17.6501C100.575 17.1203 100.487 16.5905 100.487 15.9724C100.487 15.3542 100.575 14.8244 100.84 14.2946C101.105 13.7648 101.37 13.3233 101.723 12.9701C102.076 12.6169 102.606 12.2637 103.136 12.0871C103.666 11.9105 104.284 11.7339 104.902 11.7339C105.52 11.7339 106.05 11.8222 106.668 12.0871C107.198 12.2637 107.639 12.6169 108.081 12.9701C108.434 13.3233 108.787 13.7648 109.052 14.2946C109.317 14.8244 109.406 15.4425 109.406 15.9724ZM107.375 15.9724C107.375 15.6192 107.286 15.3542 107.198 15.001C107.11 14.7361 106.933 14.4712 106.668 14.2063C106.403 13.9414 106.227 13.8531 105.962 13.6765C105.697 13.5882 105.344 13.4999 105.079 13.4999C104.726 13.4999 104.461 13.5882 104.196 13.6765C103.931 13.7648 103.666 13.9414 103.489 14.2063C103.313 14.3829 103.136 14.6478 102.959 15.001C102.871 15.2659 102.783 15.6192 102.783 15.9724C102.783 16.3256 102.871 16.5905 102.959 16.9437C103.048 17.2086 103.224 17.4735 103.489 17.7384C103.666 17.915 103.931 18.0916 104.196 18.2682C104.461 18.3565 104.814 18.4448 105.079 18.4448C105.432 18.4448 105.697 18.3565 105.962 18.2682C106.227 18.1799 106.492 18.0033 106.668 17.7384C106.845 17.5618 107.021 17.2969 107.198 16.9437C107.286 16.6788 107.375 16.3256 107.375 15.9724Z" fill="#9E9E9E"/>
<path d="M109.847 18.8863L110.995 17.3852C111.525 17.8267 111.966 18.0916 112.408 18.2682C112.849 18.4448 113.291 18.5331 113.732 18.5331C114.174 18.5331 114.527 18.4448 114.792 18.3565C115.057 18.1799 115.145 18.0033 115.145 17.7384C115.145 17.4735 115.057 17.2969 114.88 17.2086C114.704 17.1203 114.439 16.9437 113.997 16.9437L112.231 16.5905C111.525 16.5022 111.083 16.2373 110.73 15.7958C110.377 15.4425 110.2 14.9127 110.2 14.2946C110.2 13.4999 110.465 12.8818 111.083 12.4403C111.701 11.9988 112.496 11.7339 113.556 11.7339C114.174 11.7339 114.792 11.8222 115.41 12.0871C116.028 12.2637 116.558 12.6169 116.999 12.9701L115.94 14.4712C115.498 14.118 115.057 13.8531 114.704 13.7648C114.262 13.5882 113.909 13.4999 113.467 13.4999C113.026 13.4999 112.761 13.5882 112.496 13.6765C112.231 13.7648 112.143 13.9414 112.143 14.2063C112.143 14.3829 112.231 14.5595 112.408 14.6478C112.584 14.7361 112.849 14.8244 113.114 14.9127L114.792 15.1776C115.587 15.2659 116.205 15.5308 116.558 15.9724C116.999 16.4139 117.176 16.8554 117.176 17.5618C117.176 18.3565 116.823 19.0629 116.205 19.5044C115.587 19.9459 114.704 20.2108 113.556 20.2108C112.938 20.2108 112.231 20.1225 111.613 19.8576C110.907 19.5927 110.377 19.3278 109.847 18.8863Z" fill="#9E9E9E"/>
<path d="M117.353 13.6766V11.9105H124.77V13.6766H122.121V20.1226H120.09V13.6766H117.353Z" fill="#9E9E9E"/>
<path d="M22.3403 17.8267C24.1946 17.8267 25.784 16.3256 25.784 14.383C25.784 12.4403 24.2829 10.9392 22.3403 10.9392C20.3976 10.9392 18.8965 12.4403 18.8965 14.383C18.8965 16.3256 20.4859 17.8267 22.3403 17.8267ZM12.2739 20.6524C11.0377 20.6524 10.0664 21.6237 10.0664 22.8599C10.0664 24.0961 11.0377 25.0674 12.2739 25.0674C13.5101 25.0674 14.4814 24.0961 14.4814 22.8599C14.5697 21.6237 13.5101 20.6524 12.2739 20.6524ZM29.581 22.595C28.698 22.595 27.9916 23.3014 27.9916 24.1844C27.9916 25.0674 28.698 25.7738 29.581 25.7738C30.464 25.7738 31.1704 25.0674 31.1704 24.1844C31.1704 23.3014 30.464 22.595 29.581 22.595ZM38.676 14.6479C38.4994 12.0871 36.3802 9.96788 33.8195 9.79128C31.4353 9.61468 29.4044 11.0275 28.5214 12.9701L27.0203 16.5905C26.3138 18.3565 24.8127 19.681 23.0467 20.2992C21.8105 20.7407 20.3976 20.3875 19.4263 19.5044C19.0731 19.1512 18.7199 18.798 18.7199 18.798C17.9252 18.0916 17.3954 17.1203 17.2188 16.0607C17.1305 15.7075 17.1305 15.3543 17.1305 15.0011L17.3071 11.0275L17.3954 9.17317C17.3954 9.08487 17.3954 9.08487 17.3954 8.99656C17.3954 3.96338 13.1569 -0.0101866 8.12374 0.343019C3.79696 0.607924 0.353206 4.05168 0 8.29015C0 9.08487 0 9.79128 0.176603 10.4977C0.883015 14.5596 4.41507 17.5618 8.74185 17.5618C8.91845 17.5618 12.5388 17.8267 13.9516 18.6214L14.9229 19.1512C15.8943 19.681 16.6007 20.5641 17.0422 21.5354L18.2784 24.5376C18.6316 25.7738 19.6912 26.7452 21.1041 26.7452C21.9871 26.7452 22.8701 26.3037 23.3999 25.6855C23.8414 25.1557 27.0203 21.9769 27.0203 21.9769C27.7267 21.1822 28.7863 20.7407 29.8459 20.6524L34.0844 20.3875C36.2919 20.2109 38.0579 18.7097 38.7644 16.6788C38.941 16.149 39.0293 15.6192 39.0293 15.0894C38.676 14.9128 38.676 14.7362 38.676 14.6479Z" fill="#9E9E9E"/>
</g>
<defs>
<clipPath id="clip0_125_324">
<rect width="124.77" height="26.4904" fill="white" transform="translate(0 0.254761)"/>
</clipPath>
</defs>
</svg>
