<svg width="60" height="60" viewBox="0 0 60 60" fill="none" xmlns="http://www.w3.org/2000/svg">
<path d="M14.2428 10.9874C16.503 6.01264 20.0524 2.41303 25.3045 0.630285C25.5445 0.587815 25.6439 0.678224 25.5805 0.922101C24.744 1.81171 24.0105 2.84449 23.0388 3.54652C22.237 4.12565 21.8806 4.84183 21.6447 5.6732C21.3043 6.87071 20.7155 7.72268 19.3568 7.78606C19.196 7.79378 18.9936 7.78348 18.8865 7.87261C17.4695 9.04856 15.4043 9.37866 14.5031 11.2238C14.2817 11.2943 14.1633 11.2505 14.2428 10.9874Z" fill="url(#paint0_linear_209_2528)"/>
<path d="M25.5416 32.8012C20.4183 30.8997 16.5761 27.6138 14.4259 22.5014C14.3667 22.2649 14.4497 22.1594 14.6978 22.2054C15.6443 22.9776 16.7263 23.6355 17.4969 24.5541C18.131 25.3131 18.871 25.6158 19.7169 25.7944C20.9356 26.0489 21.8271 26.5759 21.9867 27.9269C22.0054 28.0858 22.0099 28.2891 22.1064 28.3898C23.3799 29.7193 23.8551 31.7559 25.7594 32.5242C25.8437 32.7413 25.8087 32.8623 25.5416 32.8012Z" fill="url(#paint1_linear_209_2528)"/>
<path d="M26.4769 11.479C26.4229 11.466 26.3701 11.4485 26.3189 11.4268L26.1436 11.4211C26.2054 11.3651 26.2723 11.3612 26.3479 11.3863C26.3592 11.3981 26.3714 11.4088 26.3846 11.4185C26.4133 11.4415 26.4443 11.4618 26.4769 11.479Z" fill="url(#paint2_linear_209_2528)"/>
<path d="M33.1378 12.5574L32.5713 12.4439C32.6813 12.3937 32.8142 12.4053 32.9644 12.4728C33.022 12.4995 33.0799 12.5269 33.1378 12.5574Z" fill="url(#paint3_linear_209_2528)"/>
<path d="M37.3928 16.8684C37.3636 16.9073 37.3365 16.9478 37.3117 16.9897C37.2874 16.9725 37.2687 16.9484 37.258 16.9205C37.3006 16.8975 37.3459 16.88 37.3928 16.8684Z" fill="url(#paint4_linear_209_2528)"/>
<path d="M39.8651 24.0499C40.0903 24.7729 39.7042 25.2503 39.497 25.7529C39.3181 26.1875 39.0343 26.5791 38.7962 26.9896C38.781 27.0174 38.7624 27.0433 38.7409 27.0665C38.5479 27.2612 38.2882 27.5092 38.0575 27.3451C37.8362 27.1875 37.9526 26.8426 38.1113 26.6274C38.314 26.3523 38.4652 26.0865 38.4555 25.7246C38.4507 25.5466 38.5717 25.3668 38.7628 25.277C39.2689 25.0405 39.5806 24.6181 39.8651 24.0499Z" fill="url(#paint5_linear_209_2528)"/>
<path d="M26.5544 7.51483C26.4602 7.51934 26.4087 7.48491 26.4164 7.37938C26.4348 7.12585 26.8697 6.69826 27.0853 6.7314C27.1844 6.74684 27.2635 6.78867 27.2523 6.91479C27.2301 7.16317 26.8115 7.52545 26.5544 7.51483Z" fill="url(#paint6_linear_209_2528)"/>
<path d="M32.9644 12.4728C32.8142 12.4053 32.6813 12.3937 32.5713 12.4439L33.1378 12.5574C33.0799 12.5269 33.022 12.4995 32.9644 12.4728Z" fill="url(#paint7_linear_209_2528)"/>
<path d="M40.2589 17.3018C40.0015 17.5656 39.6476 17.6715 39.3323 17.841C38.8854 18.0839 38.6177 17.9279 38.5369 17.4404C38.1016 17.111 37.5624 16.907 37.2368 16.4543C37.2786 16.5292 37.3017 16.6131 37.304 16.6988C37.2963 16.7181 37.2886 16.7355 37.2789 16.7548L37.3928 16.8684C37.3636 16.9073 37.3365 16.9478 37.3117 16.9897C37.2874 16.9725 37.2687 16.9484 37.258 16.9205C37.2463 16.8983 37.2391 16.8741 37.2368 16.8491C37.2233 16.7912 37.2233 16.7297 37.202 16.6757C37.1116 16.5293 36.9861 16.3945 37.0151 16.1998C36.5373 16.0747 36.703 15.7262 36.7436 15.4199C36.6744 15.3878 36.6087 15.3466 36.5373 15.3331C36.4199 15.3122 36.2581 15.4891 36.1908 15.2687C36.1265 15.0606 36.2889 14.9663 36.4276 14.8662C36.2774 14.6732 36.1271 14.4801 35.9749 14.2845C35.6477 14.1822 35.5454 13.9473 35.5888 13.6275H35.5869C35.4289 13.3618 35.2188 13.1057 35.3981 12.7646L35.3865 12.7608C34.753 12.811 34.1153 12.9216 33.493 12.7202C33.4564 12.7086 33.4219 12.6971 33.3872 12.6836C33.3045 12.6414 33.2215 12.5989 33.1388 12.5584L32.5722 12.4448C32.478 12.4873 32.4011 12.5735 32.347 12.7067C32.1427 13.2038 31.9001 13.3444 31.5015 13.0014C31.1083 12.6665 30.6328 12.5854 30.2145 12.3525C30.0813 12.2772 29.9179 12.2791 30.0755 12.0057C30.0852 11.9883 30.0948 11.9735 30.1026 11.9555C30.2876 11.5781 30.043 11.2949 29.5878 11.349C28.9964 11.4182 28.3974 11.4239 27.8041 11.4992C27.4999 11.5334 27.1994 11.5952 26.9064 11.6839C26.7407 11.736 26.3151 11.9555 26.3209 11.4265L26.1455 11.4207C26.1474 11.6575 25.9357 11.7193 25.799 11.839C25.4387 12.1569 24.9898 12.3859 24.9168 12.9583C24.8846 13.2086 24.6144 13.3766 24.3541 13.4165C23.7878 13.5072 23.5742 13.9869 23.2853 14.3682C22.9963 14.7494 22.5552 15.1098 22.8499 15.7108C22.9075 15.8301 22.8403 16.0229 22.7998 16.1731C22.6958 16.5718 22.5803 16.9685 22.4587 17.3616C22.4185 17.4903 22.3644 17.6216 22.4664 17.7197C22.8693 18.1184 22.9153 18.7194 23.2582 19.1354C23.7476 19.7264 24.1443 20.495 25.1188 20.4027C26.0049 20.3178 26.9238 20.5047 27.7713 20.0713C27.9949 19.9558 28.2587 20.0308 28.3317 20.2643C28.4839 20.7495 28.8076 20.7112 29.1911 20.6668C29.6052 20.6205 29.8053 20.8499 29.7573 21.2659C29.7342 21.4853 29.693 21.7032 29.657 21.9229C29.3951 22.1423 29.5048 22.3563 29.6685 22.5664C29.9941 22.9824 30.3831 23.3524 30.6164 23.8356C30.6913 24.1747 30.6682 24.5946 30.8648 24.8279C31.0884 25.0898 30.8725 25.1342 30.8072 25.269C30.1444 25.9816 30.0578 26.5923 30.7106 27.1798C30.8667 27.4513 31.044 27.6946 30.9745 28.0581C30.9323 28.2891 31.0826 28.5407 31.2827 28.7225C31.5079 28.9249 31.6797 29.1655 31.718 29.4738C31.7586 29.8052 32.0243 29.9844 32.3248 29.8399C32.662 29.679 33.022 29.6337 33.3804 29.57C34.2665 29.4162 34.8887 28.865 35.3701 28.1563C35.4917 27.977 35.5724 27.8023 35.7864 27.7576C36.1403 27.6785 36.2812 27.3741 36.2313 27.1161C36.1232 26.5788 36.4701 26.3996 36.8053 26.1724C36.99 26.0469 37.1654 25.9102 37.3446 25.7773C37.8857 25.371 38.0321 24.6545 37.8146 23.9975C37.6451 23.4827 37.5643 22.9248 37.8722 22.4045C38.3548 21.8364 38.5852 21.0967 39.1379 20.5748C39.9699 19.7869 40.182 18.7293 40.3551 17.6624C40.3724 17.554 40.413 17.4115 40.2589 17.3018Z" fill="url(#paint8_linear_209_2528)"/>
<path d="M45.4469 10.7843C43.806 5.69927 37.2191 0.577016 32.6658 0.55532C33.1385 0.557572 33.2588 1.45039 33.7462 1.31237C33.346 1.74028 34.5773 2.06974 34.7295 2.59321C34.5425 2.6183 34.4077 2.63568 34.1938 2.66656C34.5271 2.88792 34.8006 3.07099 35.0914 3.26564C34.8681 3.38694 34.585 3.10477 34.4521 3.51209C34.3807 3.73152 33.8991 3.70674 33.9222 4.08607C33.6758 4.08993 33.6507 3.70481 33.3463 3.84927C33.4869 3.98215 33.6121 4.09959 33.7376 4.21702C33.3984 4.24018 33.5371 4.84312 33.0979 4.7392C33.0239 4.62273 32.5368 4.35311 32.94 4.36148C34.1947 4.21638 32.5072 3.88145 32.152 3.77431C31.7129 3.62953 30.9751 3.718 30.7731 4.088C30.5997 4.98276 29.0228 5.19317 29.4687 6.11817C29.6988 6.57311 30.0434 5.9055 30.2837 6.08149C30.4877 6.32086 30.6987 6.92605 30.1447 6.82567C30.4368 6.28354 29.86 6.2755 29.8551 6.75071C30.0765 7.2687 29.6489 7.23814 29.3803 7.34528C28.749 7.78992 28.1033 8.32658 27.3404 8.3565C27.5277 8.70044 28.0515 8.92598 27.7526 9.48258C27.5274 9.89312 26.9981 9.54339 26.6413 9.51733C25.9428 9.1898 26.1288 9.9742 25.8939 10.3645C25.5612 10.9314 26.2131 11.3718 26.6703 11.4799C26.6375 11.4623 26.6065 11.4416 26.5776 11.4182C27.6944 11.4844 27.8584 10.2872 28.7352 9.83102C29.7396 9.04341 31.302 10.0807 31.4204 11.1331C31.5954 11.0655 31.692 10.9211 31.6456 10.7843C31.4761 10.2798 31.8387 10.6878 31.8998 10.5128C31.4606 10.1968 30.7737 9.99801 30.6054 9.21457C31.8502 9.60323 32.3296 10.4993 32.9438 11.4761C33.1253 11.0678 32.5671 10.719 33.0442 10.4011C33.6233 9.81558 33.6095 11.164 34.0918 11.2525C34.7134 11.6743 35.6091 10.7943 35.8192 11.4056C35.9289 11.8374 36.1409 12.5336 35.584 12.7041C35.3054 13.9004 36.2503 13.3312 36.6934 14.2144C37.2081 14.5631 38.4993 18.4439 39.4124 17.1602C40.82 16.1483 42.4641 14.2253 40.5706 13.0568C40.1321 14.5429 39.7885 13.2865 39.0301 13.1353C38.6228 12.1218 38.8957 12.0838 39.6472 12.7704C40.1025 13.4068 40.3416 12.6186 40.6717 12.8953C41.1449 13.4586 41.8814 12.5378 42.3341 12.6758C42.6999 12.8158 43.2394 13.9859 43.4705 13.1633C43.9502 14.3016 44.4035 15.3784 44.8861 16.5245C45.3735 15.9946 44.1677 9.83231 45.4469 12.3116C46.0292 13.43 46.039 12.6192 45.4469 10.7843ZM33.8582 1.23322C33.9139 1.20652 33.9814 1.20845 34.0487 1.21038C33.9846 1.21124 33.9207 1.2189 33.8582 1.23322ZM32.134 6.32633C31.7869 6.36012 31.5568 7.094 30.831 6.94214C31.6328 6.59241 31.2985 5.7131 31.5256 5.0915C31.4021 5.71374 31.6817 6.00073 32.1591 5.85048C32.0108 6.03741 32.0359 6.18959 32.134 6.32633ZM35.2066 9.64892C34.5985 9.58457 34.2556 10.3011 33.7829 9.48805C34.0294 9.30723 34.1912 9.01638 34.4782 8.88865C34.4782 9.52795 35.1989 9.30016 35.1931 8.74001C35.2015 9.41341 35.9743 9.32075 36.241 9.79563C35.8961 9.74898 35.5512 9.7049 35.2066 9.64892ZM38.7583 10.2866C38.5636 10.2107 38.256 10.3355 38.1422 10.2712C38.1505 9.40408 36.6078 9.0566 37.2191 8.24421C37.684 7.72943 37.4311 8.86999 37.8433 8.8124C38.1866 9.18015 38.7335 9.81429 38.7583 10.2866ZM38.8374 8.35071C38.5903 8.34846 38.4594 7.95433 38.7103 7.84976C38.9298 7.89867 39.1743 8.29183 38.8374 8.35071Z" fill="url(#paint9_linear_209_2528)"/>
<path d="M32.7312 0.595215L32.7871 0.672111C32.6813 0.633824 32.5771 0.591354 32.4731 0.556607C32.5465 0.550815 32.6176 0.545024 32.6909 0.541163L32.7312 0.595215Z" fill="url(#paint10_linear_209_2528)"/>
<path d="M29.9999 33.4286C20.7837 33.4286 13.2856 25.9321 13.2856 16.7143C13.2856 7.49649 20.7837 0 29.9999 0C39.2161 0 46.7142 7.4981 46.7142 16.7143C46.7142 25.9305 39.2161 33.4286 29.9999 33.4286ZM29.9999 0.297929C20.9478 0.297929 13.5836 7.66219 13.5836 16.7143C13.5836 25.7664 20.9478 33.1306 29.9999 33.1306C39.052 33.1306 46.4163 25.7664 46.4163 16.7143C46.4163 7.66219 39.052 0.297929 29.9999 0.297929Z" fill="url(#paint11_linear_209_2528)"/>
<path d="M9.65693 48.3286C9.54755 48.3286 9.49285 48.323 9.49285 48.3118L9.53973 48.295C9.57098 48.2838 9.60224 48.267 9.63349 48.2446C9.66474 48.2221 9.68818 48.1997 9.70381 48.1773C9.73506 48.1549 9.7585 48.1437 9.77413 48.1437C9.821 48.1437 9.84444 48.1605 9.84444 48.1941C9.84444 48.2165 9.83663 48.239 9.821 48.2614C9.80538 48.2838 9.78194 48.3006 9.75068 48.3118C9.71943 48.323 9.68818 48.3286 9.65693 48.3286ZM8.69592 48.5809H8.64904C8.64904 48.5585 8.69592 48.5136 8.78968 48.4464C8.88344 48.3791 8.99282 48.3455 9.11783 48.3455C9.24284 48.3455 9.30534 48.3679 9.30534 48.4127C9.30534 48.4352 9.28972 48.452 9.25846 48.4632C9.22721 48.4744 9.18033 48.48 9.11783 48.48C9.07095 48.48 9.01626 48.4912 8.95375 48.5136C8.90688 48.5249 8.86 48.5417 8.81312 48.5641C8.76624 48.5753 8.72718 48.5809 8.69592 48.5809ZM18.1888 35.1943C18.22 35.1831 18.2435 35.1607 18.2591 35.127C18.2903 35.0934 18.3138 35.0766 18.3294 35.0766C18.345 35.0878 18.3607 35.1158 18.3763 35.1607V35.1775L18.1888 35.1943ZM11.1336 59.9999C10.8367 59.9999 10.5789 59.9775 10.3601 59.9326C9.98508 59.8654 9.52411 59.7252 8.97719 59.5122C8.44591 59.3104 8.05525 59.1254 7.80524 58.9572C7.6646 58.8563 7.47709 58.7386 7.2427 58.6041C6.80517 58.3126 6.5239 58.1164 6.39889 58.0154C6.28951 57.9033 6.23481 57.8249 6.23481 57.78C6.23481 57.7239 6.12543 57.567 5.90667 57.3091C5.64102 56.9391 5.38319 56.429 5.13317 55.7787C4.75815 54.8033 4.54719 53.8503 4.50032 52.9198C4.46906 52.561 4.45344 52.191 4.45344 51.8098C4.45344 50.812 4.40656 50.3131 4.3128 50.3131C4.28155 50.3131 4.22686 50.3411 4.14873 50.3972C4.0706 50.442 3.98466 50.4925 3.8909 50.5485C3.51587 50.7391 3.30492 50.8513 3.25804 50.8849L2.83614 51.1708C2.77363 51.2044 2.72675 51.2268 2.6955 51.2381C2.66425 51.2381 2.54705 51.3221 2.34391 51.4903C2.25016 51.5688 2.00795 51.7314 1.6173 51.978C1.32041 52.1126 1.14852 52.2079 1.10164 52.2639C1.07039 52.32 1.03132 52.348 0.984444 52.348H0.796931C0.750053 52.348 0.726614 52.3312 0.726614 52.2975C0.726614 52.2527 0.671922 52.2135 0.56254 52.1798C0.453157 52.135 0.390652 52.0957 0.375026 52.0621L0.398466 51.6753C0.398466 51.6305 0.382839 51.608 0.351587 51.608C0.335961 51.608 0.312522 51.6192 0.28127 51.6417C0.203139 51.6417 0.148448 51.6305 0.117196 51.608C0.0859435 51.5744 0.0546914 51.4959 0.0234392 51.3726C0.00781306 51.2941 0 51.21 0 51.1203C0 51.0867 0.0312522 51.0699 0.0937566 51.0699C0.187513 51.0362 0.273457 50.9578 0.351587 50.8344C0.414092 50.7111 0.468783 50.6494 0.515661 50.6494H0.5391C0.632857 50.6494 0.750053 50.6102 0.890688 50.5317C0.953192 50.4869 1.06257 50.4308 1.21884 50.3635C1.3751 50.2851 1.53917 50.2066 1.71106 50.1281C2.02358 50.0272 2.30485 49.9039 2.55487 49.7581L3.3518 49.3545C3.72682 49.22 4.00028 49.091 4.17217 48.9677C4.29718 48.878 4.38312 48.7491 4.43 48.5809C4.47688 48.4127 4.53938 48.0484 4.61751 47.4878L4.9691 45.5706C5.07848 45.1782 5.13317 44.9203 5.13317 44.797C5.1488 44.6737 5.18005 44.4999 5.22693 44.2757C5.36756 43.6478 5.4457 43.3171 5.46132 43.2834C5.47695 43.2498 5.49257 43.1825 5.5082 43.0816C5.5707 42.7004 5.82072 41.6634 6.25825 39.9704L6.35201 39.6004C6.35201 39.578 6.3442 39.5668 6.32857 39.5668C6.32857 39.5556 6.32076 39.55 6.30513 39.55C6.24263 39.55 5.95354 39.6341 5.43788 39.8022C5.23474 39.8807 5.06286 39.9648 4.92222 40.0545C4.78159 40.133 4.63314 40.2059 4.47688 40.2731C4.32062 40.3292 4.18779 40.374 4.07841 40.4077C3.62525 40.5198 3.21898 40.7104 2.85958 40.9795C2.73457 41.0579 2.60175 41.0972 2.46111 41.0972C2.13296 41.0972 1.88294 40.9514 1.71106 40.6599C1.60168 40.503 1.50011 40.3404 1.40635 40.1722C1.32822 39.9928 1.27353 39.8415 1.24227 39.7182L1.21884 39.5164L1.17196 39.2809C1.17196 39.2249 1.20321 39.1968 1.26571 39.1968C1.34384 39.1968 1.38291 39.1744 1.38291 39.1296C1.38291 39.0735 1.42198 39.0174 1.50011 38.9614C1.57824 38.9053 1.65637 38.8773 1.7345 38.8773L1.85169 38.8941C1.94545 38.8941 2.08608 38.8493 2.2736 38.7596C2.77363 38.5353 3.70339 38.2214 5.06286 37.8178L6.75047 37.2796C8.01619 36.82 9.55536 36.3827 11.368 35.9679L12.7743 35.6315C13.7432 35.3849 15.212 35.0934 17.1809 34.757H17.2512H17.1106L17.7669 34.6561C18.7044 34.5216 19.9623 34.4543 21.5406 34.4543C21.7125 34.4655 21.8453 34.488 21.939 34.5216C22.0328 34.544 22.1422 34.5889 22.2672 34.6561C22.5485 34.8019 22.6891 34.9028 22.6891 34.9588C22.6891 34.9925 22.6344 35.0093 22.525 35.0093C22.4313 35.0093 22.3844 35.0317 22.3844 35.0766C22.3844 35.1214 22.4547 35.1887 22.5953 35.2784C22.7516 35.3569 22.8688 35.4746 22.9469 35.6315C22.9782 35.7212 23.0563 35.8277 23.1813 35.9511C23.2594 35.9959 23.3063 36.0464 23.322 36.1024C23.322 36.4276 23.2829 36.6574 23.2048 36.7919C23.1579 36.8704 23.0797 36.9545 22.9704 37.0442C22.7203 37.1899 22.5485 37.2628 22.4547 37.2628H22.4313C22.2906 37.2628 22.1969 37.274 22.15 37.2965C22.1187 37.3077 22.0875 37.3133 22.0562 37.3133C21.9469 37.3133 21.8922 37.2684 21.8922 37.1787C21.8922 37.089 21.8297 37.0442 21.7047 37.0442C21.5953 37.0442 21.525 37.033 21.4937 37.0106C21.4624 36.9881 21.4468 36.9433 21.4468 36.876C21.4468 36.7975 21.3999 36.6742 21.3062 36.506C21.2437 36.4276 21.2124 36.3547 21.2124 36.2874C21.2124 36.265 21.2202 36.2426 21.2359 36.2201C21.2671 36.1865 21.2827 36.1585 21.2827 36.1361C21.2515 36.0912 21.1499 36.0688 20.978 36.0688L19.4545 36.1529C18.9701 36.1977 18.4779 36.2538 17.9778 36.3211C17.8216 36.3435 17.6966 36.3547 17.6028 36.3547C16.5871 36.4668 15.7277 36.6238 15.0245 36.8256C14.8057 36.8816 14.6963 36.9209 14.6963 36.9433C14.6963 36.9545 14.7198 36.9601 14.7667 36.9601C14.9073 36.9601 15.2433 36.9153 15.7745 36.8256C16.0402 36.7695 16.298 36.7191 16.548 36.6742C16.8137 36.6294 17.0481 36.5957 17.2512 36.5733L17.0168 36.6742L16.6418 36.7751C16.5168 36.7751 16.3136 36.8088 16.0324 36.876C15.9542 36.8984 15.8449 36.9209 15.7042 36.9433C15.4542 36.9994 15.2198 37.0442 15.0011 37.0778C14.0947 37.2684 13.165 37.4815 12.2118 37.7169C11.4461 37.9075 10.5867 38.1541 9.63349 38.4569V38.7596C9.63349 39.0399 9.3991 39.9648 8.93032 41.5344C8.82093 41.8596 8.68811 42.2688 8.53185 42.7621C8.37559 43.2554 8.29746 43.5357 8.29746 43.603C8.25058 43.7599 8.21152 43.8552 8.18026 43.8889C8.16464 43.9225 8.13338 44.0122 8.08651 44.1579C8.05525 44.3037 8.03181 44.4663 8.01619 44.6456C7.93806 45.0605 7.88337 45.2847 7.85212 45.3183C7.83649 45.3408 7.82086 45.38 7.80524 45.4361C7.80524 45.4809 7.80524 45.5258 7.80524 45.5706C7.77398 45.9294 7.71148 46.1816 7.61772 46.3274C7.55522 46.4171 7.52397 46.574 7.52397 46.7983C7.52397 46.9664 7.50053 47.1514 7.45365 47.3532C7.4224 47.4205 7.40677 47.471 7.40677 47.5046L7.43021 47.555L7.57084 47.5046C7.72711 47.4485 7.82868 47.4037 7.87555 47.3701L8.41465 47.1683C8.78968 47.0113 9.09439 46.8936 9.32878 46.8151C9.45379 46.7702 9.53192 46.7478 9.56317 46.7478C9.61005 46.7478 9.80538 46.6805 10.1492 46.546C10.5554 46.4003 10.7742 46.3274 10.8054 46.3274C10.8367 46.3274 11.1258 46.2489 11.6727 46.0919C12.6571 45.8117 13.4072 45.6715 13.9229 45.6715C14.2041 45.6715 14.4151 45.7107 14.5557 45.7892L14.7432 45.9238C14.5557 45.8789 14.4463 45.8565 14.4151 45.8565C14.3838 45.8565 14.3604 45.8621 14.3448 45.8733V45.8901C14.3448 46.0471 14.462 46.1536 14.6963 46.2097C14.8682 46.2433 14.9542 46.305 14.9542 46.3947C14.9542 46.4283 14.962 46.4675 14.9776 46.5124C15.0089 46.546 15.0401 46.5796 15.0714 46.6133C15.1964 46.703 15.2589 46.8543 15.2589 47.0673C15.2589 47.157 15.2354 47.2299 15.1886 47.286C14.9542 47.499 14.6338 47.7008 14.2276 47.8914L14.0635 47.9418C14.0166 47.8746 13.9307 47.8409 13.8057 47.8409C13.6963 47.8409 13.5635 47.8746 13.4072 47.9418C13.2509 47.9979 13.1181 48.0259 13.0087 48.0259C12.8681 48.0259 12.7978 47.9867 12.7978 47.9082V47.8578C12.7978 47.7905 12.7431 47.7456 12.6337 47.7232C12.5868 47.7232 12.5399 47.7176 12.4931 47.7064C12.4618 47.684 12.4462 47.6616 12.4462 47.6391C12.4462 47.6055 12.4306 47.5887 12.3993 47.5887L12.2587 47.6223C12.2274 47.6223 12.2118 47.6111 12.2118 47.5887C12.2118 47.555 12.1493 47.5382 12.0243 47.5382C11.8524 47.5382 11.7039 47.5831 11.5789 47.6728L11.4852 47.7064C11.4539 47.7064 11.4305 47.7008 11.4149 47.6896C11.4149 47.6784 11.4149 47.6672 11.4149 47.656C11.4149 47.6335 11.4305 47.6055 11.4617 47.5719C11.493 47.527 11.5086 47.499 11.5086 47.4878H11.4852C11.3914 47.4878 11.2039 47.5382 10.9226 47.6391C10.8758 47.6391 10.8133 47.6447 10.7351 47.656C10.657 47.6672 10.5789 47.6728 10.5007 47.6728C10.2663 47.7064 10.1179 47.7456 10.0554 47.7905C9.99289 47.8353 9.88351 47.8914 9.72725 47.9587C9.24284 48.1493 8.93032 48.2614 8.78968 48.295C8.7428 48.295 8.70374 48.2726 8.67248 48.2277C8.67248 48.2053 8.72718 48.1661 8.83656 48.11C9.14908 47.9531 9.3991 47.8634 9.58661 47.8409C9.78975 47.7961 9.9382 47.7513 10.032 47.7064C10.782 47.4037 11.2664 47.2355 11.4852 47.2019C11.6414 47.1795 11.7821 47.1402 11.9071 47.0842C12.0477 47.0169 12.2665 46.9552 12.5634 46.8992C13.1572 46.7534 13.4541 46.6525 13.4541 46.5965C13.4541 46.5852 13.4384 46.5796 13.4072 46.5796C13.2197 46.5796 12.7353 46.6805 11.954 46.8824C10.8914 47.1626 9.96164 47.4541 9.16471 47.7569L7.35989 48.4632C7.26614 48.5192 7.21926 48.5641 7.21926 48.5977C7.21926 48.6089 7.22707 48.6201 7.2427 48.6314C7.27395 48.6426 7.3052 48.6482 7.33645 48.6482C7.41458 48.6482 7.52397 48.6201 7.6646 48.5641C7.83649 48.4632 7.96931 48.4127 8.06307 48.4127C8.17245 48.4127 8.23495 48.3903 8.25058 48.3455C8.28183 48.3006 8.30527 48.2782 8.3209 48.2782C8.33652 48.2782 8.35996 48.2894 8.39121 48.3118C8.42247 48.3343 8.43809 48.3567 8.43809 48.3791C8.43809 48.4127 8.34434 48.4744 8.15682 48.5641C7.98494 48.6426 7.88337 48.6818 7.85212 48.6818C7.82086 48.6818 7.76617 48.6986 7.68804 48.7323L7.17238 49.035V49.0518C7.17238 49.0742 7.20363 49.0854 7.26614 49.0854C7.35989 49.0854 7.47709 49.035 7.61772 48.9341C7.77398 48.822 7.88337 48.7659 7.94587 48.7659C7.97712 48.7659 8.00056 48.7771 8.01619 48.7995C8.01619 48.8668 7.9615 48.9229 7.85212 48.9677C7.75836 49.0013 7.6646 49.0462 7.57084 49.1022C7.53959 49.1247 7.49271 49.1527 7.43021 49.1863C7.36771 49.22 7.3052 49.2536 7.2427 49.2872C7.19582 49.3097 7.14113 49.3321 7.07862 49.3545V51.6417C7.09425 53.8279 7.16457 55.0051 7.28958 55.1733C7.3052 55.2182 7.32864 55.2966 7.35989 55.4088C7.40677 55.5209 7.44584 55.6498 7.47709 55.7956C7.6021 56.2328 7.75836 56.642 7.94587 57.0232C8.14901 57.4044 8.39903 57.7576 8.69592 58.0827C8.7428 58.1612 8.78187 58.2285 8.81312 58.2845C8.84437 58.3406 8.88344 58.3966 8.93032 58.4527C9.00845 58.5984 9.18815 58.7218 9.46942 58.8227C9.65693 58.9012 9.82882 58.9404 9.98508 58.9404C10.3132 58.9404 10.6648 58.8787 11.0398 58.7554C11.2117 58.7106 11.3289 58.6713 11.3914 58.6377C11.5477 58.5704 11.6961 58.5256 11.8368 58.5032C12.0555 58.4695 12.3759 58.3518 12.7978 58.15C13.2197 57.937 13.4384 57.8305 13.4541 57.8305C13.4697 57.8305 13.4775 57.8361 13.4775 57.8473C13.4775 57.8585 13.4541 57.8865 13.4072 57.9314C13.3759 57.965 13.3056 58.0211 13.1962 58.0995C13.1025 58.1668 13.0009 58.2285 12.8915 58.2845C12.7821 58.3406 12.6962 58.3854 12.6337 58.4191L12.5399 58.4863C12.5712 58.4975 12.6103 58.5032 12.6571 58.5032C12.7353 58.5032 12.8837 58.4695 13.1025 58.4022C13.3212 58.335 13.5556 58.2285 13.8057 58.0827C13.9619 57.9818 14.1026 57.9089 14.2276 57.8641L14.4854 57.7968C14.5792 57.7968 14.712 57.7352 14.8839 57.6118L15.4464 57.2755C15.5558 57.2194 15.712 57.0961 15.9152 56.9055C16.1183 56.7149 16.3058 56.5075 16.4777 56.2833L16.6418 56.0983L17.0637 55.6442C17.1106 55.5769 17.134 55.5265 17.134 55.4928C17.134 55.448 17.1887 55.3863 17.2981 55.3079C17.345 55.2742 17.384 55.235 17.4153 55.1901C17.4465 55.1341 17.4622 55.0948 17.4622 55.0724C17.4622 54.9827 17.509 54.9042 17.6028 54.837C17.6966 54.7585 17.7434 54.68 17.7434 54.6015V54.5174C17.7434 54.4614 17.7591 54.4221 17.7903 54.3997C17.8372 54.3661 17.8606 54.3212 17.8606 54.2652C17.8606 54.2091 17.8763 54.1531 17.9075 54.097C17.9544 54.0409 18.0013 53.9905 18.0481 53.9456C18.1106 53.9008 18.1653 53.8784 18.2122 53.8784C18.2435 53.8784 18.2591 53.8952 18.2591 53.9288C18.2591 54.0409 18.1341 54.2932 17.8841 54.6856C17.8216 54.8201 17.6419 55.0948 17.345 55.5097C17.2825 55.5769 17.2043 55.689 17.1106 55.846C17.0168 55.9918 16.9153 56.1487 16.8059 56.3169C16.7121 56.4739 16.6184 56.6196 16.5246 56.7541C16.4465 56.8887 16.384 56.9784 16.3371 57.0232C16.3058 57.0569 16.2902 57.0905 16.2902 57.1241V57.2082C16.2902 57.2643 16.2511 57.3315 16.173 57.41C16.1261 57.4324 16.0871 57.4661 16.0558 57.5109C16.0246 57.5558 16.0089 57.6006 16.0089 57.6455C16.0089 57.6791 15.9777 57.6959 15.9152 57.6959C15.8683 57.6959 15.8449 57.7296 15.8449 57.7968C15.8449 57.8529 15.7902 57.9482 15.6808 58.0827C15.3683 58.4191 15.0557 58.6881 14.7432 58.8899C14.4932 59.0693 14.0713 59.288 13.4775 59.5458C13.0087 59.7588 12.6571 59.8822 12.4227 59.9158C12.2665 59.9382 12.0633 59.955 11.8133 59.9663C11.5633 59.9887 11.3367 59.9999 11.1336 59.9999ZM10.196 37.7337C10.2273 37.7337 10.321 37.7057 10.4773 37.6496C10.6492 37.5824 10.7351 37.5431 10.7351 37.5319H10.7117C10.6961 37.5319 10.6492 37.5431 10.5711 37.5655C10.4929 37.588 10.4226 37.6104 10.3601 37.6328C10.2976 37.644 10.2507 37.6608 10.2195 37.6833C10.1882 37.7057 10.1726 37.7225 10.1726 37.7337H10.196ZM9.49285 37.5824C9.91476 37.5599 10.2273 37.5151 10.4304 37.4478C11.2899 37.19 11.7821 37.061 11.9071 37.061L11.9305 37.0778C11.9305 37.1227 11.8368 37.1787 11.6493 37.246C11.4774 37.3133 11.3914 37.3581 11.3914 37.3805C11.3914 37.3918 11.4071 37.3974 11.4383 37.3974C11.5946 37.3974 11.9149 37.3357 12.3993 37.2124C12.8837 37.0778 13.2041 36.9937 13.3603 36.9601C13.5009 36.9041 13.5713 36.8536 13.5713 36.8088C13.5713 36.7527 13.9072 36.6406 14.5791 36.4724C15.0792 36.3379 15.4073 36.2706 15.5636 36.2706C15.6261 36.2706 15.6574 36.2874 15.6574 36.3211C15.6574 36.3435 15.6261 36.3547 15.5636 36.3547C15.5011 36.3547 15.423 36.3659 15.3292 36.3883C15.2511 36.4107 15.1651 36.4388 15.0714 36.4724C14.9776 36.506 14.9307 36.5285 14.9307 36.5397C14.9307 36.5509 14.9464 36.5565 14.9776 36.5565C15.1026 36.5565 15.3917 36.506 15.8449 36.4051C16.298 36.3042 17.0481 36.1809 18.095 36.0352L19.5248 35.8165L19.5014 35.7997L18.892 35.867L18.5404 35.8838C18.6966 35.7268 18.8529 35.6484 19.0091 35.6484L19.1263 35.6652C19.1732 35.6652 19.2201 35.6484 19.267 35.6147C19.4389 35.5362 19.7748 35.497 20.2749 35.497C20.5093 35.4858 20.689 35.4746 20.814 35.4634C20.939 35.4522 21.064 35.4409 21.189 35.4297C21.5953 35.4185 21.7984 35.4017 21.7984 35.3793C21.7984 35.3232 21.525 35.2952 20.978 35.2952C19.3685 35.2952 17.7669 35.4522 16.173 35.7661C15.5323 35.9006 14.8292 36.0576 14.0635 36.237L12.0008 36.691L9.51629 37.3637C9.20377 37.4758 9.04751 37.5431 9.04751 37.5655C9.04751 37.5768 9.09439 37.5824 9.18815 37.5824H9.49285ZM7.80524 37.3805C7.86774 37.3805 7.90681 37.3749 7.92243 37.3637C7.95368 37.3525 8.03182 37.3413 8.15682 37.3301C8.29746 37.3189 8.45372 37.3077 8.62561 37.2965C9.06314 37.2965 9.35222 37.2516 9.49285 37.1619L9.68037 37.0778L9.79756 37.061C9.86007 37.061 9.9382 37.0498 10.032 37.0274C10.1413 36.9937 10.2663 36.9545 10.407 36.9097C10.8289 36.7303 11.2274 36.6294 11.6024 36.6069L12.2587 36.422L12.9384 36.3211C13.079 36.2874 13.1572 36.2706 13.1728 36.2706C13.2041 36.2706 13.3447 36.2314 13.5947 36.1529C13.9854 36.0296 14.3057 35.9455 14.5557 35.9006C14.7276 35.8782 14.9151 35.8446 15.1182 35.7997C15.337 35.7549 15.5245 35.7212 15.6808 35.6988C16.6027 35.5194 17.5169 35.3569 18.4232 35.2111C18.4388 35.2223 18.4622 35.2279 18.4935 35.2279C18.5247 35.2279 18.5794 35.2167 18.6576 35.1943C18.892 35.1382 19.3217 35.0878 19.9467 35.0429L20.3452 35.0093C20.3764 34.9981 20.4702 34.9925 20.6264 34.9925L21.6109 35.0093C21.7515 35.0093 21.8218 34.9813 21.8218 34.9252C21.8218 34.8916 21.7593 34.8523 21.6343 34.8075C21.5093 34.7514 21.3296 34.7122 21.0952 34.6898C20.9858 34.6786 20.6655 34.673 20.1342 34.673C19.4311 34.673 18.8451 34.701 18.3763 34.757L17.3684 34.8916C16.9465 34.9364 16.6262 34.9813 16.4074 35.0261C16.3136 35.0598 16.2199 35.0878 16.1261 35.1102C16.048 35.1214 15.8996 35.1494 15.6808 35.1943C15.4777 35.2279 15.2511 35.2672 15.0011 35.312L13.876 35.5306C12.7196 35.7997 12.0712 35.9623 11.9305 36.0183L11.3211 36.1529C11.118 36.1977 10.7664 36.2874 10.2663 36.422C9.17252 36.7022 8.3209 36.9545 7.71148 37.1787C7.50834 37.246 7.40677 37.3021 7.40677 37.3469C7.45365 37.3693 7.54741 37.3805 7.68804 37.3805H7.80524ZM7.40677 48.1773C7.46928 48.1773 7.80524 48.0428 8.41465 47.7737C8.96157 47.5494 9.2819 47.4373 9.37566 47.4373C9.48504 47.4373 9.53973 47.4149 9.53973 47.3701C9.53973 47.3252 9.56317 47.3028 9.61005 47.3028C9.67255 47.3028 9.90695 47.2355 10.3132 47.101C11.6102 46.6749 12.5165 46.4171 13.0322 46.3274C13.5947 46.2601 13.876 46.1704 13.876 46.0583C13.876 45.9798 13.751 45.9406 13.5009 45.9406C13.1884 45.9406 12.579 46.0471 11.6727 46.2601C10.782 46.4731 9.59443 46.8599 8.10995 47.4205C7.60991 47.6111 7.34427 47.7344 7.31301 47.7905C7.29739 47.8353 7.28958 47.897 7.28958 47.9755C7.28958 48.11 7.32864 48.1773 7.40677 48.1773ZM6.63328 38.44C6.68016 38.44 6.7036 38.4176 6.7036 38.3728C6.7036 38.3279 6.68016 38.3055 6.63328 38.3055C6.5864 38.3055 6.56296 38.3279 6.56296 38.3728C6.56296 38.4176 6.5864 38.44 6.63328 38.44ZM4.80503 38.44L5.13317 38.3896C5.36756 38.356 5.60196 38.2943 5.83635 38.2046C6.07074 38.1149 6.21919 38.0701 6.28169 38.0701C6.35982 38.0701 6.41451 38.0645 6.44577 38.0532C6.49264 38.0308 6.51608 38.0084 6.51608 37.986C6.56296 37.9187 6.61765 37.8851 6.68016 37.8851C6.75829 37.8851 6.79735 37.8122 6.79735 37.6664V37.4646L6.4692 37.5992C6.26607 37.7001 6.11762 37.7505 6.02386 37.7505C5.94573 37.7505 5.90667 37.773 5.90667 37.8178C5.90667 37.8626 5.8676 37.9075 5.78947 37.9523C5.58633 38.0869 5.42226 38.1541 5.29725 38.1541C5.23474 38.1541 5.07067 38.2494 4.80503 38.44ZM3.30492 50.3467C3.33617 50.3467 3.52369 50.2739 3.86746 50.1281C4.21123 49.9711 4.38312 49.8815 4.38312 49.859C4.38312 49.8478 4.37531 49.8422 4.35968 49.8422C4.26592 49.8422 4.11748 49.8983 3.91434 50.0104C3.49243 50.2122 3.28148 50.3243 3.28148 50.3467H3.30492ZM1.78138 50.7167L1.99233 50.6158C2.05483 50.5822 2.13296 50.5485 2.22672 50.5149L2.67206 50.2963C2.95333 50.1505 3.11741 50.0608 3.16428 50.0272C3.21116 49.9936 3.42212 49.8871 3.79714 49.7077C3.9534 49.6516 4.08622 49.59 4.19561 49.5227C4.32062 49.4554 4.38312 49.3937 4.38312 49.3377L4.35968 49.3209L4.28936 49.3713C4.22686 49.405 4.17998 49.4218 4.14873 49.4218C4.1331 49.4218 4.11748 49.4218 4.10185 49.4218C4.0706 49.4218 4.05497 49.405 4.05497 49.3713C4.05497 49.3601 4.07841 49.3489 4.12529 49.3377C4.17217 49.3153 4.21905 49.2872 4.26592 49.2536C4.32843 49.22 4.37531 49.1919 4.40656 49.1695C4.43781 49.1359 4.45344 49.1079 4.45344 49.0854C4.45344 49.0742 4.45344 49.0686 4.45344 49.0686H4.43C4.38312 49.0686 4.27374 49.1022 4.10185 49.1695C3.63307 49.3601 2.96896 49.7021 2.10952 50.1954L2.03921 50.229C1.94545 50.2963 1.89857 50.3355 1.89857 50.3467C1.94545 50.3467 2.03921 50.3131 2.17984 50.2458C2.25797 50.1898 2.32829 50.1617 2.39079 50.1617C2.40642 50.1617 2.41423 50.1673 2.41423 50.1786C2.42986 50.1898 2.43767 50.201 2.43767 50.2122C2.40642 50.2795 2.21109 50.4252 1.85169 50.6494L1.78138 50.6999V50.7167ZM17.509 35.312H17.4856L18.1888 35.1943C18.1419 35.2503 17.9153 35.2896 17.509 35.312ZM18.4232 35.2111L18.3763 35.1775L18.9623 35.0934V35.1102L18.4232 35.2111Z" fill="url(#paint12_linear_209_2528)"/>
<path d="M26.8704 55.6274H26.8235C26.761 55.6274 26.6829 55.605 26.5891 55.5601C26.511 55.5153 26.4329 55.4928 26.3548 55.4928C26.3235 55.4928 26.2923 55.4984 26.261 55.5097C26.2454 55.5209 26.2219 55.5265 26.1907 55.5265C26.1594 55.5265 26.1126 55.4928 26.05 55.4256C26.0032 55.3471 25.9172 55.3079 25.7922 55.3079C25.6828 55.3079 25.5578 55.1957 25.4172 54.9715C25.2453 54.6912 25.0969 54.2428 24.9718 53.6261C24.9718 53.5813 24.964 53.542 24.9484 53.5084C24.9172 53.3066 24.9015 53.0151 24.9015 52.6339C24.9015 51.4455 25.0109 50.0496 25.2297 48.4464L25.089 48.6482C24.9484 48.8051 24.8547 48.9285 24.8078 49.0182C24.7765 49.1079 24.7609 49.2368 24.7609 49.405C24.7609 49.5731 24.7296 49.6965 24.6671 49.7749C24.6046 49.8422 24.4874 49.8927 24.3155 49.9263C24.1593 49.9487 24.0812 49.988 24.0812 50.044L24.1046 50.0777L23.9405 50.2963C23.8311 50.4532 23.7765 50.5541 23.7765 50.599C23.7765 50.6438 23.7452 50.6719 23.6827 50.6831C23.6202 50.6943 23.5889 50.7335 23.5889 50.8008C23.6046 50.8232 23.6124 50.8513 23.6124 50.8849C23.6124 50.9073 23.5968 50.9297 23.5655 50.9522C23.4874 51.0643 23.4092 51.2044 23.3311 51.3726C23.2217 51.608 23.1436 51.7426 23.0967 51.7762C23.0498 51.8098 22.9639 51.9556 22.8389 52.2135C22.5889 52.6507 22.2842 53.1104 21.9248 53.5925C21.5341 54.0522 21.3388 54.3044 21.3388 54.3493C21.3388 54.3829 21.3232 54.4221 21.2919 54.467C21.2763 54.5006 21.1591 54.5959 20.9403 54.7529C20.7997 54.8538 20.7294 54.9211 20.7294 54.9547C20.7294 54.9883 20.6747 55.0051 20.5653 55.0051C20.2684 55.0051 20.0418 54.9715 19.8856 54.9042C19.7918 54.8482 19.7137 54.8202 19.6512 54.8202L19.5808 54.837C19.5027 54.837 19.4402 54.7921 19.3933 54.7024C19.2839 54.5903 19.1746 54.5343 19.0652 54.5343C18.9714 54.5343 18.8152 54.3156 18.5964 53.8784C18.5339 53.7438 18.5026 53.5252 18.5026 53.2225C18.5026 52.774 18.5573 52.2695 18.6667 51.7089C18.823 51.0138 19.0496 50.3579 19.3465 49.7413C19.659 49.1135 19.9481 48.7042 20.2137 48.5136C20.2918 48.4688 20.3309 48.4239 20.3309 48.3791L20.3075 48.3118C20.3075 48.2782 20.3543 48.2614 20.4481 48.2614C20.5418 48.2614 20.5887 48.2446 20.5887 48.2109C20.5887 48.1773 20.8153 48.082 21.2685 47.925C21.4872 47.8578 21.8076 47.8241 22.2295 47.8241C22.4795 47.8353 22.6826 47.8578 22.8389 47.8914C22.9951 47.9138 23.2061 47.9755 23.4717 48.0764C23.503 48.0988 23.6514 48.1493 23.9171 48.2277C23.9952 48.2614 24.0499 48.2838 24.0812 48.295H24.128L24.1749 48.2782L24.1515 48.2446C24.1515 48.1773 24.5031 47.7681 25.2062 47.0169C25.5188 46.6918 25.7141 46.5292 25.7922 46.5292C25.8235 46.5292 25.8391 46.5516 25.8391 46.5965C25.8391 46.6413 25.9016 46.6637 26.0266 46.6637C26.1516 46.6637 26.2297 46.6469 26.261 46.6133C26.2923 46.5796 26.3235 46.5628 26.3548 46.5628C26.4485 46.5628 26.4954 46.5852 26.4954 46.6301V46.731C26.4954 46.7422 26.4954 46.7478 26.4954 46.7478C26.511 46.7478 26.5345 46.7478 26.5657 46.7478L26.8939 46.731C27.0189 46.731 27.0814 46.7702 27.0814 46.8487C27.0814 46.8711 27.0736 46.9048 27.0579 46.9496C27.0423 46.9833 27.0345 47.0337 27.0345 47.101C27.0345 47.157 27.0423 47.2131 27.0579 47.2692C27.0892 47.3252 27.1048 47.4149 27.1048 47.5382C27.1048 47.74 27.0814 48.054 27.0345 48.48C26.9564 49.1751 26.9095 49.5731 26.8939 49.674C26.8939 49.7749 26.8939 50.5317 26.8939 51.9444V52.8693C26.8939 53.1272 26.8939 53.3851 26.8939 53.6429C26.8939 53.9008 26.9251 54.1306 26.9876 54.3324C27.0501 54.5343 27.1517 54.7809 27.2923 55.0724C27.3705 55.2406 27.4095 55.3639 27.4095 55.4424C27.4095 55.5321 27.3314 55.5769 27.1751 55.5769C27.0189 55.5769 26.9173 55.5937 26.8704 55.6274ZM20.6356 53.088C20.6512 53.088 20.6747 53.0711 20.7059 53.0375C20.7997 52.9366 21.2294 52.3312 21.9951 51.2212L23.167 49.5227C23.1045 49.3994 23.042 49.2872 22.9795 49.1863C22.917 49.0854 22.8545 48.9957 22.792 48.9173C22.7451 48.8276 22.7061 48.7715 22.6748 48.7491C22.6436 48.7267 22.6123 48.7154 22.5811 48.7154C22.5654 48.7154 22.5342 48.7211 22.4873 48.7323C22.456 48.7435 22.2607 49.0013 21.9013 49.5059C21.245 50.4701 20.8309 51.5688 20.659 52.8021C20.6278 52.9142 20.6122 52.9927 20.6122 53.0375C20.6122 53.0711 20.62 53.088 20.6356 53.088ZM21.3153 52.8189V52.8021C21.331 52.8021 21.4013 52.7516 21.5263 52.6507C21.7294 52.505 21.8466 52.3704 21.8779 52.2471C21.956 52.1013 22.0185 52.0117 22.0654 51.978C22.1123 51.9444 22.1513 51.8715 22.1826 51.7594C22.2295 51.6473 22.2763 51.5912 22.3232 51.5912C22.3857 51.5912 22.417 51.5464 22.417 51.4567C22.417 51.367 22.4795 51.2549 22.6045 51.1203C22.7295 50.9746 22.792 50.8793 22.792 50.8344C22.792 50.7896 22.8389 50.7167 22.9326 50.6158C23.042 50.5037 23.1123 50.414 23.1436 50.3467C23.1905 50.2683 23.2374 50.2122 23.2842 50.1786C23.378 50.0889 23.4327 50.0104 23.4483 49.9431C23.4483 49.8871 23.4171 49.8478 23.3545 49.8254H23.3311C23.253 49.8254 23.042 50.0777 22.6983 50.5822C22.5107 50.84 22.3389 51.0979 22.1826 51.3558C21.7763 51.9612 21.5732 52.2863 21.5732 52.3312L21.6904 52.3144C21.6904 52.3256 21.6669 52.348 21.62 52.3816C21.5732 52.4041 21.5419 52.4265 21.5263 52.4489V52.4657C21.5575 52.4657 21.5732 52.4713 21.5732 52.4825L21.5497 52.4994C21.5185 52.5106 21.4872 52.5386 21.456 52.5834C21.4247 52.6171 21.3935 52.6619 21.3622 52.718C21.331 52.7628 21.3153 52.7965 21.3153 52.8189ZM24.3624 48.5809C24.3781 48.5809 24.4171 48.5192 24.4796 48.3959C24.5578 48.2726 24.6203 48.2109 24.6671 48.2109C24.7296 48.2109 24.7609 48.1829 24.7609 48.1268C24.7609 48.0708 24.7843 48.0428 24.8312 48.0428C24.8781 48.0428 24.9093 48.0147 24.925 47.9587C24.9562 47.9026 25.0812 47.7513 25.3 47.5046C25.425 47.314 25.4875 47.1626 25.4875 47.0505C25.4875 47.0169 25.4797 47.0001 25.4641 47.0001C25.4172 47.0001 25.3781 47.0393 25.3469 47.1178C25.2687 47.2299 25.1906 47.314 25.1125 47.3701C25.0031 47.4822 24.8859 47.6167 24.7609 47.7737C24.4484 48.1549 24.2921 48.3903 24.2921 48.48V48.4968C24.3234 48.5529 24.3468 48.5809 24.3624 48.5809ZM25.3469 52.6171C25.3625 52.6171 25.4094 52.0397 25.4875 50.8849C25.55 49.9992 25.6125 49.3433 25.675 48.9173C25.7844 48.4464 25.8391 48.1268 25.8391 47.9587L25.8157 47.9418C25.7688 47.9643 25.6516 48.6482 25.4641 49.9936C25.4172 50.2739 25.3938 50.5934 25.3938 50.9522C25.3781 51.1652 25.3703 51.4174 25.3703 51.7089L25.3469 52.6171Z" fill="url(#paint13_linear_209_2528)"/>
<path d="M30.7981 55.7787C30.6887 55.7787 30.5872 55.7787 30.4934 55.7787C30.4153 55.7675 30.3684 55.7563 30.3528 55.7451C30.3372 55.7227 30.2981 55.7059 30.2356 55.6947C30.1887 55.6722 30.1262 55.661 30.0481 55.661C29.9856 55.6498 29.9231 55.633 29.8606 55.6106C29.7981 55.5769 29.7512 55.5433 29.7199 55.5097C29.6887 55.476 29.6652 55.4592 29.6496 55.4592C29.634 55.448 29.6027 55.4368 29.5558 55.4256H29.5324C29.4855 55.4256 29.3605 55.3639 29.1574 55.2406C29.0793 55.1733 28.9855 55.1173 28.8761 55.0724C28.7824 55.0164 28.7277 54.9827 28.712 54.9715C28.6808 54.9491 28.6652 54.9211 28.6652 54.8874C28.6652 54.865 28.6808 54.8538 28.712 54.8538C28.7433 54.8538 28.7589 54.6015 28.7589 54.097C28.7589 53.8728 28.7745 53.6429 28.8058 53.4075C28.8214 53.172 28.8527 52.9758 28.8996 52.8189C29.0402 52.2135 29.1183 51.737 29.1339 51.3894C29.1652 50.8849 29.2199 50.3243 29.298 49.7077C29.3918 49.0798 29.4777 48.5248 29.5558 48.0428C29.6496 47.5607 29.7277 47.2804 29.7902 47.2019L29.8137 47.1346C29.8137 47.1122 29.7981 47.101 29.7668 47.101C29.7355 47.101 29.7199 47.0842 29.7199 47.0505C29.7199 46.9833 29.759 46.916 29.8371 46.8487C29.9309 46.7702 30.0403 46.7142 30.1653 46.6805C30.3059 46.6357 30.4231 46.6133 30.5169 46.6133C30.5637 46.6133 30.6028 46.6189 30.634 46.6301C30.6653 46.6413 30.8372 46.6637 31.1497 46.6974C31.3997 46.7086 31.5872 46.7366 31.7123 46.7815C31.8373 46.8263 31.931 46.8936 31.9935 46.9833C32.056 47.0617 32.0873 47.1234 32.0873 47.1683C32.0873 47.2243 32.0638 47.2916 32.017 47.3701C31.9857 47.4485 31.9232 47.7176 31.8294 48.1773C31.7513 48.637 31.7123 48.8948 31.7123 48.9509V49.0013C31.7279 49.0013 31.7826 48.9397 31.8763 48.8164C32.6264 47.8858 33.2749 47.4205 33.8218 47.4205C33.9312 47.4205 34.0327 47.4373 34.1265 47.471C34.2359 47.5046 34.3374 47.527 34.4312 47.5382L34.6421 47.5887C35.1422 47.7232 35.4547 47.8297 35.5797 47.9082C35.7203 47.9755 35.8532 48.082 35.9782 48.2277C36.1969 48.4408 36.4704 48.6762 36.7985 48.9341C37.0798 49.1359 37.2673 49.2592 37.3611 49.3041H37.5252C37.6345 49.2816 37.7127 49.2536 37.7595 49.22C37.7595 49.2088 37.783 49.1919 37.8299 49.1695C37.8924 49.1471 37.9627 49.1303 38.0408 49.1191C38.2127 49.0854 38.369 48.9845 38.5096 48.8164C38.5877 48.6818 38.6581 48.6145 38.7206 48.6145C38.7518 48.6145 38.7831 48.6258 38.8143 48.6482C38.8612 48.6706 38.9003 48.693 38.9315 48.7154C38.9784 48.7267 39.0096 48.7323 39.0253 48.7323C39.0565 48.7323 39.0956 48.7547 39.1425 48.7995C39.205 48.8332 39.2597 48.8724 39.3065 48.9173C39.369 48.9621 39.4081 48.9957 39.4237 49.0182C39.4394 49.0294 39.455 49.063 39.4706 49.1191C39.4706 49.1303 39.4706 49.1471 39.4706 49.1695C39.4862 49.1807 39.5253 49.1919 39.5878 49.2032C39.6503 49.2144 39.6816 49.2536 39.6816 49.3209C39.6816 49.5003 39.5097 49.6909 39.1659 49.8927C38.9784 49.9936 38.7284 50.044 38.4158 50.044C38.1658 50.044 37.8689 50.0104 37.5252 49.9431C37.2908 49.8871 37.1111 49.859 36.9861 49.859H36.9626C36.8689 49.859 36.5876 49.7469 36.1188 49.5227C35.8688 49.4218 35.6344 49.3153 35.4156 49.2032C34.6656 48.822 34.2906 48.5697 34.2906 48.4464V48.4296C34.3531 48.4408 34.3843 48.4464 34.3843 48.4464L34.6656 48.6482C34.6968 48.693 34.7125 48.7211 34.7125 48.7323C34.7125 48.7435 34.7203 48.7547 34.7359 48.7659C34.7672 48.7771 34.8531 48.8164 34.9937 48.8836H35.0172C35.0172 48.8724 34.9703 48.8332 34.8765 48.7659C34.814 48.7211 34.7515 48.6594 34.689 48.5809L34.3609 48.2614C34.3452 48.2502 34.3218 48.2446 34.2906 48.2446H34.2437C34.2281 48.2446 34.1968 48.2614 34.1499 48.295C34.0249 48.3511 33.9624 48.3903 33.9624 48.4127C33.9624 48.4352 33.939 48.48 33.8921 48.5473C33.5796 48.8836 33.4233 49.063 33.4233 49.0854C33.4233 49.0966 33.4077 49.1247 33.3764 49.1695C33.3452 49.2032 33.3139 49.248 33.2827 49.3041C33.267 49.3041 33.2592 49.3097 33.2592 49.3209C33.1811 49.4106 33.0639 49.5787 32.9076 49.8254C32.517 50.4757 32.2826 50.9073 32.2045 51.1203L32.1342 51.2717C32.1029 51.2941 32.056 51.3894 31.9935 51.5576C31.9466 51.6473 31.8919 51.7762 31.8294 51.9444C31.7669 52.1126 31.681 52.3368 31.5716 52.6171C31.2435 53.5028 31.0794 54.1362 31.0794 54.5174L31.1028 54.8202C31.1028 55.1677 31.1263 55.4256 31.1731 55.5937V55.7115C31.1575 55.7339 31.0325 55.7563 30.7981 55.7787ZM29.5793 53.1552C29.6105 53.1552 29.6262 53.116 29.6262 53.0375C29.6262 52.9815 29.6105 52.9534 29.5793 52.9534L29.5324 52.9871C29.5012 53.0095 29.4933 53.0375 29.509 53.0711C29.509 53.0824 29.5168 53.0992 29.5324 53.1216C29.548 53.144 29.5637 53.1552 29.5793 53.1552ZM29.6965 51.5576C29.7434 51.5352 29.7668 51.5127 29.7668 51.4903C29.7668 51.4791 29.7434 51.4735 29.6965 51.4735C29.6496 51.4735 29.6262 51.4903 29.6262 51.5239C29.6262 51.5464 29.634 51.5576 29.6496 51.5576H29.6965ZM31.7591 51.0867C31.7748 51.0867 31.7982 51.0755 31.8294 51.0531C31.8607 51.0306 31.9154 50.9409 31.9935 50.784C32.0091 50.7167 32.0404 50.6438 32.0873 50.5654L32.3685 50.0945C32.5717 49.7021 32.8295 49.2928 33.142 48.8668C33.1733 48.8444 33.2124 48.8051 33.2592 48.7491C33.3061 48.693 33.353 48.6426 33.3999 48.5977C33.5249 48.4856 33.5874 48.4071 33.5874 48.3623C33.5874 48.3174 33.6421 48.2614 33.7515 48.1941C33.8765 48.1156 33.939 48.0484 33.939 47.9923H33.9155C33.7905 47.9923 33.4858 48.295 33.0014 48.9004C32.642 49.3489 32.2357 50.0608 31.7826 51.0362L31.7591 51.0867ZM33.0014 48.0596L33.1655 47.9418C33.2905 47.8746 33.353 47.8241 33.353 47.7905V47.7737C33.2905 47.7737 33.228 47.8073 33.1655 47.8746C33.0405 47.9418 32.978 47.9979 32.978 48.0428C32.978 48.054 32.9858 48.0596 33.0014 48.0596ZM32.2045 48.9004C32.2201 48.9004 32.2514 48.8836 32.2982 48.85C32.3451 48.8051 32.3998 48.7435 32.4623 48.665C32.5404 48.5753 32.6108 48.4912 32.6733 48.4127C32.7514 48.323 32.8061 48.2502 32.8373 48.1941C32.8686 48.1381 32.8842 48.1044 32.8842 48.0932C32.853 48.0932 32.7279 48.2165 32.5092 48.4632C32.306 48.7098 32.2045 48.85 32.2045 48.8836V48.9004ZM31.5716 50.4813C31.6185 50.4813 31.7044 50.3916 31.8294 50.2122C31.9857 49.9543 32.0717 49.7805 32.0873 49.6909C32.1185 49.6012 32.1498 49.5451 32.181 49.5227C32.2279 49.489 32.3451 49.3377 32.5326 49.0686C32.6576 48.878 32.7905 48.7042 32.9311 48.5473C33.1967 48.3006 33.3686 48.1156 33.4467 47.9923L33.5171 47.8914C33.3921 47.9475 33.2045 48.1044 32.9545 48.3623C32.7201 48.6201 32.5092 48.8892 32.3217 49.1695C32.0404 49.5507 31.8998 49.7637 31.8998 49.8086C31.8998 49.8422 31.8451 49.9487 31.7357 50.1281C31.6263 50.2626 31.5716 50.3804 31.5716 50.4813ZM31.5482 51.6249C31.5951 51.6249 31.6263 51.5912 31.6419 51.5239C31.6732 51.4567 31.7122 51.339 31.7591 51.1708L31.6419 51.339C31.5794 51.4399 31.5404 51.5183 31.5247 51.5744C31.5247 51.608 31.5325 51.6249 31.5482 51.6249Z" fill="url(#paint14_linear_209_2528)"/>
<path d="M39.3867 39.1632C39.3711 39.1632 39.3633 39.1576 39.3633 39.1464C39.3633 39.1352 39.3867 39.1239 39.4336 39.1127C39.4649 39.0903 39.4961 39.0791 39.5274 39.0791C39.5586 39.0791 39.5743 39.0847 39.5743 39.0959L39.5274 39.1296C39.4961 39.152 39.4492 39.1632 39.3867 39.1632ZM39.082 40.6263C39.0195 40.6263 38.9883 40.6207 38.9883 40.6095L39.0352 40.5758C39.0508 40.5646 39.0898 40.559 39.1523 40.559C39.1836 40.559 39.1992 40.5646 39.1992 40.5758C39.1992 40.6095 39.1602 40.6263 39.082 40.6263ZM41.8947 58.9572H41.8479C41.7541 58.9572 41.6291 58.946 41.4728 58.9236H41.4259C41.2228 58.8787 41.1212 58.8395 41.1212 58.8059C41.1212 58.7722 41.1056 58.7218 41.0744 58.6545C40.9337 58.4527 40.84 58.3013 40.7931 58.2004C40.7618 58.0995 40.715 57.78 40.6525 57.2418C40.6212 56.6476 40.5821 56.2384 40.5353 56.0142C40.4571 55.106 40.4181 53.9456 40.4181 52.533C40.4181 51.1203 40.4571 49.7749 40.5353 48.4968C40.5821 48.1268 40.6056 47.7288 40.6056 47.3028C40.6368 46.7758 40.6915 46.3106 40.7696 45.9069L40.7931 45.8565C40.84 45.565 40.8868 45.2679 40.9337 44.9652C40.9962 44.6513 41.0665 44.1972 41.1447 43.603L41.4728 41.8371C41.7385 40.6936 41.8713 40.0377 41.8713 39.8695C41.8713 39.8471 41.8479 39.8359 41.801 39.8359C41.7385 39.8359 41.5822 39.8695 41.3322 39.9368C41.2697 39.9704 41.1447 39.9872 40.9572 39.9872C40.4728 40.1554 40.1368 40.2563 39.9493 40.29C39.7461 40.3124 39.5352 40.3572 39.3164 40.4245C39.082 40.4918 38.918 40.5534 38.8242 40.6095C38.6992 40.6992 38.1054 40.8898 37.0428 41.1813C36.1365 41.4279 35.574 41.5905 35.3552 41.669C35.324 41.6914 35.1364 41.7587 34.7927 41.8708C34.5114 41.9381 34.1207 42.0614 33.6207 42.2408C33.3082 42.3529 33.0894 42.4258 32.9644 42.4594C32.8238 42.4818 32.6675 42.493 32.4956 42.493C32.2144 42.4594 32.0737 42.2015 32.0737 41.7194L32.0503 41.6185V41.5344C32.0503 41.5008 32.0347 41.4784 32.0034 41.4672C31.9565 41.4447 31.9331 41.4167 31.9331 41.3831C31.9331 41.3158 31.98 41.2373 32.0737 41.1476C32.1987 40.957 32.3316 40.8617 32.4722 40.8617C32.5347 40.8617 32.5972 40.8561 32.6597 40.8449C32.7066 40.8225 32.7378 40.8001 32.7535 40.7777C32.8628 40.6992 33.9645 40.3684 36.0584 39.7854C37.8085 39.3145 39.4805 38.9165 41.0744 38.5914C41.4025 38.5241 41.676 38.4625 41.8947 38.4064C41.9572 38.3952 42.0041 38.3896 42.0354 38.3896C42.0666 38.3784 42.0979 38.3728 42.1291 38.3728C42.1604 38.3616 42.1994 38.3447 42.2463 38.3223C42.3088 38.2999 42.3791 38.1822 42.4573 37.9692C42.5041 37.8458 42.637 37.4142 42.8557 36.6742C42.9026 36.5509 42.9417 36.422 42.9729 36.2874L43.5823 34.2693C43.5823 34.2133 43.5745 34.1684 43.5589 34.1348C43.5589 34.0451 43.5823 33.9778 43.6292 33.933C43.6761 33.8769 43.6995 33.8377 43.6995 33.8153L43.6761 33.748C43.6605 33.7144 43.6683 33.6863 43.6995 33.6639C43.7464 33.6303 43.7699 33.6022 43.7699 33.5798L43.7464 33.5462C43.7464 33.5238 43.762 33.5013 43.7933 33.4789C43.8246 33.4565 43.9886 33.4453 44.2855 33.4453L44.5199 33.4285C44.8481 33.4285 45.3012 33.5574 45.8794 33.8153C46.0981 33.9274 46.2075 34.1236 46.2075 34.4039C46.2075 34.5272 46.1763 34.6561 46.1138 34.7907L45.9731 35.312C45.9106 35.5587 45.8559 35.7493 45.8091 35.8838C45.6216 36.2874 45.4653 36.7359 45.3403 37.2292C45.2621 37.4758 45.2231 37.6384 45.2231 37.7169C45.2231 37.773 45.2309 37.801 45.2465 37.801C45.2778 37.801 45.3012 37.801 45.3168 37.801L45.8794 37.7505C45.9106 37.7505 45.9263 37.7561 45.9263 37.7673H45.9497L45.8559 37.801C45.7778 37.8234 45.5512 37.8626 45.1762 37.9187C45.145 38.0084 45.1059 38.1037 45.059 38.2046C45.0278 38.3055 45.0121 38.4008 45.0121 38.4905C45.1059 38.4905 45.2543 38.4793 45.4575 38.4569C46.2232 38.3335 47.0045 38.227 47.8014 38.1373L49.3249 37.9523C49.6531 37.9299 50.075 37.8851 50.5907 37.8178C51.1063 37.7393 51.4501 37.7001 51.622 37.7001C51.7157 37.7001 51.7626 37.7113 51.7626 37.7337C51.7626 37.7449 51.7157 37.7617 51.622 37.7842C51.5282 37.7954 51.4032 37.8066 51.2469 37.8178C50.8407 37.8514 49.5046 38.0084 47.2389 38.2887L46.395 38.4064C45.8169 38.4849 45.434 38.5466 45.2465 38.5914C45.059 38.6362 44.9496 38.6923 44.9184 38.7596C44.9184 38.7932 44.9262 38.8268 44.9418 38.8605C44.9574 38.8829 44.9731 38.8941 44.9887 38.8941C45.0356 38.8941 45.059 38.8717 45.059 38.8268C45.059 38.782 45.1918 38.7596 45.4575 38.7596C45.5356 38.7596 45.5903 38.7652 45.6216 38.7764C45.6528 38.7876 45.6919 38.7932 45.7387 38.7932C45.7856 38.7932 45.8481 38.782 45.9263 38.7596C46.0044 38.7371 46.3247 38.7035 46.8873 38.6587C47.0279 38.625 47.106 38.597 47.1217 38.5746C47.1373 38.5522 47.2232 38.5409 47.3795 38.5409L47.5436 38.5578C47.6217 38.5578 47.6608 38.5466 47.6608 38.5241C47.6608 38.4905 47.6764 38.4737 47.7076 38.4737H47.7545C47.7701 38.4737 47.7858 38.4737 47.8014 38.4737C47.817 38.4737 47.8248 38.4681 47.8248 38.4569C47.8405 38.4456 47.8795 38.44 47.942 38.44C48.0202 38.4288 48.0827 38.4232 48.1295 38.4232C48.192 38.4232 48.2467 38.4288 48.2936 38.44C48.5749 38.44 48.7155 38.4288 48.7155 38.4064C48.7155 38.3728 48.7936 38.356 48.9499 38.356C49.1218 38.356 49.2312 38.3447 49.2781 38.3223C49.3406 38.2999 49.3796 38.2887 49.3953 38.2887C49.4109 38.2887 49.4187 38.2943 49.4187 38.3055L49.3718 38.3391C49.3249 38.3728 49.2702 38.4008 49.2077 38.4232C49.1609 38.4456 49.1218 38.4569 49.0905 38.4569L49.0202 38.4737C49.0202 38.4849 49.1296 38.4905 49.3484 38.4905C49.5828 38.4905 49.7 38.4625 49.7 38.4064C49.7 38.384 49.6765 38.3616 49.6296 38.3391C49.5828 38.3167 49.5593 38.2999 49.5593 38.2887C49.5593 38.2775 49.575 38.2719 49.6062 38.2719C49.6531 38.2607 49.7 38.255 49.7468 38.255C49.8093 38.2438 49.864 38.2326 49.9109 38.2214L50.0984 38.2046C50.1609 38.2046 50.1922 38.2326 50.1922 38.2887C50.1922 38.3447 50.2 38.3728 50.2156 38.3728C50.2469 38.3728 50.2781 38.3728 50.3094 38.3728L50.6375 38.3391H50.8954L50.9188 38.3223C50.9188 38.3111 50.9032 38.2999 50.8719 38.2887C50.8563 38.2775 50.7547 38.2719 50.5672 38.2719C50.3953 38.2719 50.3094 38.2494 50.3094 38.2046C50.3094 38.1822 50.3406 38.1654 50.4031 38.1541L50.6844 38.171C50.9344 38.171 51.0672 38.1485 51.0829 38.1037C51.1141 38.0588 51.2548 38.0364 51.5048 38.0364L51.8329 38.0532C52.2861 38.0532 52.5283 38.042 52.5595 38.0196V38.0028C52.5595 37.9804 52.5048 37.9636 52.3955 37.9523C52.3798 37.9523 52.372 37.9467 52.372 37.9355L52.7236 37.9019L53.0986 37.8851C53.208 37.8851 53.2783 37.8963 53.3096 37.9187C53.3408 37.9299 53.4346 37.9355 53.5909 37.9355C53.7627 37.9355 53.8565 37.9187 53.8721 37.8851C53.8878 37.8514 53.9112 37.829 53.9424 37.8178C53.9737 37.8066 54.0206 37.801 54.0831 37.801C54.0987 37.801 54.1065 37.8122 54.1065 37.8346V37.8514C54.1065 37.8739 54.13 37.8851 54.1768 37.8851C54.2237 37.8851 54.294 37.8739 54.3878 37.8514C54.4972 37.8178 54.5753 37.7954 54.6222 37.7842C54.6691 37.773 54.7003 37.7673 54.7159 37.7673C54.7472 37.7673 54.7706 37.773 54.7863 37.7842C54.8019 37.7954 54.8253 37.8178 54.8566 37.8514C54.8878 37.8739 54.9191 37.8851 54.9503 37.8851C54.9816 37.8851 55.0206 37.8683 55.0675 37.8346C55.13 37.7898 55.1769 37.7673 55.2082 37.7673C55.2394 37.7673 55.2629 37.773 55.2785 37.7842C55.3097 37.7954 55.3644 37.801 55.4426 37.801C55.5051 37.801 55.591 37.7954 55.7004 37.7842C55.8098 37.773 56.0051 37.7673 56.2864 37.7673C56.427 37.7561 56.5754 37.7505 56.7317 37.7505L57.2005 37.7673C57.513 37.7673 57.7708 37.7673 57.974 37.7673C58.1771 37.7561 58.2787 37.7449 58.2787 37.7337C58.2474 37.7113 58.1459 37.6889 57.974 37.6664C57.8177 37.644 57.6224 37.6216 57.388 37.5992C57.1536 37.5767 56.9427 37.5655 56.7551 37.5655C56.5833 37.5543 56.4426 37.5431 56.3332 37.5319C56.2395 37.5207 56.1926 37.5095 56.1926 37.4983C56.1926 37.4871 56.2785 37.4815 56.4504 37.4815L56.7317 37.4646C56.8411 37.4646 56.9817 37.4702 57.1536 37.4815C57.3411 37.4927 57.5443 37.5095 57.763 37.5319C57.9818 37.5431 58.1537 37.5599 58.2787 37.5824C58.4037 37.6048 58.4975 37.616 58.56 37.616C58.6068 37.616 58.6303 37.6104 58.6303 37.5992C58.6303 37.5655 58.56 37.5151 58.4193 37.4478C58.013 37.2572 57.1614 37.1619 55.8645 37.1619L54.8097 37.1451C54.8097 37.1339 54.3878 37.1283 53.544 37.1283C53.544 37.1171 53.7784 37.0947 54.2472 37.061C54.7159 37.0274 54.9503 37.005 54.9503 36.9937L54.4581 36.9601L54.8331 36.9097C54.9113 36.9097 54.966 36.9265 54.9972 36.9601C55.0441 36.9937 55.0753 37.0106 55.091 37.0106H55.1144V36.9433C55.1144 36.9209 55.1222 36.9041 55.1378 36.8928C55.1691 36.8704 55.3175 36.8592 55.5832 36.8592C55.7238 36.8704 55.9113 36.876 56.1457 36.876C56.8333 36.8984 57.1927 36.9265 57.2239 36.9601C57.2708 36.9937 57.3021 37.0106 57.3177 37.0106C57.3333 37.0106 57.3411 37.005 57.3411 36.9937C57.3568 36.9713 57.3958 36.9601 57.4583 36.9601C57.6458 36.9601 57.9584 37.033 58.3959 37.1787C58.849 37.3245 59.0991 37.4478 59.1459 37.5487C59.1459 37.6048 59.1303 37.644 59.0991 37.6664C59.0678 37.6777 59.0522 37.6945 59.0522 37.7169C59.0522 37.773 59.0991 37.8683 59.1928 38.0028C59.3022 38.1261 59.3647 38.2607 59.3803 38.4064C59.3803 38.5522 59.3335 38.6587 59.2397 38.7259C59.1616 38.7932 59.0131 38.8268 58.7944 38.8268C58.6381 38.8268 58.4428 38.8605 58.2084 38.9277C58.0834 38.9614 57.9818 38.9782 57.9037 38.9782C57.763 38.9782 57.6927 38.9165 57.6927 38.7932V38.7764C57.6927 38.7203 57.6771 38.6867 57.6458 38.6755C57.599 38.6755 57.5521 38.6923 57.5052 38.7259C57.4739 38.7596 57.3646 38.7764 57.1771 38.7764C57.0989 38.7764 57.013 38.7708 56.9192 38.7596C56.8411 38.7371 56.802 38.7035 56.802 38.6587C56.802 38.6138 56.888 38.5802 57.0599 38.5578C57.3099 38.5241 57.4583 38.5017 57.5052 38.4905C57.5677 38.4681 57.6693 38.3952 57.8099 38.2719L57.5755 38.3055C57.4974 38.3055 57.4427 38.2999 57.4114 38.2887C57.3802 38.2663 57.0989 38.255 56.5676 38.255C56.0363 38.255 55.7629 38.2494 55.7473 38.2382C55.7316 38.227 55.5988 38.2214 55.3488 38.2214C55.1144 38.2214 54.8175 38.2326 54.4581 38.255C54.0362 38.2887 53.6456 38.3055 53.2862 38.3055C52.208 38.3503 51.372 38.412 50.7782 38.4905L49.6765 38.5914C49.4734 38.6026 49.1765 38.6306 48.7858 38.6755C47.7233 38.7988 47.1529 38.8773 47.0748 38.9109C46.9966 38.9334 46.6607 38.9726 46.0669 39.0286C45.3481 39.1296 44.934 39.2136 44.8246 39.2809C44.7309 39.337 44.559 39.8527 44.309 40.8281L44.0746 41.8035C44.0121 42.0726 43.9339 42.4986 43.8402 43.0816C43.762 43.3283 43.7074 43.5413 43.6761 43.7207C43.6448 43.9001 43.6136 44.0739 43.5823 44.242C43.5511 44.399 43.5355 44.5111 43.5355 44.5784C43.5355 44.6344 43.5198 44.6849 43.4886 44.7297L43.4183 45.0661C43.4183 45.2455 43.387 45.4361 43.3245 45.6379C43.2933 45.7836 43.2854 45.8901 43.3011 45.9574V46.0079C43.3011 46.0975 43.2776 46.1928 43.2308 46.2937C43.1839 46.4843 43.1214 47.1402 43.0432 48.2614C42.9964 48.9453 42.9729 49.5619 42.9729 50.1113C42.9573 50.2795 42.9339 50.3748 42.9026 50.3972C42.887 50.4196 42.8714 50.5598 42.8557 50.8176C42.8089 51.6249 42.7854 52.2751 42.7854 52.7684L42.762 53.2561L42.8089 54.4838C42.8401 55.022 42.8557 55.5433 42.8557 56.0478L42.8792 56.1992C42.8792 56.7598 42.9729 57.4212 43.1604 58.1836C43.1761 58.3182 43.1917 58.4191 43.2073 58.4863C43.2229 58.5424 43.2308 58.6041 43.2308 58.6713C43.2151 58.6938 43.1761 58.705 43.1136 58.705C43.0667 58.705 42.9651 58.7162 42.8089 58.7386C42.4182 58.8171 42.1526 58.8843 42.0119 58.9404L41.8947 58.9572ZM34.863 40.7272C35.0817 40.6936 35.4802 40.6039 36.0584 40.4581L37.0428 40.2059C37.5585 40.0825 37.8554 40.0097 37.9335 39.9872C37.996 39.9648 38.0663 39.9424 38.1445 39.92C38.3164 39.8415 38.4961 39.791 38.6836 39.7686C38.8711 39.735 39.3946 39.6285 40.254 39.4491L41.4963 39.1632C41.5744 39.1296 41.6916 39.1015 41.8479 39.0791C42.0979 39.0343 42.2229 38.9333 42.2229 38.7764V38.7428L42.3166 38.44C42.301 38.4288 42.2698 38.4232 42.2229 38.4232L41.965 38.4737C41.7463 38.5185 41.59 38.5578 41.4963 38.5914C41.4025 38.625 41.2931 38.6475 41.1681 38.6587C41.0431 38.6699 40.8009 38.7147 40.4415 38.7932C39.3789 39.0286 38.6523 39.2024 38.2617 39.3145C38.0429 39.3818 37.9335 39.4211 37.9335 39.4323C37.9491 39.4323 37.957 39.4379 37.957 39.4491L37.9101 39.5332C37.8944 39.5332 37.8788 39.522 37.8632 39.4995C37.8319 39.4659 37.7929 39.4491 37.746 39.4491C37.6679 39.4491 37.5507 39.4715 37.3944 39.5164C37.1756 39.5948 37.0663 39.6509 37.0663 39.6845C37.0663 39.7069 37.0506 39.7294 37.0194 39.7518C36.9881 39.7742 36.9569 39.7854 36.9256 39.7854C36.8944 39.7854 36.8787 39.7798 36.8787 39.7686L36.9022 39.7013C36.9022 39.6789 36.8866 39.6677 36.8553 39.6677L36.785 39.6845C36.6912 39.7069 36.6444 39.7462 36.6444 39.8022C36.6444 39.8583 36.5193 39.9256 36.2693 40.0041C36.0193 40.0713 35.8709 40.1274 35.824 40.1722C35.7771 40.2059 35.7459 40.2227 35.7302 40.2227C35.7146 40.2227 35.7068 40.2171 35.7068 40.2059C35.7068 40.1834 35.6912 40.1722 35.6599 40.1722C35.5505 40.1722 35.3943 40.2339 35.1911 40.3572C35.0661 40.4469 34.9411 40.5142 34.8161 40.559C34.6755 40.6039 34.6052 40.6375 34.6052 40.6599C34.6052 40.6711 34.6208 40.688 34.652 40.7104C34.6677 40.7216 34.6989 40.7272 34.7458 40.7272H34.863ZM36.2693 40.5758C36.5662 40.5646 36.8084 40.5478 36.9959 40.5254L37.1131 40.5086C37.3788 40.4749 37.6366 40.4133 37.8866 40.3236C38.0116 40.2787 38.0741 40.2451 38.0741 40.2227C38.0741 40.2003 38.1992 40.1778 38.4492 40.1554C38.6679 40.1554 38.8008 40.1386 38.8476 40.105C38.8945 40.0601 38.9961 40.0377 39.1523 40.0377C39.293 40.0377 39.3867 40.0209 39.4336 39.9872C39.4649 39.9424 39.5274 39.9032 39.6211 39.8695C39.8086 39.8247 39.9337 39.8022 39.9962 39.8022C40.043 39.8022 40.0899 39.8079 40.1368 39.8191C40.168 39.8303 40.2227 39.8359 40.3009 39.8359C40.3634 39.8359 40.4181 39.8303 40.4649 39.8191C40.5274 39.7966 40.5587 39.7742 40.5587 39.7518C40.5587 39.7294 40.5821 39.7069 40.629 39.6845C40.6759 39.6509 40.7462 39.6229 40.84 39.6004C40.9493 39.5668 41.0275 39.55 41.0744 39.55C41.1212 39.55 41.1525 39.5612 41.1681 39.5836C41.1994 39.606 41.2306 39.6173 41.2619 39.6173C41.2931 39.6173 41.3322 39.5948 41.3791 39.55C41.4259 39.5051 41.5041 39.4827 41.6135 39.4827C41.7228 39.4827 41.8244 39.4547 41.9182 39.3986C42.0275 39.3314 42.09 39.2753 42.1057 39.2305C42.1057 39.2192 42.0979 39.208 42.0822 39.1968C42.0822 39.1856 42.0666 39.18 42.0354 39.18L40.1837 39.5836C39.1055 39.8079 38.4882 39.948 38.332 40.0041L38.1445 40.0713L37.2303 40.3068L36.2693 40.5758ZM41.6838 58.2173C41.6994 58.2173 41.7072 58.178 41.7072 58.0995L41.5666 56.3842L41.4728 55.5769C41.4259 54.837 41.4025 53.6373 41.4025 51.978C41.4025 50.2626 41.3947 49.3937 41.3791 49.3713C41.3634 49.4274 41.3478 49.7357 41.3322 50.2963C41.2853 51.4286 41.2619 52.4377 41.2619 53.3234C41.2619 54.4894 41.2697 55.1173 41.2853 55.2069C41.3166 55.2406 41.3478 55.5825 41.3791 56.2328C41.3947 56.6364 41.4416 57.0961 41.5197 57.6118C41.5978 57.78 41.6369 57.9426 41.6369 58.0995C41.6369 58.178 41.6525 58.2173 41.6838 58.2173ZM41.4259 49.2872C41.4728 49.2536 41.4963 49.0854 41.4963 48.7827L41.4728 48.3455C41.4416 48.3567 41.4181 48.4127 41.4025 48.5136C41.4025 48.6145 41.3947 48.7267 41.3791 48.85C41.3791 48.9733 41.3791 49.0798 41.3791 49.1695C41.3791 49.248 41.3947 49.2872 41.4259 49.2872ZM41.4963 48.2614C41.5431 48.1941 41.5666 48.1324 41.5666 48.0764C41.5666 47.9979 41.5588 47.9587 41.5431 47.9587C41.5275 47.9587 41.5041 47.9923 41.4728 48.0596C41.4416 48.1268 41.4259 48.1773 41.4259 48.2109C41.4259 48.2446 41.4416 48.2614 41.4728 48.2614H41.4963ZM41.1916 58.2173C41.2541 58.2173 41.2853 58.0995 41.2853 57.8641L41.2619 57.4605L41.1447 56.0142L41.0978 55.291C41.0665 54.7529 41.0509 54.0802 41.0509 53.273C41.0509 53.0039 41.0509 52.6507 41.0509 52.2135C41.0509 51.765 41.0509 51.3109 41.0509 50.8513C41.0509 50.3804 41.0587 50.0945 41.0744 49.9936C41.1212 49.6909 41.1447 49.248 41.1447 48.665C41.1916 47.5663 41.2931 46.6189 41.4494 45.8229L41.5431 45.3015C41.6369 44.7073 41.6838 44.3373 41.6838 44.1916C41.6838 44.0346 41.7072 43.8889 41.7541 43.7543L41.8244 43.418C41.8557 43.1937 41.9025 42.9527 41.965 42.6948C42.0432 42.28 42.0822 42.039 42.0822 41.9717C42.0822 41.9381 42.0744 41.9212 42.0588 41.9212H42.0354C42.0197 41.9324 41.9963 41.9717 41.965 42.039C41.9494 42.095 41.9338 42.1623 41.9182 42.2408C41.9025 42.3192 41.8791 42.4089 41.8479 42.5098C41.8322 42.5995 41.8088 42.678 41.7775 42.7453C41.7619 42.8013 41.7385 42.8966 41.7072 43.0312C41.6916 43.1657 41.6682 43.3003 41.6369 43.4348C41.6213 43.5693 41.5978 43.6871 41.5666 43.788C41.5353 43.8777 41.5119 43.9281 41.4963 43.9393C41.4806 43.9393 41.4728 43.9449 41.4728 43.9561L41.5197 44.1916C41.5197 44.2252 41.5041 44.242 41.4728 44.242C41.4416 44.242 41.4259 44.2757 41.4259 44.3429L41.4494 44.4943C41.4494 44.5167 41.4416 44.5447 41.4259 44.5784C41.4259 44.612 41.4181 44.6344 41.4025 44.6456C41.3869 44.6456 41.3713 44.6737 41.3556 44.7297C41.34 44.7746 41.3244 44.825 41.3088 44.8811C41.3088 44.9371 41.3088 44.9932 41.3088 45.0493C41.3088 45.0941 41.3166 45.1165 41.3322 45.1165C41.3634 45.1165 41.3791 45.1277 41.3791 45.1502C41.3791 45.1614 41.3634 45.1726 41.3322 45.1838C41.3166 45.195 41.3088 45.2343 41.3088 45.3015L41.2384 45.6042C41.1916 45.8621 41.1525 46.1256 41.1212 46.3947C41.0275 46.8431 40.9572 47.4037 40.9103 48.0764L40.8634 48.7491C40.8009 49.6236 40.7696 51.0026 40.7696 52.8862C40.7696 54.9939 40.7853 56.1487 40.8165 56.3505L40.8868 56.7205C40.9493 57.225 40.9962 57.6006 41.0275 57.8473C41.0744 58.0939 41.129 58.2173 41.1916 58.2173ZM42.0588 41.8203C42.0744 41.8203 42.09 41.8091 42.1057 41.7867C42.1213 41.7531 42.1369 41.725 42.1526 41.7026C42.1682 41.669 42.176 41.6466 42.176 41.6353C42.176 41.6017 42.1604 41.5793 42.1291 41.5681C42.0666 41.5681 42.0354 41.6241 42.0354 41.7362C42.0354 41.7923 42.0432 41.8203 42.0588 41.8203ZM42.1057 41.484C42.1213 41.484 42.1369 41.4728 42.1526 41.4503C42.1838 41.4279 42.2072 41.3719 42.2229 41.2822C42.2541 41.1813 42.2854 41.0692 42.3166 40.9458L42.4104 40.4581C42.4104 40.4021 42.4026 40.374 42.3869 40.374C42.3088 40.374 42.2541 40.5534 42.2229 40.9122C42.1916 40.9907 42.1682 41.0692 42.1526 41.1476C42.1369 41.2261 42.1135 41.2822 42.0822 41.3158C42.0666 41.3494 42.0588 41.3831 42.0588 41.4167C42.0588 41.4616 42.0744 41.484 42.1057 41.484ZM42.4104 40.29C42.426 40.29 42.4495 40.2731 42.4807 40.2395C42.5276 40.1947 42.551 40.1274 42.551 40.0377C42.551 39.9816 42.5354 39.9536 42.5041 39.9536C42.4885 39.9536 42.4573 39.9928 42.4104 40.0713C42.3791 40.1386 42.3713 40.189 42.3869 40.2227C42.3869 40.2451 42.3869 40.2619 42.3869 40.2731C42.3869 40.2843 42.3948 40.29 42.4104 40.29ZM42.7854 39.18C42.8323 39.1464 42.8557 39.1183 42.8557 39.0959C42.8557 39.0847 42.8479 39.0791 42.8323 39.0791C42.8323 39.0679 42.8245 39.0623 42.8089 39.0623L42.762 39.0959C42.7307 39.1183 42.7151 39.1408 42.7151 39.1632C42.7151 39.1744 42.7229 39.18 42.7385 39.18H42.762H42.7854Z" fill="url(#paint15_linear_209_2528)"/>
<path d="M49.4524 56.6196C49.3118 56.6196 49.1633 56.5972 49.007 56.5523C48.8508 56.5075 48.7101 56.4458 48.5851 56.3673C48.4601 56.2889 48.3664 56.216 48.3039 56.1487C48.2414 56.0815 48.2101 56.031 48.2101 55.9974C48.2101 55.9862 48.2179 55.9749 48.2336 55.9637C48.2492 55.9413 48.257 55.9133 48.257 55.8796C48.257 55.7787 48.2023 55.661 48.0929 55.5265C47.9992 55.3919 47.9288 55.3247 47.882 55.3247C47.8507 55.3247 47.8273 55.3415 47.8116 55.3751C47.796 55.4088 47.7726 55.4256 47.7413 55.4256C47.5851 55.4256 47.3351 54.7921 46.9913 53.5252C46.7413 52.6843 46.6162 51.4511 46.6162 49.8254L46.6397 48.1437C46.6397 44.5223 47.7726 40.4077 50.0384 35.7997C50.3665 35.2279 50.7415 34.7626 51.1634 34.4039C51.601 34.0339 51.9369 33.8489 52.1713 33.8489H52.3354C52.4917 33.8489 52.601 33.8209 52.6635 33.7648C52.7417 33.6975 52.9604 33.6639 53.3198 33.6639C53.898 33.6639 54.3746 33.72 54.7496 33.8321C55.6091 34.1348 56.1091 34.6057 56.2497 35.2447C56.281 35.4466 56.2966 35.6652 56.2966 35.9006C56.2966 37.0554 55.8591 38.6811 54.984 40.7777C54.3902 42.2239 53.8511 43.3507 53.3667 44.1579C52.8823 44.9652 52.2416 45.9126 51.4447 47.0001C50.7572 47.9531 49.929 49.1303 48.9602 50.5317V51.5576C48.9602 52.1742 49.007 52.5666 49.1008 52.7348C49.132 52.7684 49.1555 52.8133 49.1711 52.8693C49.1711 52.9366 49.1633 52.9983 49.1477 53.0543C49.132 53.1104 49.1242 53.1608 49.1242 53.2057C49.1242 53.2505 49.1399 53.273 49.1711 53.273C49.2336 53.273 49.3508 53.0599 49.5227 52.6339C49.6165 52.3984 49.679 52.2359 49.7102 52.1462C49.7415 52.0453 49.7571 51.978 49.7571 51.9444C49.7571 51.9107 49.7493 51.8939 49.7337 51.8939C49.7024 51.8939 49.6712 51.9051 49.6399 51.9276C49.6087 51.9388 49.5852 51.9444 49.5696 51.9444C49.5383 51.9444 49.5227 51.9332 49.5227 51.9107L49.5461 51.8267C49.6086 51.7482 49.6712 51.7089 49.7337 51.7089C49.7649 51.7089 49.7962 51.7145 49.8274 51.7258C49.8587 51.737 49.8821 51.7426 49.8977 51.7426C49.9134 51.7426 49.9212 51.7314 49.9212 51.7089L49.8743 51.4903C49.8743 51.4455 49.8977 51.423 49.9446 51.423C50.0071 51.423 50.1946 51.1203 50.5071 50.5149C51.0697 49.3825 51.7025 48.3959 52.4057 47.555C52.8432 47.0057 53.5464 46.731 54.5152 46.731C54.7028 46.731 54.8512 46.7534 54.9606 46.7983C55.07 46.8319 55.195 46.9328 55.3356 47.101C55.5387 47.3925 55.6559 47.7008 55.6872 48.0259L55.781 49.1863C55.8591 50.6438 56.0232 51.7762 56.2732 52.5834C56.4763 53.2673 56.6951 53.6093 56.9295 53.6093C57.0076 53.6093 57.1561 53.5588 57.3748 53.4579C57.8905 53.2337 58.2811 52.9983 58.5468 52.7516C58.6249 52.6731 58.7421 52.561 58.8984 52.4153C59.0546 52.2695 59.2031 52.1126 59.3437 51.9444C59.6094 51.6529 59.7812 51.5071 59.8594 51.5071C59.9062 51.5071 59.9375 51.5352 59.9531 51.5912C59.9844 51.6361 60 51.6809 60 51.7258C60 51.8379 59.9531 52.0229 59.8594 52.2807C59.7656 52.5274 59.6328 52.8133 59.4609 53.1384C59.289 53.4523 59.1249 53.699 58.9687 53.8784C58.5624 54.2708 58.0467 54.467 57.4217 54.467C57.0935 54.467 56.7263 54.4109 56.3201 54.2988C55.3044 54.0634 54.6168 53.542 54.2574 52.7348C53.898 51.9164 53.6949 50.4476 53.648 48.3286C53.648 48.1717 53.6402 48.0876 53.6246 48.0764C53.6089 48.0764 53.5699 48.1381 53.5074 48.2614C53.398 48.4296 53.2886 48.5136 53.1792 48.5136C53.0698 48.5136 53.0151 48.5753 53.0151 48.6986C53.0151 48.822 52.8979 48.9565 52.6635 49.1022C52.4917 49.248 52.4057 49.3769 52.4057 49.489L52.4292 49.6068C52.4292 49.7413 52.351 49.8646 52.1948 49.9767C52.0385 50.0777 51.9369 50.1281 51.8901 50.1281V50.1113C51.8901 49.988 52.2182 49.4386 52.8745 48.4632C53.2652 47.8914 53.4605 47.5719 53.4605 47.5046H53.437C53.3589 47.5046 53.0386 47.9475 52.476 48.8332C52.0541 49.4947 51.6635 50.1505 51.3041 50.8008C50.9603 51.4511 50.7806 51.8603 50.765 52.0285V52.0453C50.7806 52.0453 50.9525 51.765 51.2806 51.2044C51.6088 50.5878 51.7885 50.2795 51.8197 50.2795V50.2963C51.8197 50.4308 51.6557 50.9578 51.3275 51.8771L50.6947 53.6598C50.5228 54.1531 50.3899 54.6912 50.2962 55.2742C50.1712 55.9021 50.0227 56.3001 49.8509 56.4683C49.7571 56.5692 49.6243 56.6196 49.4524 56.6196ZM54.82 52.4657C54.8356 52.4657 54.8434 52.4377 54.8434 52.3816C54.8434 52.2919 54.8121 52.1518 54.7496 51.9612C54.6403 51.6136 54.5074 50.5598 54.3512 48.7995V50.0272L54.3277 50.4981C54.3277 51.1708 54.4605 51.7706 54.7262 52.2975C54.7731 52.4097 54.8043 52.4657 54.82 52.4657ZM49.4993 54.0129C49.5305 54.0129 49.6165 53.8616 49.7571 53.5588L50.5306 51.8267C50.9212 50.9746 51.3275 50.1954 51.7494 49.489C52.1713 48.7379 52.7104 47.9306 53.3667 47.0673L52.9683 47.3869C52.7182 47.6111 52.3979 47.9923 52.0073 48.5305C51.6322 49.0686 51.2884 49.6292 50.9759 50.2122C50.804 50.5485 50.6009 50.997 50.3665 51.5576C50.1321 52.1069 49.9212 52.6171 49.7337 53.088C49.5618 53.5588 49.4758 53.8503 49.4758 53.9625C49.4758 53.9961 49.4836 54.0129 49.4993 54.0129ZM55.3591 37.5655C55.3903 37.5655 55.4294 37.4422 55.4762 37.1956C55.5544 36.7695 55.5934 36.4388 55.5934 36.2033C55.5934 36.0576 55.5856 35.9847 55.57 35.9847C55.5387 35.9847 55.4997 36.1192 55.4528 36.3883C55.3747 36.7807 55.3356 37.1059 55.3356 37.3637C55.3356 37.4983 55.3434 37.5655 55.3591 37.5655ZM50.4368 47.101C50.4837 47.101 50.804 46.6581 51.3978 45.7724C51.9604 44.9428 52.4526 44.1579 52.8745 43.418C54.234 41.0299 55.0153 39.3258 55.2184 38.3055V38.255C55.1559 38.255 54.984 38.6531 54.7028 39.4491C53.4839 42.2968 52.1635 44.6681 50.7415 46.5628C50.5384 46.8319 50.4368 47.0113 50.4368 47.101ZM54.9371 35.1102V35.0934C54.9371 35.0485 54.8746 34.8972 54.7496 34.6393C54.6871 34.516 54.6246 34.4207 54.5621 34.3534C54.5152 34.2862 54.4762 34.2525 54.4449 34.2525C54.4293 34.2525 54.4215 34.2637 54.4215 34.2862C54.4215 34.3871 54.484 34.5384 54.609 34.7402C54.7965 34.9869 54.9059 35.1102 54.9371 35.1102ZM48.9836 48.4296L49.7805 47.3364C50.2493 46.6749 50.8119 45.8397 51.4682 44.8306C51.8588 44.2476 52.1791 43.7936 52.4292 43.4684C52.7573 43.0312 52.9839 42.6444 53.1089 42.308L53.1558 42.123C53.1558 42.067 53.1401 42.039 53.1089 42.039C53.0776 42.039 53.0464 42.0446 53.0151 42.0558L52.9917 42.0894L52.9683 42.0726C52.9683 42.0165 53.0229 41.9381 53.1323 41.8371C53.2417 41.725 53.3667 41.5456 53.5074 41.299C53.8199 40.7384 54.0465 40.2171 54.1871 39.735C54.2496 39.578 54.2808 39.4659 54.2808 39.3986C54.2808 39.365 54.273 39.3426 54.2574 39.3314C54.2418 39.3201 54.234 39.3033 54.234 39.2809C54.234 39.2361 54.2574 39.2024 54.3043 39.18C54.4605 39.0903 54.609 38.5858 54.7496 37.6664C54.7809 37.4198 54.8512 37.0554 54.9606 36.5733C55.0075 36.3267 55.0309 36.1136 55.0309 35.9343C55.0309 35.7997 55.0153 35.6876 54.984 35.5979C54.9528 35.497 54.9215 35.4466 54.8903 35.4466C54.859 35.4466 54.8356 35.5699 54.82 35.8165C54.8043 36.052 54.7731 36.1697 54.7262 36.1697C54.7106 36.1697 54.6949 36.1641 54.6793 36.1529C54.6637 36.1305 54.6481 36.0744 54.6324 35.9847C54.6324 35.895 54.6324 35.7941 54.6324 35.682V35.5138C54.6324 35.3232 54.5856 35.1102 54.4918 34.8748C54.3355 34.4711 54.0933 34.2581 53.7652 34.2357C53.6558 34.2357 53.5542 34.2918 53.4605 34.4039C52.3667 35.7717 51.515 37.2684 50.9056 38.8941C50.2962 40.5198 49.8509 42.095 49.5696 43.6198C49.3039 45.1446 49.1321 46.4451 49.0539 47.5214L48.9836 48.4296ZM49.8274 48.0091C49.8587 48.0091 49.929 47.9475 50.0384 47.8241C50.179 47.6447 50.2493 47.5046 50.2493 47.4037C50.2493 47.3925 50.2415 47.3869 50.2259 47.3869C50.2103 47.3869 50.1477 47.4541 50.0384 47.5887C49.8821 47.7793 49.804 47.9138 49.804 47.9923C49.804 48.0035 49.8118 48.0091 49.8274 48.0091Z" fill="url(#paint16_linear_209_2528)"/>
<defs>
<linearGradient id="paint0_linear_209_2528" x1="6.8195" y1="-7.1711" x2="48.9467" y2="38.4079" gradientUnits="userSpaceOnUse">
<stop stop-color="#EA6EE7"/>
<stop offset="0.244792" stop-color="#FD68E3"/>
<stop offset="0.5" stop-color="#B66FFA"/>
<stop offset="0.739583" stop-color="#7668FD"/>
<stop offset="1" stop-color="#7D2AE7"/>
</linearGradient>
<linearGradient id="paint1_linear_209_2528" x1="6.8195" y1="-7.1711" x2="48.9467" y2="38.4079" gradientUnits="userSpaceOnUse">
<stop stop-color="#EA6EE7"/>
<stop offset="0.244792" stop-color="#FD68E3"/>
<stop offset="0.5" stop-color="#B66FFA"/>
<stop offset="0.739583" stop-color="#7668FD"/>
<stop offset="1" stop-color="#7D2AE7"/>
</linearGradient>
<linearGradient id="paint2_linear_209_2528" x1="6.8195" y1="-7.1711" x2="48.9467" y2="38.4079" gradientUnits="userSpaceOnUse">
<stop stop-color="#EA6EE7"/>
<stop offset="0.244792" stop-color="#FD68E3"/>
<stop offset="0.5" stop-color="#B66FFA"/>
<stop offset="0.739583" stop-color="#7668FD"/>
<stop offset="1" stop-color="#7D2AE7"/>
</linearGradient>
<linearGradient id="paint3_linear_209_2528" x1="6.8195" y1="-7.1711" x2="48.9467" y2="38.4079" gradientUnits="userSpaceOnUse">
<stop stop-color="#EA6EE7"/>
<stop offset="0.244792" stop-color="#FD68E3"/>
<stop offset="0.5" stop-color="#B66FFA"/>
<stop offset="0.739583" stop-color="#7668FD"/>
<stop offset="1" stop-color="#7D2AE7"/>
</linearGradient>
<linearGradient id="paint4_linear_209_2528" x1="6.8195" y1="-7.1711" x2="48.9467" y2="38.4079" gradientUnits="userSpaceOnUse">
<stop stop-color="#EA6EE7"/>
<stop offset="0.244792" stop-color="#FD68E3"/>
<stop offset="0.5" stop-color="#B66FFA"/>
<stop offset="0.739583" stop-color="#7668FD"/>
<stop offset="1" stop-color="#7D2AE7"/>
</linearGradient>
<linearGradient id="paint5_linear_209_2528" x1="6.8195" y1="-7.1711" x2="48.9467" y2="38.4079" gradientUnits="userSpaceOnUse">
<stop stop-color="#EA6EE7"/>
<stop offset="0.244792" stop-color="#FD68E3"/>
<stop offset="0.5" stop-color="#B66FFA"/>
<stop offset="0.739583" stop-color="#7668FD"/>
<stop offset="1" stop-color="#7D2AE7"/>
</linearGradient>
<linearGradient id="paint6_linear_209_2528" x1="6.8195" y1="-7.1711" x2="48.9467" y2="38.4079" gradientUnits="userSpaceOnUse">
<stop stop-color="#EA6EE7"/>
<stop offset="0.244792" stop-color="#FD68E3"/>
<stop offset="0.5" stop-color="#B66FFA"/>
<stop offset="0.739583" stop-color="#7668FD"/>
<stop offset="1" stop-color="#7D2AE7"/>
</linearGradient>
<linearGradient id="paint7_linear_209_2528" x1="6.8195" y1="-7.1711" x2="48.9467" y2="38.4079" gradientUnits="userSpaceOnUse">
<stop stop-color="#EA6EE7"/>
<stop offset="0.244792" stop-color="#FD68E3"/>
<stop offset="0.5" stop-color="#B66FFA"/>
<stop offset="0.739583" stop-color="#7668FD"/>
<stop offset="1" stop-color="#7D2AE7"/>
</linearGradient>
<linearGradient id="paint8_linear_209_2528" x1="6.8195" y1="-7.1711" x2="48.9467" y2="38.4079" gradientUnits="userSpaceOnUse">
<stop stop-color="#EA6EE7"/>
<stop offset="0.244792" stop-color="#FD68E3"/>
<stop offset="0.5" stop-color="#B66FFA"/>
<stop offset="0.739583" stop-color="#7668FD"/>
<stop offset="1" stop-color="#7D2AE7"/>
</linearGradient>
<linearGradient id="paint9_linear_209_2528" x1="6.8195" y1="-7.1711" x2="48.9467" y2="38.4079" gradientUnits="userSpaceOnUse">
<stop stop-color="#EA6EE7"/>
<stop offset="0.244792" stop-color="#FD68E3"/>
<stop offset="0.5" stop-color="#B66FFA"/>
<stop offset="0.739583" stop-color="#7668FD"/>
<stop offset="1" stop-color="#7D2AE7"/>
</linearGradient>
<linearGradient id="paint10_linear_209_2528" x1="6.8195" y1="-7.1711" x2="48.9467" y2="38.4079" gradientUnits="userSpaceOnUse">
<stop stop-color="#EA6EE7"/>
<stop offset="0.244792" stop-color="#FD68E3"/>
<stop offset="0.5" stop-color="#B66FFA"/>
<stop offset="0.739583" stop-color="#7668FD"/>
<stop offset="1" stop-color="#7D2AE7"/>
</linearGradient>
<linearGradient id="paint11_linear_209_2528" x1="6.8195" y1="-7.1711" x2="48.9467" y2="38.4079" gradientUnits="userSpaceOnUse">
<stop stop-color="#EA6EE7"/>
<stop offset="0.244792" stop-color="#FD68E3"/>
<stop offset="0.5" stop-color="#B66FFA"/>
<stop offset="0.739583" stop-color="#7668FD"/>
<stop offset="1" stop-color="#7D2AE7"/>
</linearGradient>
<linearGradient id="paint12_linear_209_2528" x1="-11.6059" y1="27.7284" x2="11.9459" y2="85.2674" gradientUnits="userSpaceOnUse">
<stop stop-color="#EA6EE7"/>
<stop offset="0.244792" stop-color="#FD68E3"/>
<stop offset="0.5" stop-color="#B66FFA"/>
<stop offset="0.739583" stop-color="#7668FD"/>
<stop offset="1" stop-color="#7D2AE7"/>
</linearGradient>
<linearGradient id="paint13_linear_209_2528" x1="-11.6059" y1="27.7284" x2="11.9459" y2="85.2674" gradientUnits="userSpaceOnUse">
<stop stop-color="#EA6EE7"/>
<stop offset="0.244792" stop-color="#FD68E3"/>
<stop offset="0.5" stop-color="#B66FFA"/>
<stop offset="0.739583" stop-color="#7668FD"/>
<stop offset="1" stop-color="#7D2AE7"/>
</linearGradient>
<linearGradient id="paint14_linear_209_2528" x1="-11.6059" y1="27.7284" x2="11.9459" y2="85.2674" gradientUnits="userSpaceOnUse">
<stop stop-color="#EA6EE7"/>
<stop offset="0.244792" stop-color="#FD68E3"/>
<stop offset="0.5" stop-color="#B66FFA"/>
<stop offset="0.739583" stop-color="#7668FD"/>
<stop offset="1" stop-color="#7D2AE7"/>
</linearGradient>
<linearGradient id="paint15_linear_209_2528" x1="-11.6059" y1="27.7284" x2="11.9459" y2="85.2674" gradientUnits="userSpaceOnUse">
<stop stop-color="#EA6EE7"/>
<stop offset="0.244792" stop-color="#FD68E3"/>
<stop offset="0.5" stop-color="#B66FFA"/>
<stop offset="0.739583" stop-color="#7668FD"/>
<stop offset="1" stop-color="#7D2AE7"/>
</linearGradient>
<linearGradient id="paint16_linear_209_2528" x1="-11.6059" y1="27.7284" x2="11.9459" y2="85.2674" gradientUnits="userSpaceOnUse">
<stop stop-color="#EA6EE7"/>
<stop offset="0.244792" stop-color="#FD68E3"/>
<stop offset="0.5" stop-color="#B66FFA"/>
<stop offset="0.739583" stop-color="#7668FD"/>
<stop offset="1" stop-color="#7D2AE7"/>
</linearGradient>
</defs>
</svg>
