<svg width="215" height="49" viewBox="0 0 215 49" fill="none" xmlns="http://www.w3.org/2000/svg">
<rect width="59.0513" height="49" fill="white"/>
<path d="M5.02563 45.2308L56.5385 3.76929V45.2308H5.02563Z" fill="#E61C1C"/>
<path d="M75.6273 33.5L69.6513 16.58H72.8673L77.4753 30.452H76.5153L81.4833 16.58H83.7873L88.3953 30.452H87.5073L92.3313 16.58H95.3553L89.3313 33.5H86.7633L82.2993 20.492H82.8273L78.1953 33.5H75.6273ZM101.538 33.74C100.29 33.74 99.2101 33.484 98.2981 32.972C97.3861 32.46 96.6741 31.732 96.1621 30.788C95.6661 29.844 95.4181 28.724 95.4181 27.428C95.4181 26.132 95.6661 25.02 96.1621 24.092C96.6741 23.148 97.3861 22.42 98.2981 21.908C99.2101 21.396 100.29 21.14 101.538 21.14C102.786 21.14 103.866 21.396 104.778 21.908C105.706 22.42 106.418 23.148 106.914 24.092C107.426 25.02 107.682 26.132 107.682 27.428C107.682 28.724 107.426 29.844 106.914 30.788C106.418 31.732 105.706 32.46 104.778 32.972C103.866 33.484 102.786 33.74 101.538 33.74ZM101.538 31.436C102.482 31.436 103.234 31.108 103.794 30.452C104.354 29.78 104.634 28.772 104.634 27.428C104.634 26.084 104.354 25.084 103.794 24.428C103.234 23.772 102.482 23.444 101.538 23.444C100.594 23.444 99.8421 23.772 99.2821 24.428C98.7221 25.084 98.4421 26.084 98.4421 27.428C98.4421 28.772 98.7221 29.78 99.2821 30.452C99.8421 31.108 100.594 31.436 101.538 31.436ZM110.245 33.5V24.476C110.245 23.964 110.229 23.444 110.197 22.916C110.181 22.388 110.141 21.876 110.077 21.38H112.981L113.317 24.692H112.837C112.997 23.892 113.261 23.228 113.629 22.7C114.013 22.172 114.477 21.78 115.021 21.524C115.565 21.268 116.157 21.14 116.797 21.14C117.085 21.14 117.317 21.156 117.493 21.188C117.669 21.204 117.845 21.244 118.021 21.308L117.997 23.948C117.693 23.82 117.429 23.74 117.205 23.708C116.997 23.676 116.733 23.66 116.413 23.66C115.725 23.66 115.141 23.804 114.661 24.092C114.197 24.38 113.845 24.78 113.605 25.292C113.381 25.804 113.269 26.388 113.269 27.044V33.5H110.245ZM119.691 33.5V15.836H122.691V33.5H119.691ZM130.653 33.74C129.597 33.74 128.661 33.492 127.845 32.996C127.045 32.484 126.421 31.756 125.973 30.812C125.525 29.868 125.301 28.74 125.301 27.428C125.301 26.116 125.525 24.996 125.973 24.068C126.421 23.124 127.045 22.404 127.845 21.908C128.661 21.396 129.597 21.14 130.653 21.14C131.661 21.14 132.549 21.388 133.317 21.884C134.101 22.364 134.621 23.02 134.877 23.852H134.565V15.836H137.565V33.5H134.613V30.932H134.901C134.645 31.796 134.125 32.484 133.341 32.996C132.573 33.492 131.677 33.74 130.653 33.74ZM131.493 31.436C132.437 31.436 133.197 31.108 133.773 30.452C134.349 29.78 134.637 28.772 134.637 27.428C134.637 26.084 134.349 25.084 133.773 24.428C133.197 23.772 132.437 23.444 131.493 23.444C130.549 23.444 129.781 23.772 129.189 24.428C128.613 25.084 128.325 26.084 128.325 27.428C128.325 28.772 128.613 29.78 129.189 30.452C129.781 31.108 130.549 31.436 131.493 31.436ZM152.362 33.5L146.386 16.58H149.602L154.21 30.452H153.25L158.218 16.58H160.522L165.13 30.452H164.242L169.066 16.58H172.09L166.066 33.5H163.498L159.034 20.492H159.562L154.93 33.5H152.362ZM174.324 33.5V21.38H177.324V33.5H174.324ZM174.156 19.1V16.172H177.492V19.1H174.156ZM180.558 33.5V24.476C180.558 23.964 180.542 23.444 180.51 22.916C180.494 22.388 180.454 21.876 180.39 21.38H183.294L183.63 24.692H183.15C183.31 23.892 183.574 23.228 183.942 22.7C184.326 22.172 184.79 21.78 185.334 21.524C185.878 21.268 186.47 21.14 187.11 21.14C187.398 21.14 187.63 21.156 187.806 21.188C187.982 21.204 188.158 21.244 188.334 21.308L188.31 23.948C188.006 23.82 187.742 23.74 187.518 23.708C187.31 23.676 187.046 23.66 186.726 23.66C186.038 23.66 185.454 23.804 184.974 24.092C184.51 24.38 184.158 24.78 183.918 25.292C183.694 25.804 183.582 26.388 183.582 27.044V33.5H180.558ZM195.672 33.74C193.64 33.74 192.048 33.18 190.896 32.06C189.744 30.94 189.168 29.404 189.168 27.452C189.168 26.188 189.416 25.084 189.912 24.14C190.408 23.196 191.096 22.46 191.976 21.932C192.872 21.404 193.912 21.14 195.096 21.14C196.264 21.14 197.24 21.388 198.024 21.884C198.808 22.38 199.4 23.076 199.8 23.972C200.216 24.868 200.424 25.916 200.424 27.116V27.908H191.592V26.324H198.288L197.88 26.66C197.88 25.54 197.64 24.684 197.16 24.092C196.696 23.5 196.016 23.204 195.12 23.204C194.128 23.204 193.36 23.556 192.816 24.26C192.288 24.964 192.024 25.948 192.024 27.212V27.524C192.024 28.836 192.344 29.82 192.984 30.476C193.64 31.116 194.56 31.436 195.744 31.436C196.432 31.436 197.072 31.348 197.664 31.172C198.272 30.98 198.848 30.676 199.392 30.26L200.28 32.276C199.704 32.74 199.016 33.1 198.216 33.356C197.416 33.612 196.568 33.74 195.672 33.74ZM207.285 33.74C206.245 33.74 205.285 33.62 204.405 33.38C203.541 33.124 202.813 32.772 202.221 32.324L203.061 30.308C203.669 30.724 204.341 31.044 205.077 31.268C205.813 31.492 206.557 31.604 207.309 31.604C208.109 31.604 208.701 31.468 209.085 31.196C209.485 30.924 209.685 30.556 209.685 30.092C209.685 29.724 209.557 29.436 209.301 29.228C209.061 29.004 208.669 28.836 208.125 28.724L205.725 28.268C204.701 28.044 203.917 27.66 203.373 27.116C202.845 26.572 202.581 25.86 202.581 24.98C202.581 24.228 202.781 23.564 203.181 22.988C203.597 22.412 204.181 21.964 204.933 21.644C205.701 21.308 206.597 21.14 207.621 21.14C208.517 21.14 209.357 21.26 210.141 21.5C210.941 21.74 211.613 22.1 212.157 22.58L211.293 24.524C210.797 24.124 210.229 23.812 209.589 23.588C208.949 23.364 208.325 23.252 207.717 23.252C206.885 23.252 206.277 23.404 205.893 23.708C205.509 23.996 205.317 24.372 205.317 24.836C205.317 25.188 205.429 25.484 205.653 25.724C205.893 25.948 206.261 26.116 206.757 26.228L209.157 26.684C210.229 26.892 211.037 27.26 211.581 27.788C212.141 28.3 212.421 29.004 212.421 29.9C212.421 30.7 212.205 31.388 211.773 31.964C211.341 32.54 210.741 32.98 209.973 33.284C209.205 33.588 208.309 33.74 207.285 33.74Z" fill="white"/>
</svg>
