<svg width="60" height="60" viewBox="0 0 60 60" fill="none" xmlns="http://www.w3.org/2000/svg">
<path d="M14.2428 10.9874C16.503 6.01264 20.0524 2.41303 25.3045 0.630285C25.5445 0.587815 25.6439 0.678224 25.5805 0.922101C24.744 1.81171 24.0105 2.84449 23.0388 3.54652C22.237 4.12565 21.8806 4.84183 21.6447 5.6732C21.3043 6.87071 20.7155 7.72268 19.3568 7.78606C19.196 7.79378 18.9936 7.78348 18.8865 7.87261C17.4695 9.04856 15.4043 9.37866 14.5031 11.2238C14.2817 11.2943 14.1633 11.2505 14.2428 10.9874Z" fill="#FAF9FF"/>
<path d="M25.5416 32.8012C20.4183 30.8997 16.5761 27.6138 14.4259 22.5014C14.3667 22.2649 14.4497 22.1594 14.6978 22.2054C15.6443 22.9776 16.7263 23.6355 17.4969 24.5541C18.131 25.3131 18.871 25.6158 19.7169 25.7944C20.9356 26.0489 21.8271 26.5759 21.9867 27.9269C22.0054 28.0858 22.0099 28.2891 22.1064 28.3898C23.3799 29.7193 23.8551 31.7559 25.7594 32.5242C25.8437 32.7413 25.8087 32.8623 25.5416 32.8012Z" fill="#FAF9FF"/>
<path d="M26.4769 11.479C26.4229 11.466 26.3701 11.4485 26.3189 11.4268L26.1436 11.4211C26.2054 11.3651 26.2723 11.3612 26.3479 11.3863C26.3592 11.3981 26.3714 11.4088 26.3846 11.4185C26.4133 11.4415 26.4443 11.4618 26.4769 11.479Z" fill="#FAF9FF"/>
<path d="M33.1378 12.5574L32.5713 12.4439C32.6813 12.3937 32.8142 12.4053 32.9644 12.4728C33.022 12.4995 33.0799 12.5269 33.1378 12.5574Z" fill="#FAF9FF"/>
<path d="M37.3928 16.8684C37.3636 16.9073 37.3365 16.9478 37.3117 16.9897C37.2874 16.9725 37.2687 16.9484 37.258 16.9205C37.3006 16.8975 37.3459 16.88 37.3928 16.8684Z" fill="#FAF9FF"/>
<path d="M39.8651 24.0499C40.0903 24.7729 39.7042 25.2503 39.497 25.7529C39.3181 26.1875 39.0343 26.5791 38.7962 26.9896C38.781 27.0174 38.7624 27.0433 38.7409 27.0665C38.5479 27.2612 38.2882 27.5092 38.0575 27.3451C37.8362 27.1875 37.9526 26.8426 38.1113 26.6274C38.314 26.3523 38.4652 26.0865 38.4555 25.7246C38.4507 25.5466 38.5717 25.3668 38.7628 25.277C39.2689 25.0405 39.5806 24.6181 39.8651 24.0499Z" fill="#FAF9FF"/>
<path d="M26.5544 7.51483C26.4602 7.51934 26.4087 7.48491 26.4164 7.37938C26.4348 7.12585 26.8697 6.69826 27.0853 6.7314C27.1844 6.74684 27.2635 6.78867 27.2523 6.91479C27.2301 7.16317 26.8115 7.52545 26.5544 7.51483Z" fill="#FAF9FF"/>
<path d="M32.9644 12.4728C32.8142 12.4053 32.6813 12.3937 32.5713 12.4439L33.1378 12.5574C33.0799 12.5269 33.022 12.4995 32.9644 12.4728Z" fill="#FAF9FF"/>
<path d="M40.2589 17.3018C40.0015 17.5656 39.6476 17.6715 39.3323 17.841C38.8854 18.0839 38.6177 17.9279 38.5369 17.4404C38.1016 17.111 37.5624 16.907 37.2368 16.4543C37.2786 16.5292 37.3017 16.6131 37.304 16.6988C37.2963 16.7181 37.2886 16.7355 37.2789 16.7548L37.3928 16.8684C37.3636 16.9073 37.3365 16.9478 37.3117 16.9897C37.2874 16.9725 37.2687 16.9484 37.258 16.9205C37.2463 16.8983 37.2391 16.8741 37.2368 16.8491C37.2233 16.7912 37.2233 16.7297 37.202 16.6757C37.1116 16.5293 36.9861 16.3945 37.0151 16.1998C36.5373 16.0747 36.703 15.7262 36.7436 15.4199C36.6744 15.3878 36.6087 15.3466 36.5373 15.3331C36.4199 15.3122 36.2581 15.4891 36.1908 15.2687C36.1265 15.0606 36.2889 14.9663 36.4276 14.8662C36.2774 14.6732 36.1271 14.4801 35.9749 14.2845C35.6477 14.1822 35.5454 13.9473 35.5888 13.6275H35.5869C35.4289 13.3618 35.2188 13.1057 35.3981 12.7646L35.3865 12.7608C34.753 12.811 34.1153 12.9216 33.493 12.7202C33.4564 12.7086 33.4219 12.6971 33.3872 12.6836C33.3045 12.6414 33.2215 12.5989 33.1388 12.5584L32.5722 12.4448C32.478 12.4873 32.4011 12.5735 32.347 12.7067C32.1427 13.2038 31.9001 13.3444 31.5015 13.0014C31.1083 12.6665 30.6328 12.5854 30.2145 12.3525C30.0813 12.2772 29.9179 12.2791 30.0755 12.0057C30.0852 11.9883 30.0948 11.9735 30.1026 11.9555C30.2876 11.5781 30.043 11.2949 29.5878 11.349C28.9964 11.4182 28.3974 11.4239 27.8041 11.4992C27.4999 11.5334 27.1994 11.5952 26.9064 11.6839C26.7407 11.736 26.3151 11.9555 26.3209 11.4265L26.1455 11.4207C26.1474 11.6575 25.9357 11.7193 25.799 11.839C25.4387 12.1569 24.9898 12.3859 24.9168 12.9583C24.8846 13.2086 24.6144 13.3766 24.3541 13.4165C23.7878 13.5072 23.5742 13.9869 23.2853 14.3682C22.9963 14.7494 22.5552 15.1098 22.8499 15.7108C22.9075 15.8301 22.8403 16.0229 22.7998 16.1731C22.6958 16.5718 22.5803 16.9685 22.4587 17.3616C22.4185 17.4903 22.3644 17.6216 22.4664 17.7197C22.8693 18.1184 22.9153 18.7194 23.2582 19.1354C23.7476 19.7264 24.1443 20.495 25.1188 20.4027C26.0049 20.3178 26.9238 20.5047 27.7713 20.0713C27.9949 19.9558 28.2587 20.0308 28.3317 20.2643C28.4839 20.7495 28.8076 20.7112 29.1911 20.6668C29.6052 20.6205 29.8053 20.8499 29.7573 21.2659C29.7342 21.4853 29.693 21.7032 29.657 21.9229C29.3951 22.1423 29.5048 22.3563 29.6685 22.5664C29.9941 22.9824 30.3831 23.3524 30.6164 23.8356C30.6913 24.1747 30.6682 24.5946 30.8648 24.8279C31.0884 25.0898 30.8725 25.1342 30.8072 25.269C30.1444 25.9816 30.0578 26.5923 30.7106 27.1798C30.8667 27.4513 31.044 27.6946 30.9745 28.0581C30.9323 28.2891 31.0826 28.5407 31.2827 28.7225C31.5079 28.9249 31.6797 29.1655 31.718 29.4738C31.7586 29.8052 32.0243 29.9844 32.3248 29.8399C32.662 29.679 33.022 29.6337 33.3804 29.57C34.2665 29.4162 34.8887 28.865 35.3701 28.1563C35.4917 27.977 35.5724 27.8023 35.7864 27.7576C36.1403 27.6785 36.2812 27.3741 36.2313 27.1161C36.1232 26.5788 36.4701 26.3996 36.8053 26.1724C36.99 26.0469 37.1654 25.9102 37.3446 25.7773C37.8857 25.371 38.0321 24.6545 37.8146 23.9975C37.6451 23.4827 37.5643 22.9248 37.8722 22.4045C38.3548 21.8364 38.5852 21.0967 39.1379 20.5748C39.9699 19.7869 40.182 18.7293 40.3551 17.6624C40.3724 17.554 40.413 17.4115 40.2589 17.3018Z" fill="#FAF9FF"/>
<path d="M45.4469 10.7843C43.806 5.69927 37.2191 0.577016 32.6658 0.55532C33.1385 0.557572 33.2588 1.45039 33.7462 1.31237C33.346 1.74028 34.5773 2.06974 34.7295 2.59321C34.5425 2.6183 34.4077 2.63568 34.1938 2.66656C34.5271 2.88792 34.8006 3.07099 35.0914 3.26564C34.8681 3.38694 34.585 3.10477 34.4521 3.51209C34.3807 3.73152 33.8991 3.70674 33.9222 4.08607C33.6758 4.08993 33.6507 3.70481 33.3463 3.84927C33.4869 3.98215 33.6121 4.09959 33.7376 4.21702C33.3984 4.24018 33.5371 4.84312 33.0979 4.7392C33.0239 4.62273 32.5368 4.35311 32.94 4.36148C34.1947 4.21638 32.5072 3.88145 32.152 3.77431C31.7129 3.62953 30.9751 3.718 30.7731 4.088C30.5997 4.98276 29.0228 5.19317 29.4687 6.11817C29.6988 6.57311 30.0434 5.9055 30.2837 6.08149C30.4877 6.32086 30.6987 6.92605 30.1447 6.82567C30.4368 6.28354 29.86 6.2755 29.8551 6.75071C30.0765 7.2687 29.6489 7.23814 29.3803 7.34528C28.749 7.78992 28.1033 8.32658 27.3404 8.3565C27.5277 8.70044 28.0515 8.92598 27.7526 9.48258C27.5274 9.89312 26.9981 9.54339 26.6413 9.51733C25.9428 9.1898 26.1288 9.9742 25.8939 10.3645C25.5612 10.9314 26.2131 11.3718 26.6703 11.4799C26.6375 11.4623 26.6065 11.4416 26.5776 11.4182C27.6944 11.4844 27.8584 10.2872 28.7352 9.83102C29.7396 9.04341 31.302 10.0807 31.4204 11.1331C31.5954 11.0655 31.692 10.9211 31.6456 10.7843C31.4761 10.2798 31.8387 10.6878 31.8998 10.5128C31.4606 10.1968 30.7737 9.99801 30.6054 9.21457C31.8502 9.60323 32.3296 10.4993 32.9438 11.4761C33.1253 11.0678 32.5671 10.719 33.0442 10.4011C33.6233 9.81558 33.6095 11.164 34.0918 11.2525C34.7134 11.6743 35.6091 10.7943 35.8192 11.4056C35.9289 11.8374 36.1409 12.5336 35.584 12.7041C35.3054 13.9004 36.2503 13.3312 36.6934 14.2144C37.2081 14.5631 38.4993 18.4439 39.4124 17.1602C40.82 16.1483 42.4641 14.2253 40.5706 13.0568C40.1321 14.5429 39.7885 13.2865 39.0301 13.1353C38.6228 12.1218 38.8957 12.0838 39.6472 12.7704C40.1025 13.4068 40.3416 12.6186 40.6717 12.8953C41.1449 13.4586 41.8814 12.5378 42.3341 12.6758C42.6999 12.8158 43.2394 13.9859 43.4705 13.1633C43.9502 14.3016 44.4035 15.3784 44.8861 16.5245C45.3735 15.9946 44.1677 9.83231 45.4469 12.3116C46.0292 13.43 46.039 12.6192 45.4469 10.7843ZM33.8582 1.23322C33.9139 1.20652 33.9814 1.20845 34.0487 1.21038C33.9846 1.21124 33.9207 1.2189 33.8582 1.23322ZM32.134 6.32633C31.7869 6.36012 31.5568 7.094 30.831 6.94214C31.6328 6.59241 31.2985 5.7131 31.5256 5.0915C31.4021 5.71374 31.6817 6.00073 32.1591 5.85048C32.0108 6.03741 32.0359 6.18959 32.134 6.32633ZM35.2066 9.64892C34.5985 9.58457 34.2556 10.3011 33.7829 9.48805C34.0294 9.30723 34.1912 9.01638 34.4782 8.88865C34.4782 9.52795 35.1989 9.30016 35.1931 8.74001C35.2015 9.41341 35.9743 9.32075 36.241 9.79563C35.8961 9.74898 35.5512 9.7049 35.2066 9.64892ZM38.7583 10.2866C38.5636 10.2107 38.256 10.3355 38.1422 10.2712C38.1505 9.40408 36.6078 9.0566 37.2191 8.24421C37.684 7.72943 37.4311 8.86999 37.8433 8.8124C38.1866 9.18015 38.7335 9.81429 38.7583 10.2866ZM38.8374 8.35071C38.5903 8.34846 38.4594 7.95433 38.7103 7.84976C38.9298 7.89867 39.1743 8.29183 38.8374 8.35071Z" fill="#FAF9FF"/>
<path d="M32.7312 0.595215L32.7871 0.672111C32.6813 0.633824 32.5771 0.591354 32.4731 0.556607C32.5465 0.550815 32.6176 0.545024 32.6909 0.541163L32.7312 0.595215Z" fill="#FAF9FF"/>
<path d="M29.9999 33.4286C20.7837 33.4286 13.2856 25.9321 13.2856 16.7143C13.2856 7.49649 20.7837 0 29.9999 0C39.2161 0 46.7142 7.4981 46.7142 16.7143C46.7142 25.9305 39.2161 33.4286 29.9999 33.4286ZM29.9999 0.297929C20.9478 0.297929 13.5836 7.66219 13.5836 16.7143C13.5836 25.7664 20.9478 33.1306 29.9999 33.1306C39.052 33.1306 46.4163 25.7664 46.4163 16.7143C46.4163 7.66219 39.052 0.297929 29.9999 0.297929Z" fill="#FAF9FF"/>
<path d="M9.65693 48.3289C9.54755 48.3289 9.49285 48.3233 9.49285 48.3121L9.53973 48.2953C9.57098 48.284 9.60224 48.2672 9.63349 48.2448C9.66474 48.2224 9.68818 48.2 9.70381 48.1775C9.73506 48.1551 9.7585 48.1439 9.77413 48.1439C9.821 48.1439 9.84444 48.1607 9.84444 48.1944C9.84444 48.2168 9.83663 48.2392 9.821 48.2616C9.80538 48.284 9.78194 48.3009 9.75068 48.3121C9.71943 48.3233 9.68818 48.3289 9.65693 48.3289ZM8.69592 48.5812H8.64904C8.64904 48.5587 8.69592 48.5139 8.78968 48.4466C8.88344 48.3793 8.99282 48.3457 9.11783 48.3457C9.24284 48.3457 9.30534 48.3681 9.30534 48.413C9.30534 48.4354 9.28972 48.4522 9.25846 48.4634C9.22721 48.4746 9.18033 48.4802 9.11783 48.4802C9.07095 48.4802 9.01626 48.4915 8.95375 48.5139C8.90688 48.5251 8.86 48.5419 8.81312 48.5643C8.76624 48.5755 8.72718 48.5812 8.69592 48.5812ZM18.1888 35.1945C18.22 35.1833 18.2435 35.1609 18.2591 35.1273C18.2903 35.0936 18.3138 35.0768 18.3294 35.0768C18.345 35.088 18.3607 35.1161 18.3763 35.1609V35.1777L18.1888 35.1945ZM11.1336 60.0001C10.8367 60.0001 10.5789 59.9777 10.3601 59.9329C9.98508 59.8656 9.52411 59.7255 8.97719 59.5124C8.44591 59.3106 8.05525 59.1256 7.80524 58.9575C7.6646 58.8566 7.47709 58.7388 7.2427 58.6043C6.80517 58.3128 6.5239 58.1166 6.39889 58.0157C6.28951 57.9036 6.23481 57.8251 6.23481 57.7802C6.23481 57.7242 6.12543 57.5672 5.90667 57.3094C5.64102 56.9394 5.38319 56.4293 5.13317 55.779C4.75815 54.8036 4.54719 53.8506 4.50032 52.92C4.46906 52.5613 4.45344 52.1913 4.45344 51.8101C4.45344 50.8123 4.40656 50.3133 4.3128 50.3133C4.28155 50.3133 4.22686 50.3414 4.14873 50.3974C4.0706 50.4423 3.98466 50.4927 3.8909 50.5488C3.51587 50.7394 3.30492 50.8515 3.25804 50.8851L2.83614 51.171C2.77363 51.2047 2.72675 51.2271 2.6955 51.2383C2.66425 51.2383 2.54705 51.3224 2.34391 51.4906C2.25016 51.569 2.00795 51.7316 1.6173 51.9783C1.32041 52.1128 1.14852 52.2081 1.10164 52.2642C1.07039 52.3202 1.03132 52.3482 0.984444 52.3482H0.796931C0.750053 52.3482 0.726614 52.3314 0.726614 52.2978C0.726614 52.2529 0.671922 52.2137 0.56254 52.1801C0.453157 52.1352 0.390652 52.096 0.375026 52.0623L0.398466 51.6755C0.398466 51.6307 0.382839 51.6083 0.351587 51.6083C0.335961 51.6083 0.312522 51.6195 0.28127 51.6419C0.203139 51.6419 0.148448 51.6307 0.117196 51.6083C0.0859435 51.5746 0.0546914 51.4962 0.0234392 51.3728C0.00781306 51.2944 0 51.2103 0 51.1206C0 51.0869 0.0312522 51.0701 0.0937566 51.0701C0.187513 51.0365 0.273457 50.958 0.351587 50.8347C0.414092 50.7114 0.468783 50.6497 0.515661 50.6497H0.5391C0.632857 50.6497 0.750053 50.6104 0.890688 50.532C0.953192 50.4871 1.06257 50.4311 1.21884 50.3638C1.3751 50.2853 1.53917 50.2068 1.71106 50.1283C2.02358 50.0274 2.30485 49.9041 2.55487 49.7584L3.3518 49.3548C3.72682 49.2202 4.00028 49.0913 4.17217 48.968C4.29718 48.8783 4.38312 48.7493 4.43 48.5812C4.47688 48.413 4.53938 48.0486 4.61751 47.488L4.9691 45.5708C5.07848 45.1784 5.13317 44.9206 5.13317 44.7972C5.1488 44.6739 5.18005 44.5001 5.22693 44.2759C5.36756 43.6481 5.4457 43.3173 5.46132 43.2837C5.47695 43.25 5.49257 43.1828 5.5082 43.0819C5.5707 42.7007 5.82072 41.6636 6.25825 39.9707L6.35201 39.6007C6.35201 39.5783 6.3442 39.567 6.32857 39.567C6.32857 39.5558 6.32076 39.5502 6.30513 39.5502C6.24263 39.5502 5.95354 39.6343 5.43788 39.8025C5.23474 39.881 5.06286 39.9651 4.92222 40.0548C4.78159 40.1332 4.63314 40.2061 4.47688 40.2734C4.32062 40.3294 4.18779 40.3743 4.07841 40.4079C3.62525 40.52 3.21898 40.7106 2.85958 40.9797C2.73457 41.0582 2.60175 41.0974 2.46111 41.0974C2.13296 41.0974 1.88294 40.9517 1.71106 40.6602C1.60168 40.5032 1.50011 40.3406 1.40635 40.1725C1.32822 39.9931 1.27353 39.8417 1.24227 39.7184L1.21884 39.5166L1.17196 39.2812C1.17196 39.2251 1.20321 39.1971 1.26571 39.1971C1.34384 39.1971 1.38291 39.1746 1.38291 39.1298C1.38291 39.0737 1.42198 39.0177 1.50011 38.9616C1.57824 38.9056 1.65637 38.8775 1.7345 38.8775L1.85169 38.8944C1.94545 38.8944 2.08608 38.8495 2.2736 38.7598C2.77363 38.5356 3.70339 38.2217 5.06286 37.818L6.75047 37.2799C8.01619 36.8202 9.55536 36.383 11.368 35.9681L12.7743 35.6318C13.7432 35.3851 15.212 35.0936 17.1809 34.7573H17.2512H17.1106L17.7669 34.6564C18.7044 34.5218 19.9623 34.4546 21.5406 34.4546C21.7125 34.4658 21.8453 34.4882 21.939 34.5218C22.0328 34.5443 22.1422 34.5891 22.2672 34.6564C22.5485 34.8021 22.6891 34.903 22.6891 34.9591C22.6891 34.9927 22.6344 35.0095 22.525 35.0095C22.4313 35.0095 22.3844 35.032 22.3844 35.0768C22.3844 35.1217 22.4547 35.1889 22.5953 35.2786C22.7516 35.3571 22.8688 35.4748 22.9469 35.6318C22.9782 35.7215 23.0563 35.828 23.1813 35.9513C23.2594 35.9962 23.3063 36.0466 23.322 36.1027C23.322 36.4278 23.2829 36.6576 23.2048 36.7922C23.1579 36.8707 23.0797 36.9548 22.9704 37.0444C22.7203 37.1902 22.5485 37.2631 22.4547 37.2631H22.4313C22.2906 37.2631 22.1969 37.2743 22.15 37.2967C22.1187 37.3079 22.0875 37.3135 22.0562 37.3135C21.9469 37.3135 21.8922 37.2687 21.8922 37.179C21.8922 37.0893 21.8297 37.0444 21.7047 37.0444C21.5953 37.0444 21.525 37.0332 21.4937 37.0108C21.4624 36.9884 21.4468 36.9435 21.4468 36.8763C21.4468 36.7978 21.3999 36.6745 21.3062 36.5063C21.2437 36.4278 21.2124 36.3549 21.2124 36.2877C21.2124 36.2652 21.2202 36.2428 21.2359 36.2204C21.2671 36.1868 21.2827 36.1587 21.2827 36.1363C21.2515 36.0915 21.1499 36.069 20.978 36.069L19.4545 36.1531C18.9701 36.198 18.4779 36.254 17.9778 36.3213C17.8216 36.3437 17.6966 36.3549 17.6028 36.3549C16.5871 36.467 15.7277 36.624 15.0245 36.8258C14.8057 36.8819 14.6963 36.9211 14.6963 36.9435C14.6963 36.9548 14.7198 36.9604 14.7667 36.9604C14.9073 36.9604 15.2433 36.9155 15.7745 36.8258C16.0402 36.7698 16.298 36.7193 16.548 36.6745C16.8137 36.6296 17.0481 36.596 17.2512 36.5736L17.0168 36.6745L16.6418 36.7754C16.5168 36.7754 16.3136 36.809 16.0324 36.8763C15.9542 36.8987 15.8449 36.9211 15.7042 36.9435C15.4542 36.9996 15.2198 37.0444 15.0011 37.0781C14.0947 37.2687 13.165 37.4817 12.2118 37.7171C11.4461 37.9077 10.5867 38.1544 9.63349 38.4571V38.7598C9.63349 39.0401 9.3991 39.9651 8.93032 41.5347C8.82093 41.8598 8.68811 42.269 8.53185 42.7623C8.37559 43.2557 8.29746 43.5359 8.29746 43.6032C8.25058 43.7602 8.21152 43.8555 8.18026 43.8891C8.16464 43.9227 8.13338 44.0124 8.08651 44.1582C8.05525 44.3039 8.03181 44.4665 8.01619 44.6459C7.93806 45.0607 7.88337 45.285 7.85212 45.3186C7.83649 45.341 7.82086 45.3802 7.80524 45.4363C7.80524 45.4812 7.80524 45.526 7.80524 45.5708C7.77398 45.9296 7.71148 46.1819 7.61772 46.3276C7.55522 46.4173 7.52397 46.5743 7.52397 46.7985C7.52397 46.9667 7.50053 47.1517 7.45365 47.3535C7.4224 47.4208 7.40677 47.4712 7.40677 47.5048L7.43021 47.5553L7.57084 47.5048C7.72711 47.4488 7.82868 47.4039 7.87555 47.3703L8.41465 47.1685C8.78968 47.0115 9.09439 46.8938 9.32878 46.8153C9.45379 46.7705 9.53192 46.7481 9.56317 46.7481C9.61005 46.7481 9.80538 46.6808 10.1492 46.5463C10.5554 46.4005 10.7742 46.3276 10.8054 46.3276C10.8367 46.3276 11.1258 46.2491 11.6727 46.0922C12.6571 45.8119 13.4072 45.6718 13.9229 45.6718C14.2041 45.6718 14.4151 45.711 14.5557 45.7895L14.7432 45.924C14.5557 45.8792 14.4463 45.8567 14.4151 45.8567C14.3838 45.8567 14.3604 45.8623 14.3448 45.8736V45.8904C14.3448 46.0473 14.462 46.1538 14.6963 46.2099C14.8682 46.2435 14.9542 46.3052 14.9542 46.3949C14.9542 46.4285 14.962 46.4678 14.9776 46.5126C15.0089 46.5463 15.0401 46.5799 15.0714 46.6135C15.1964 46.7032 15.2589 46.8546 15.2589 47.0676C15.2589 47.1573 15.2354 47.2302 15.1886 47.2862C14.9542 47.4992 14.6338 47.701 14.2276 47.8916L14.0635 47.9421C14.0166 47.8748 13.9307 47.8412 13.8057 47.8412C13.6963 47.8412 13.5635 47.8748 13.4072 47.9421C13.2509 47.9981 13.1181 48.0262 13.0087 48.0262C12.8681 48.0262 12.7978 47.9869 12.7978 47.9085V47.858C12.7978 47.7907 12.7431 47.7459 12.6337 47.7235C12.5868 47.7235 12.5399 47.7179 12.4931 47.7067C12.4618 47.6842 12.4462 47.6618 12.4462 47.6394C12.4462 47.6057 12.4306 47.5889 12.3993 47.5889L12.2587 47.6226C12.2274 47.6226 12.2118 47.6114 12.2118 47.5889C12.2118 47.5553 12.1493 47.5385 12.0243 47.5385C11.8524 47.5385 11.7039 47.5833 11.5789 47.673L11.4852 47.7067C11.4539 47.7067 11.4305 47.701 11.4149 47.6898C11.4149 47.6786 11.4149 47.6674 11.4149 47.6562C11.4149 47.6338 11.4305 47.6057 11.4617 47.5721C11.493 47.5273 11.5086 47.4992 11.5086 47.488H11.4852C11.3914 47.488 11.2039 47.5385 10.9226 47.6394C10.8758 47.6394 10.8133 47.645 10.7351 47.6562C10.657 47.6674 10.5789 47.673 10.5007 47.673C10.2663 47.7067 10.1179 47.7459 10.0554 47.7907C9.99289 47.8356 9.88351 47.8916 9.72725 47.9589C9.24284 48.1495 8.93032 48.2616 8.78968 48.2953C8.7428 48.2953 8.70374 48.2728 8.67248 48.228C8.67248 48.2056 8.72718 48.1663 8.83656 48.1103C9.14908 47.9533 9.3991 47.8636 9.58661 47.8412C9.78975 47.7963 9.9382 47.7515 10.032 47.7067C10.782 47.4039 11.2664 47.2358 11.4852 47.2021C11.6414 47.1797 11.7821 47.1405 11.9071 47.0844C12.0477 47.0171 12.2665 46.9555 12.5634 46.8994C13.1572 46.7537 13.4541 46.6528 13.4541 46.5967C13.4541 46.5855 13.4384 46.5799 13.4072 46.5799C13.2197 46.5799 12.7353 46.6808 11.954 46.8826C10.8914 47.1629 9.96164 47.4544 9.16471 47.7571L7.35989 48.4634C7.26614 48.5195 7.21926 48.5643 7.21926 48.598C7.21926 48.6092 7.22707 48.6204 7.2427 48.6316C7.27395 48.6428 7.3052 48.6484 7.33645 48.6484C7.41458 48.6484 7.52397 48.6204 7.6646 48.5643C7.83649 48.4634 7.96931 48.413 8.06307 48.413C8.17245 48.413 8.23495 48.3906 8.25058 48.3457C8.28183 48.3009 8.30527 48.2784 8.3209 48.2784C8.33652 48.2784 8.35996 48.2897 8.39121 48.3121C8.42247 48.3345 8.43809 48.3569 8.43809 48.3793C8.43809 48.413 8.34434 48.4746 8.15682 48.5643C7.98494 48.6428 7.88337 48.6821 7.85212 48.6821C7.82086 48.6821 7.76617 48.6989 7.68804 48.7325L7.17238 49.0352V49.052C7.17238 49.0745 7.20363 49.0857 7.26614 49.0857C7.35989 49.0857 7.47709 49.0352 7.61772 48.9343C7.77398 48.8222 7.88337 48.7661 7.94587 48.7661C7.97712 48.7661 8.00056 48.7774 8.01619 48.7998C8.01619 48.867 7.9615 48.9231 7.85212 48.968C7.75836 49.0016 7.6646 49.0464 7.57084 49.1025C7.53959 49.1249 7.49271 49.1529 7.43021 49.1866C7.36771 49.2202 7.3052 49.2538 7.2427 49.2875C7.19582 49.3099 7.14113 49.3323 7.07862 49.3548V51.6419C7.09425 53.8282 7.16457 55.0054 7.28958 55.1736C7.3052 55.2184 7.32864 55.2969 7.35989 55.409C7.40677 55.5211 7.44584 55.6501 7.47709 55.7958C7.6021 56.2331 7.75836 56.6423 7.94587 57.0235C8.14901 57.4047 8.39903 57.7578 8.69592 58.083C8.7428 58.1614 8.78187 58.2287 8.81312 58.2848C8.84437 58.3408 8.88344 58.3969 8.93032 58.4529C9.00845 58.5987 9.18815 58.722 9.46942 58.8229C9.65693 58.9014 9.82882 58.9406 9.98508 58.9406C10.3132 58.9406 10.6648 58.879 11.0398 58.7557C11.2117 58.7108 11.3289 58.6716 11.3914 58.6379C11.5477 58.5707 11.6961 58.5258 11.8368 58.5034C12.0555 58.4698 12.3759 58.352 12.7978 58.1502C13.2197 57.9372 13.4384 57.8307 13.4541 57.8307C13.4697 57.8307 13.4775 57.8363 13.4775 57.8475C13.4775 57.8587 13.4541 57.8868 13.4072 57.9316C13.3759 57.9652 13.3056 58.0213 13.1962 58.0998C13.1025 58.167 13.0009 58.2287 12.8915 58.2848C12.7821 58.3408 12.6962 58.3857 12.6337 58.4193L12.5399 58.4866C12.5712 58.4978 12.6103 58.5034 12.6571 58.5034C12.7353 58.5034 12.8837 58.4698 13.1025 58.4025C13.3212 58.3352 13.5556 58.2287 13.8057 58.083C13.9619 57.9821 14.1026 57.9092 14.2276 57.8643L14.4854 57.7971C14.5792 57.7971 14.712 57.7354 14.8839 57.6121L15.4464 57.2757C15.5558 57.2197 15.712 57.0963 15.9152 56.9057C16.1183 56.7151 16.3058 56.5077 16.4777 56.2835L16.6418 56.0985L17.0637 55.6444C17.1106 55.5772 17.134 55.5267 17.134 55.4931C17.134 55.4482 17.1887 55.3866 17.2981 55.3081C17.345 55.2745 17.384 55.2352 17.4153 55.1904C17.4465 55.1343 17.4622 55.0951 17.4622 55.0727C17.4622 54.983 17.509 54.9045 17.6028 54.8372C17.6966 54.7587 17.7434 54.6802 17.7434 54.6018V54.5177C17.7434 54.4616 17.7591 54.4224 17.7903 54.4C17.8372 54.3663 17.8606 54.3215 17.8606 54.2654C17.8606 54.2094 17.8763 54.1533 17.9075 54.0972C17.9544 54.0412 18.0013 53.9907 18.0481 53.9459C18.1106 53.901 18.1653 53.8786 18.2122 53.8786C18.2435 53.8786 18.2591 53.8954 18.2591 53.9291C18.2591 54.0412 18.1341 54.2934 17.8841 54.6859C17.8216 54.8204 17.6419 55.0951 17.345 55.5099C17.2825 55.5772 17.2043 55.6893 17.1106 55.8463C17.0168 55.992 16.9153 56.149 16.8059 56.3171C16.7121 56.4741 16.6184 56.6199 16.5246 56.7544C16.4465 56.8889 16.384 56.9786 16.3371 57.0235C16.3058 57.0571 16.2902 57.0907 16.2902 57.1244V57.2085C16.2902 57.2645 16.2511 57.3318 16.173 57.4103C16.1261 57.4327 16.0871 57.4663 16.0558 57.5112C16.0246 57.556 16.0089 57.6009 16.0089 57.6457C16.0089 57.6793 15.9777 57.6962 15.9152 57.6962C15.8683 57.6962 15.8449 57.7298 15.8449 57.7971C15.8449 57.8531 15.7902 57.9484 15.6808 58.083C15.3683 58.4193 15.0557 58.6884 14.7432 58.8902C14.4932 59.0696 14.0713 59.2882 13.4775 59.5461C13.0087 59.7591 12.6571 59.8824 12.4227 59.9161C12.2665 59.9385 12.0633 59.9553 11.8133 59.9665C11.5633 59.9889 11.3367 60.0001 11.1336 60.0001ZM10.196 37.734C10.2273 37.734 10.321 37.7059 10.4773 37.6499C10.6492 37.5826 10.7351 37.5434 10.7351 37.5321H10.7117C10.6961 37.5321 10.6492 37.5434 10.5711 37.5658C10.4929 37.5882 10.4226 37.6106 10.3601 37.6331C10.2976 37.6443 10.2507 37.6611 10.2195 37.6835C10.1882 37.7059 10.1726 37.7227 10.1726 37.734H10.196ZM9.49285 37.5826C9.91476 37.5602 10.2273 37.5153 10.4304 37.4481C11.2899 37.1902 11.7821 37.0613 11.9071 37.0613L11.9305 37.0781C11.9305 37.1229 11.8368 37.179 11.6493 37.2463C11.4774 37.3135 11.3914 37.3584 11.3914 37.3808C11.3914 37.392 11.4071 37.3976 11.4383 37.3976C11.5946 37.3976 11.9149 37.3359 12.3993 37.2126C12.8837 37.0781 13.2041 36.994 13.3603 36.9604C13.5009 36.9043 13.5713 36.8538 13.5713 36.809C13.5713 36.7529 13.9072 36.6408 14.5791 36.4727C15.0792 36.3381 15.4073 36.2708 15.5636 36.2708C15.6261 36.2708 15.6574 36.2877 15.6574 36.3213C15.6574 36.3437 15.6261 36.3549 15.5636 36.3549C15.5011 36.3549 15.423 36.3661 15.3292 36.3886C15.2511 36.411 15.1651 36.439 15.0714 36.4727C14.9776 36.5063 14.9307 36.5287 14.9307 36.5399C14.9307 36.5511 14.9464 36.5567 14.9776 36.5567C15.1026 36.5567 15.3917 36.5063 15.8449 36.4054C16.298 36.3045 17.0481 36.1812 18.095 36.0354L19.5248 35.8168L19.5014 35.8L18.892 35.8672L18.5404 35.884C18.6966 35.7271 18.8529 35.6486 19.0091 35.6486L19.1263 35.6654C19.1732 35.6654 19.2201 35.6486 19.267 35.615C19.4389 35.5365 19.7748 35.4972 20.2749 35.4972C20.5093 35.486 20.689 35.4748 20.814 35.4636C20.939 35.4524 21.064 35.4412 21.189 35.43C21.5953 35.4188 21.7984 35.4019 21.7984 35.3795C21.7984 35.3235 21.525 35.2954 20.978 35.2954C19.3685 35.2954 17.7669 35.4524 16.173 35.7663C15.5323 35.9009 14.8292 36.0578 14.0635 36.2372L12.0008 36.6913L9.51629 37.364C9.20377 37.4761 9.04751 37.5434 9.04751 37.5658C9.04751 37.577 9.09439 37.5826 9.18815 37.5826H9.49285ZM7.80524 37.3808C7.86774 37.3808 7.90681 37.3752 7.92243 37.364C7.95368 37.3528 8.03182 37.3416 8.15682 37.3303C8.29746 37.3191 8.45372 37.3079 8.62561 37.2967C9.06314 37.2967 9.35222 37.2519 9.49285 37.1622L9.68037 37.0781L9.79756 37.0613C9.86007 37.0613 9.9382 37.0501 10.032 37.0276C10.1413 36.994 10.2663 36.9548 10.407 36.9099C10.8289 36.7305 11.2274 36.6296 11.6024 36.6072L12.2587 36.4222L12.9384 36.3213C13.079 36.2877 13.1572 36.2708 13.1728 36.2708C13.2041 36.2708 13.3447 36.2316 13.5947 36.1531C13.9854 36.0298 14.3057 35.9457 14.5557 35.9009C14.7276 35.8784 14.9151 35.8448 15.1182 35.8C15.337 35.7551 15.5245 35.7215 15.6808 35.6991C16.6027 35.5197 17.5169 35.3571 18.4232 35.2114C18.4388 35.2226 18.4622 35.2282 18.4935 35.2282C18.5247 35.2282 18.5794 35.217 18.6576 35.1945C18.892 35.1385 19.3217 35.088 19.9467 35.0432L20.3452 35.0095C20.3764 34.9983 20.4702 34.9927 20.6264 34.9927L21.6109 35.0095C21.7515 35.0095 21.8218 34.9815 21.8218 34.9255C21.8218 34.8918 21.7593 34.8526 21.6343 34.8077C21.5093 34.7517 21.3296 34.7124 21.0952 34.69C20.9858 34.6788 20.6655 34.6732 20.1342 34.6732C19.4311 34.6732 18.8451 34.7012 18.3763 34.7573L17.3684 34.8918C16.9465 34.9367 16.6262 34.9815 16.4074 35.0264C16.3136 35.06 16.2199 35.088 16.1261 35.1104C16.048 35.1217 15.8996 35.1497 15.6808 35.1945C15.4777 35.2282 15.2511 35.2674 15.0011 35.3123L13.876 35.5309C12.7196 35.8 12.0712 35.9625 11.9305 36.0186L11.3211 36.1531C11.118 36.198 10.7664 36.2877 10.2663 36.4222C9.17252 36.7025 8.3209 36.9548 7.71148 37.179C7.50834 37.2463 7.40677 37.3023 7.40677 37.3472C7.45365 37.3696 7.54741 37.3808 7.68804 37.3808H7.80524ZM7.40677 48.1775C7.46928 48.1775 7.80524 48.043 8.41465 47.7739C8.96157 47.5497 9.2819 47.4376 9.37566 47.4376C9.48504 47.4376 9.53973 47.4151 9.53973 47.3703C9.53973 47.3255 9.56317 47.303 9.61005 47.303C9.67255 47.303 9.90695 47.2358 10.3132 47.1012C11.6102 46.6752 12.5165 46.4173 13.0322 46.3276C13.5947 46.2604 13.876 46.1707 13.876 46.0585C13.876 45.9801 13.751 45.9408 13.5009 45.9408C13.1884 45.9408 12.579 46.0473 11.6727 46.2604C10.782 46.4734 9.59443 46.8602 8.10995 47.4208C7.60991 47.6114 7.34427 47.7347 7.31301 47.7907C7.29739 47.8356 7.28958 47.8972 7.28958 47.9757C7.28958 48.1103 7.32864 48.1775 7.40677 48.1775ZM6.63328 38.4403C6.68016 38.4403 6.7036 38.4179 6.7036 38.373C6.7036 38.3282 6.68016 38.3057 6.63328 38.3057C6.5864 38.3057 6.56296 38.3282 6.56296 38.373C6.56296 38.4179 6.5864 38.4403 6.63328 38.4403ZM4.80503 38.4403L5.13317 38.3898C5.36756 38.3562 5.60196 38.2945 5.83635 38.2048C6.07074 38.1151 6.21919 38.0703 6.28169 38.0703C6.35982 38.0703 6.41451 38.0647 6.44577 38.0535C6.49264 38.0311 6.51608 38.0086 6.51608 37.9862C6.56296 37.9189 6.61765 37.8853 6.68016 37.8853C6.75829 37.8853 6.79735 37.8124 6.79735 37.6667V37.4649L6.4692 37.5994C6.26607 37.7003 6.11762 37.7508 6.02386 37.7508C5.94573 37.7508 5.90667 37.7732 5.90667 37.818C5.90667 37.8629 5.8676 37.9077 5.78947 37.9526C5.58633 38.0871 5.42226 38.1544 5.29725 38.1544C5.23474 38.1544 5.07067 38.2497 4.80503 38.4403ZM3.30492 50.347C3.33617 50.347 3.52369 50.2741 3.86746 50.1283C4.21123 49.9714 4.38312 49.8817 4.38312 49.8593C4.38312 49.8481 4.37531 49.8425 4.35968 49.8425C4.26592 49.8425 4.11748 49.8985 3.91434 50.0106C3.49243 50.2124 3.28148 50.3246 3.28148 50.347H3.30492ZM1.78138 50.717L1.99233 50.6161C2.05483 50.5824 2.13296 50.5488 2.22672 50.5152L2.67206 50.2965C2.95333 50.1508 3.11741 50.0611 3.16428 50.0274C3.21116 49.9938 3.42212 49.8873 3.79714 49.7079C3.9534 49.6519 4.08622 49.5902 4.19561 49.5229C4.32062 49.4557 4.38312 49.394 4.38312 49.3379L4.35968 49.3211L4.28936 49.3716C4.22686 49.4052 4.17998 49.422 4.14873 49.422C4.1331 49.422 4.11748 49.422 4.10185 49.422C4.0706 49.422 4.05497 49.4052 4.05497 49.3716C4.05497 49.3604 4.07841 49.3491 4.12529 49.3379C4.17217 49.3155 4.21905 49.2875 4.26592 49.2538C4.32843 49.2202 4.37531 49.1922 4.40656 49.1698C4.43781 49.1361 4.45344 49.1081 4.45344 49.0857C4.45344 49.0745 4.45344 49.0689 4.45344 49.0689H4.43C4.38312 49.0689 4.27374 49.1025 4.10185 49.1698C3.63307 49.3604 2.96896 49.7023 2.10952 50.1956L2.03921 50.2293C1.94545 50.2965 1.89857 50.3358 1.89857 50.347C1.94545 50.347 2.03921 50.3133 2.17984 50.2461C2.25797 50.19 2.32829 50.162 2.39079 50.162C2.40642 50.162 2.41423 50.1676 2.41423 50.1788C2.42986 50.19 2.43767 50.2012 2.43767 50.2124C2.40642 50.2797 2.21109 50.4255 1.85169 50.6497L1.78138 50.7001V50.717ZM17.509 35.3123H17.4856L18.1888 35.1945C18.1419 35.2506 17.9153 35.2898 17.509 35.3123ZM18.4232 35.2114L18.3763 35.1777L18.9623 35.0936V35.1104L18.4232 35.2114Z" fill="#FAF9FF"/>
<path d="M26.8704 55.6276H26.8235C26.761 55.6276 26.6829 55.6052 26.5891 55.5604C26.511 55.5155 26.4329 55.4931 26.3548 55.4931C26.3235 55.4931 26.2923 55.4987 26.261 55.5099C26.2454 55.5211 26.2219 55.5267 26.1907 55.5267C26.1594 55.5267 26.1126 55.4931 26.05 55.4258C26.0032 55.3473 25.9172 55.3081 25.7922 55.3081C25.6828 55.3081 25.5578 55.196 25.4172 54.9717C25.2453 54.6915 25.0969 54.243 24.9718 53.6264C24.9718 53.5815 24.964 53.5423 24.9484 53.5086C24.9172 53.3068 24.9015 53.0153 24.9015 52.6341C24.9015 51.4457 25.0109 50.0499 25.2297 48.4466L25.089 48.6484C24.9484 48.8054 24.8547 48.9287 24.8078 49.0184C24.7765 49.1081 24.7609 49.237 24.7609 49.4052C24.7609 49.5734 24.7296 49.6967 24.6671 49.7752C24.6046 49.8425 24.4874 49.8929 24.3155 49.9265C24.1593 49.949 24.0812 49.9882 24.0812 50.0443L24.1046 50.0779L23.9405 50.2965C23.8311 50.4535 23.7765 50.5544 23.7765 50.5992C23.7765 50.6441 23.7452 50.6721 23.6827 50.6833C23.6202 50.6945 23.5889 50.7338 23.5889 50.801C23.6046 50.8235 23.6124 50.8515 23.6124 50.8851C23.6124 50.9076 23.5968 50.93 23.5655 50.9524C23.4874 51.0645 23.4092 51.2047 23.3311 51.3728C23.2217 51.6083 23.1436 51.7428 23.0967 51.7765C23.0498 51.8101 22.9639 51.9558 22.8389 52.2137C22.5889 52.651 22.2842 53.1106 21.9248 53.5927C21.5341 54.0524 21.3388 54.3047 21.3388 54.3495C21.3388 54.3831 21.3232 54.4224 21.2919 54.4672C21.2763 54.5009 21.1591 54.5962 20.9403 54.7531C20.7997 54.854 20.7294 54.9213 20.7294 54.9549C20.7294 54.9886 20.6747 55.0054 20.5653 55.0054C20.2684 55.0054 20.0418 54.9718 19.8856 54.9045C19.7918 54.8484 19.7137 54.8204 19.6512 54.8204L19.5808 54.8372C19.5027 54.8372 19.4402 54.7924 19.3933 54.7027C19.2839 54.5906 19.1746 54.5345 19.0652 54.5345C18.9714 54.5345 18.8152 54.3159 18.5964 53.8786C18.5339 53.7441 18.5026 53.5255 18.5026 53.2227C18.5026 52.7743 18.5573 52.2698 18.6667 51.7092C18.823 51.0141 19.0496 50.3582 19.3465 49.7416C19.659 49.1137 19.9481 48.7045 20.2137 48.5139C20.2918 48.469 20.3309 48.4242 20.3309 48.3793L20.3075 48.3121C20.3075 48.2784 20.3543 48.2616 20.4481 48.2616C20.5418 48.2616 20.5887 48.2448 20.5887 48.2112C20.5887 48.1775 20.8153 48.0822 21.2685 47.9253C21.4872 47.858 21.8076 47.8244 22.2295 47.8244C22.4795 47.8356 22.6826 47.858 22.8389 47.8916C22.9951 47.9141 23.2061 47.9757 23.4717 48.0766C23.503 48.0991 23.6514 48.1495 23.9171 48.228C23.9952 48.2616 24.0499 48.284 24.0812 48.2953H24.128L24.1749 48.2784L24.1515 48.2448C24.1515 48.1775 24.5031 47.7683 25.2062 47.0171C25.5188 46.692 25.7141 46.5294 25.7922 46.5294C25.8235 46.5294 25.8391 46.5519 25.8391 46.5967C25.8391 46.6416 25.9016 46.664 26.0266 46.664C26.1516 46.664 26.2297 46.6472 26.261 46.6135C26.2923 46.5799 26.3235 46.5631 26.3548 46.5631C26.4485 46.5631 26.4954 46.5855 26.4954 46.6303V46.7312C26.4954 46.7425 26.4954 46.7481 26.4954 46.7481C26.511 46.7481 26.5345 46.7481 26.5657 46.7481L26.8939 46.7312C27.0189 46.7312 27.0814 46.7705 27.0814 46.849C27.0814 46.8714 27.0736 46.905 27.0579 46.9499C27.0423 46.9835 27.0345 47.034 27.0345 47.1012C27.0345 47.1573 27.0423 47.2133 27.0579 47.2694C27.0892 47.3255 27.1048 47.4151 27.1048 47.5385C27.1048 47.7403 27.0814 48.0542 27.0345 48.4802C26.9564 49.1754 26.9095 49.5734 26.8939 49.6743C26.8939 49.7752 26.8939 50.532 26.8939 51.9446V52.8696C26.8939 53.1274 26.8939 53.3853 26.8939 53.6432C26.8939 53.901 26.9251 54.1309 26.9876 54.3327C27.0501 54.5345 27.1517 54.7812 27.2923 55.0727C27.3705 55.2408 27.4095 55.3642 27.4095 55.4426C27.4095 55.5323 27.3314 55.5772 27.1751 55.5772C27.0189 55.5772 26.9173 55.594 26.8704 55.6276ZM20.6356 53.0882C20.6512 53.0882 20.6747 53.0714 20.7059 53.0378C20.7997 52.9368 21.2294 52.3314 21.9951 51.2215L23.167 49.5229C23.1045 49.3996 23.042 49.2875 22.9795 49.1866C22.917 49.0857 22.8545 48.996 22.792 48.9175C22.7451 48.8278 22.7061 48.7717 22.6748 48.7493C22.6436 48.7269 22.6123 48.7157 22.5811 48.7157C22.5654 48.7157 22.5342 48.7213 22.4873 48.7325C22.456 48.7437 22.2607 49.0016 21.9013 49.5061C21.245 50.4703 20.8309 51.569 20.659 52.8023C20.6278 52.9144 20.6122 52.9929 20.6122 53.0378C20.6122 53.0714 20.62 53.0882 20.6356 53.0882ZM21.3153 52.8191V52.8023C21.331 52.8023 21.4013 52.7519 21.5263 52.651C21.7294 52.5052 21.8466 52.3707 21.8779 52.2473C21.956 52.1016 22.0185 52.0119 22.0654 51.9783C22.1123 51.9446 22.1513 51.8717 22.1826 51.7596C22.2295 51.6475 22.2763 51.5915 22.3232 51.5915C22.3857 51.5915 22.417 51.5466 22.417 51.4569C22.417 51.3672 22.4795 51.2551 22.6045 51.1206C22.7295 50.9748 22.792 50.8795 22.792 50.8347C22.792 50.7898 22.8389 50.717 22.9326 50.6161C23.042 50.5039 23.1123 50.4142 23.1436 50.347C23.1905 50.2685 23.2374 50.2124 23.2842 50.1788C23.378 50.0891 23.4327 50.0106 23.4483 49.9434C23.4483 49.8873 23.4171 49.8481 23.3545 49.8256H23.3311C23.253 49.8256 23.042 50.0779 22.6983 50.5824C22.5107 50.8403 22.3389 51.0982 22.1826 51.356C21.7763 51.9614 21.5732 52.2866 21.5732 52.3314L21.6904 52.3146C21.6904 52.3258 21.6669 52.3482 21.62 52.3819C21.5732 52.4043 21.5419 52.4267 21.5263 52.4491V52.466C21.5575 52.466 21.5732 52.4716 21.5732 52.4828L21.5497 52.4996C21.5185 52.5108 21.4872 52.5388 21.456 52.5837C21.4247 52.6173 21.3935 52.6622 21.3622 52.7182C21.331 52.7631 21.3153 52.7967 21.3153 52.8191ZM24.3624 48.5812C24.3781 48.5812 24.4171 48.5195 24.4796 48.3962C24.5578 48.2728 24.6203 48.2112 24.6671 48.2112C24.7296 48.2112 24.7609 48.1831 24.7609 48.1271C24.7609 48.071 24.7843 48.043 24.8312 48.043C24.8781 48.043 24.9093 48.015 24.925 47.9589C24.9562 47.9029 25.0812 47.7515 25.3 47.5048C25.425 47.3142 25.4875 47.1629 25.4875 47.0508C25.4875 47.0171 25.4797 47.0003 25.4641 47.0003C25.4172 47.0003 25.3781 47.0396 25.3469 47.118C25.2687 47.2302 25.1906 47.3142 25.1125 47.3703C25.0031 47.4824 24.8859 47.617 24.7609 47.7739C24.4484 48.1551 24.2921 48.3906 24.2921 48.4802V48.4971C24.3234 48.5531 24.3468 48.5812 24.3624 48.5812ZM25.3469 52.6173C25.3625 52.6173 25.4094 52.0399 25.4875 50.8851C25.55 49.9994 25.6125 49.3435 25.675 48.9175C25.7844 48.4466 25.8391 48.1271 25.8391 47.9589L25.8157 47.9421C25.7688 47.9645 25.6516 48.6484 25.4641 49.9938C25.4172 50.2741 25.3938 50.5936 25.3938 50.9524C25.3781 51.1654 25.3703 51.4177 25.3703 51.7092L25.3469 52.6173Z" fill="#FAF9FF"/>
<path d="M30.7981 55.779C30.6887 55.779 30.5872 55.779 30.4934 55.779C30.4153 55.7678 30.3684 55.7566 30.3528 55.7453C30.3372 55.7229 30.2981 55.7061 30.2356 55.6949C30.1887 55.6725 30.1262 55.6613 30.0481 55.6613C29.9856 55.65 29.9231 55.6332 29.8606 55.6108C29.7981 55.5772 29.7512 55.5435 29.7199 55.5099C29.6887 55.4763 29.6652 55.4595 29.6496 55.4595C29.634 55.4482 29.6027 55.437 29.5558 55.4258H29.5324C29.4855 55.4258 29.3605 55.3642 29.1574 55.2408C29.0793 55.1736 28.9855 55.1175 28.8761 55.0727C28.7824 55.0166 28.7277 54.983 28.712 54.9717C28.6808 54.9493 28.6652 54.9213 28.6652 54.8877C28.6652 54.8652 28.6808 54.854 28.712 54.854C28.7433 54.854 28.7589 54.6018 28.7589 54.0972C28.7589 53.873 28.7745 53.6432 28.8058 53.4077C28.8214 53.1723 28.8527 52.9761 28.8996 52.8191C29.0402 52.2137 29.1183 51.7372 29.1339 51.3897C29.1652 50.8851 29.2199 50.3246 29.298 49.7079C29.3918 49.0801 29.4777 48.5251 29.5558 48.043C29.6496 47.5609 29.7277 47.2806 29.7902 47.2021L29.8137 47.1349C29.8137 47.1124 29.7981 47.1012 29.7668 47.1012C29.7355 47.1012 29.7199 47.0844 29.7199 47.0508C29.7199 46.9835 29.759 46.9162 29.8371 46.849C29.9309 46.7705 30.0403 46.7144 30.1653 46.6808C30.3059 46.6359 30.4231 46.6135 30.5169 46.6135C30.5637 46.6135 30.6028 46.6191 30.634 46.6303C30.6653 46.6416 30.8372 46.664 31.1497 46.6976C31.3997 46.7088 31.5872 46.7368 31.7123 46.7817C31.8373 46.8265 31.931 46.8938 31.9935 46.9835C32.056 47.062 32.0873 47.1236 32.0873 47.1685C32.0873 47.2246 32.0638 47.2918 32.017 47.3703C31.9857 47.4488 31.9232 47.7179 31.8294 48.1775C31.7513 48.6372 31.7123 48.8951 31.7123 48.9511V49.0016C31.7279 49.0016 31.7826 48.9399 31.8763 48.8166C32.6264 47.886 33.2749 47.4208 33.8218 47.4208C33.9312 47.4208 34.0327 47.4376 34.1265 47.4712C34.2359 47.5048 34.3374 47.5273 34.4312 47.5385L34.6421 47.5889C35.1422 47.7235 35.4547 47.83 35.5797 47.9085C35.7203 47.9757 35.8532 48.0822 35.9782 48.228C36.1969 48.441 36.4704 48.6765 36.7985 48.9343C37.0798 49.1361 37.2673 49.2595 37.3611 49.3043H37.5252C37.6345 49.2819 37.7127 49.2538 37.7595 49.2202C37.7595 49.209 37.783 49.1922 37.8299 49.1698C37.8924 49.1473 37.9627 49.1305 38.0408 49.1193C38.2127 49.0857 38.369 48.9848 38.5096 48.8166C38.5877 48.6821 38.6581 48.6148 38.7206 48.6148C38.7518 48.6148 38.7831 48.626 38.8143 48.6484C38.8612 48.6708 38.9003 48.6933 38.9315 48.7157C38.9784 48.7269 39.0096 48.7325 39.0253 48.7325C39.0565 48.7325 39.0956 48.7549 39.1425 48.7998C39.205 48.8334 39.2597 48.8727 39.3065 48.9175C39.369 48.9623 39.4081 48.996 39.4237 49.0184C39.4394 49.0296 39.455 49.0632 39.4706 49.1193C39.4706 49.1305 39.4706 49.1473 39.4706 49.1698C39.4862 49.181 39.5253 49.1922 39.5878 49.2034C39.6503 49.2146 39.6816 49.2538 39.6816 49.3211C39.6816 49.5005 39.5097 49.6911 39.1659 49.8929C38.9784 49.9938 38.7284 50.0443 38.4158 50.0443C38.1658 50.0443 37.8689 50.0106 37.5252 49.9434C37.2908 49.8873 37.1111 49.8593 36.9861 49.8593H36.9626C36.8689 49.8593 36.5876 49.7472 36.1188 49.5229C35.8688 49.422 35.6344 49.3155 35.4156 49.2034C34.6656 48.8222 34.2906 48.5699 34.2906 48.4466V48.4298C34.3531 48.441 34.3843 48.4466 34.3843 48.4466L34.6656 48.6484C34.6968 48.6933 34.7125 48.7213 34.7125 48.7325C34.7125 48.7437 34.7203 48.7549 34.7359 48.7661C34.7672 48.7774 34.8531 48.8166 34.9937 48.8839H35.0172C35.0172 48.8727 34.9703 48.8334 34.8765 48.7661C34.814 48.7213 34.7515 48.6596 34.689 48.5812L34.3609 48.2616C34.3452 48.2504 34.3218 48.2448 34.2906 48.2448H34.2437C34.2281 48.2448 34.1968 48.2616 34.1499 48.2953C34.0249 48.3513 33.9624 48.3906 33.9624 48.413C33.9624 48.4354 33.939 48.4802 33.8921 48.5475C33.5796 48.8839 33.4233 49.0633 33.4233 49.0857C33.4233 49.0969 33.4077 49.1249 33.3764 49.1698C33.3452 49.2034 33.3139 49.2482 33.2827 49.3043C33.267 49.3043 33.2592 49.3099 33.2592 49.3211C33.1811 49.4108 33.0639 49.579 32.9076 49.8256C32.517 50.4759 32.2826 50.9076 32.2045 51.1206L32.1342 51.2719C32.1029 51.2944 32.056 51.3897 31.9935 51.5578C31.9466 51.6475 31.8919 51.7765 31.8294 51.9446C31.7669 52.1128 31.681 52.337 31.5716 52.6173C31.2435 53.503 31.0794 54.1365 31.0794 54.5177L31.1028 54.8204C31.1028 55.168 31.1263 55.4258 31.1731 55.594V55.7117C31.1575 55.7341 31.0325 55.7566 30.7981 55.779ZM29.5793 53.1555C29.6105 53.1555 29.6262 53.1162 29.6262 53.0378C29.6262 52.9817 29.6105 52.9537 29.5793 52.9537L29.5324 52.9873C29.5012 53.0097 29.4933 53.0378 29.509 53.0714C29.509 53.0826 29.5168 53.0994 29.5324 53.1218C29.548 53.1443 29.5637 53.1555 29.5793 53.1555ZM29.6965 51.5578C29.7434 51.5354 29.7668 51.513 29.7668 51.4906C29.7668 51.4793 29.7434 51.4737 29.6965 51.4737C29.6496 51.4737 29.6262 51.4906 29.6262 51.5242C29.6262 51.5466 29.634 51.5578 29.6496 51.5578H29.6965ZM31.7591 51.0869C31.7748 51.0869 31.7982 51.0757 31.8294 51.0533C31.8607 51.0309 31.9154 50.9412 31.9935 50.7842C32.0091 50.717 32.0404 50.6441 32.0873 50.5656L32.3685 50.0947C32.5717 49.7023 32.8295 49.2931 33.142 48.867C33.1733 48.8446 33.2124 48.8054 33.2592 48.7493C33.3061 48.6933 33.353 48.6428 33.3999 48.598C33.5249 48.4859 33.5874 48.4074 33.5874 48.3625C33.5874 48.3177 33.6421 48.2616 33.7515 48.1944C33.8765 48.1159 33.939 48.0486 33.939 47.9925H33.9155C33.7905 47.9925 33.4858 48.2953 33.0014 48.9007C32.642 49.3491 32.2357 50.0611 31.7826 51.0365L31.7591 51.0869ZM33.0014 48.0598L33.1655 47.9421C33.2905 47.8748 33.353 47.8244 33.353 47.7907V47.7739C33.2905 47.7739 33.228 47.8076 33.1655 47.8748C33.0405 47.9421 32.978 47.9981 32.978 48.043C32.978 48.0542 32.9858 48.0598 33.0014 48.0598ZM32.2045 48.9007C32.2201 48.9007 32.2514 48.8839 32.2982 48.8502C32.3451 48.8054 32.3998 48.7437 32.4623 48.6652C32.5404 48.5755 32.6108 48.4915 32.6733 48.413C32.7514 48.3233 32.8061 48.2504 32.8373 48.1944C32.8686 48.1383 32.8842 48.1047 32.8842 48.0934C32.853 48.0934 32.7279 48.2168 32.5092 48.4634C32.306 48.7101 32.2045 48.8502 32.2045 48.8839V48.9007ZM31.5716 50.4815C31.6185 50.4815 31.7044 50.3918 31.8294 50.2124C31.9857 49.9546 32.0717 49.7808 32.0873 49.6911C32.1185 49.6014 32.1498 49.5453 32.181 49.5229C32.2279 49.4893 32.3451 49.3379 32.5326 49.0689C32.6576 48.8783 32.7905 48.7045 32.9311 48.5475C33.1967 48.3009 33.3686 48.1159 33.4467 47.9925L33.5171 47.8916C33.3921 47.9477 33.2045 48.1047 32.9545 48.3625C32.7201 48.6204 32.5092 48.8895 32.3217 49.1698C32.0404 49.551 31.8998 49.764 31.8998 49.8088C31.8998 49.8425 31.8451 49.949 31.7357 50.1283C31.6263 50.2629 31.5716 50.3806 31.5716 50.4815ZM31.5482 51.6251C31.5951 51.6251 31.6263 51.5915 31.6419 51.5242C31.6732 51.4569 31.7122 51.3392 31.7591 51.171L31.6419 51.3392C31.5794 51.4401 31.5404 51.5186 31.5247 51.5746C31.5247 51.6083 31.5325 51.6251 31.5482 51.6251Z" fill="#FAF9FF"/>
<path d="M39.3867 39.1634C39.3711 39.1634 39.3633 39.1578 39.3633 39.1466C39.3633 39.1354 39.3867 39.1242 39.4336 39.113C39.4649 39.0906 39.4961 39.0793 39.5274 39.0793C39.5586 39.0793 39.5743 39.085 39.5743 39.0962L39.5274 39.1298C39.4961 39.1522 39.4492 39.1634 39.3867 39.1634ZM39.082 40.6265C39.0195 40.6265 38.9883 40.6209 38.9883 40.6097L39.0352 40.5761C39.0508 40.5649 39.0898 40.5593 39.1523 40.5593C39.1836 40.5593 39.1992 40.5649 39.1992 40.5761C39.1992 40.6097 39.1602 40.6265 39.082 40.6265ZM41.8947 58.9575H41.8479C41.7541 58.9575 41.6291 58.9463 41.4728 58.9238H41.4259C41.2228 58.879 41.1212 58.8397 41.1212 58.8061C41.1212 58.7725 41.1056 58.722 41.0744 58.6548C40.9337 58.4529 40.84 58.3016 40.7931 58.2007C40.7618 58.0998 40.715 57.7802 40.6525 57.2421C40.6212 56.6479 40.5821 56.2387 40.5353 56.0144C40.4571 55.1063 40.4181 53.9459 40.4181 52.5332C40.4181 51.1206 40.4571 49.7752 40.5353 48.4971C40.5821 48.1271 40.6056 47.7291 40.6056 47.303C40.6368 46.7761 40.6915 46.3108 40.7696 45.9072L40.7931 45.8567C40.84 45.5652 40.8868 45.2681 40.9337 44.9654C40.9962 44.6515 41.0665 44.1974 41.1447 43.6032L41.4728 41.8374C41.7385 40.6938 41.8713 40.0379 41.8713 39.8698C41.8713 39.8473 41.8479 39.8361 41.801 39.8361C41.7385 39.8361 41.5822 39.8698 41.3322 39.937C41.2697 39.9707 41.1447 39.9875 40.9572 39.9875C40.4728 40.1557 40.1368 40.2566 39.9493 40.2902C39.7461 40.3126 39.5352 40.3575 39.3164 40.4247C39.082 40.492 38.918 40.5537 38.8242 40.6097C38.6992 40.6994 38.1054 40.89 37.0428 41.1815C36.1365 41.4282 35.574 41.5907 35.3552 41.6692C35.324 41.6916 35.1364 41.7589 34.7927 41.871C34.5114 41.9383 34.1207 42.0616 33.6207 42.241C33.3082 42.3531 33.0894 42.426 32.9644 42.4596C32.8238 42.4821 32.6675 42.4933 32.4956 42.4933C32.2144 42.4596 32.0737 42.2018 32.0737 41.7197L32.0503 41.6188V41.5347C32.0503 41.501 32.0347 41.4786 32.0034 41.4674C31.9565 41.445 31.9331 41.417 31.9331 41.3833C31.9331 41.3161 31.98 41.2376 32.0737 41.1479C32.1987 40.9573 32.3316 40.862 32.4722 40.862C32.5347 40.862 32.5972 40.8564 32.6597 40.8452C32.7066 40.8227 32.7378 40.8003 32.7535 40.7779C32.8628 40.6994 33.9645 40.3687 36.0584 39.7857C37.8085 39.3148 39.4805 38.9168 41.0744 38.5916C41.4025 38.5244 41.676 38.4627 41.8947 38.4067C41.9572 38.3954 42.0041 38.3898 42.0354 38.3898C42.0666 38.3786 42.0979 38.373 42.1291 38.373C42.1604 38.3618 42.1994 38.345 42.2463 38.3226C42.3088 38.3001 42.3791 38.1824 42.4573 37.9694C42.5041 37.8461 42.637 37.4144 42.8557 36.6745C42.9026 36.5511 42.9417 36.4222 42.9729 36.2877L43.5823 34.2696C43.5823 34.2135 43.5745 34.1687 43.5589 34.135C43.5589 34.0453 43.5823 33.9781 43.6292 33.9332C43.6761 33.8772 43.6995 33.8379 43.6995 33.8155L43.6761 33.7482C43.6605 33.7146 43.6683 33.6866 43.6995 33.6642C43.7464 33.6305 43.7699 33.6025 43.7699 33.5801L43.7464 33.5464C43.7464 33.524 43.762 33.5016 43.7933 33.4792C43.8246 33.4567 43.9886 33.4455 44.2855 33.4455L44.5199 33.4287C44.8481 33.4287 45.3012 33.5576 45.8794 33.8155C46.0981 33.9276 46.2075 34.1238 46.2075 34.4041C46.2075 34.5274 46.1763 34.6564 46.1138 34.7909L45.9731 35.3123C45.9106 35.5589 45.8559 35.7495 45.8091 35.884C45.6216 36.2877 45.4653 36.7361 45.3403 37.2294C45.2621 37.4761 45.2231 37.6387 45.2231 37.7171C45.2231 37.7732 45.2309 37.8012 45.2465 37.8012C45.2778 37.8012 45.3012 37.8012 45.3168 37.8012L45.8794 37.7508C45.9106 37.7508 45.9263 37.7564 45.9263 37.7676H45.9497L45.8559 37.8012C45.7778 37.8236 45.5512 37.8629 45.1762 37.9189C45.145 38.0086 45.1059 38.1039 45.059 38.2048C45.0278 38.3057 45.0121 38.401 45.0121 38.4907C45.1059 38.4907 45.2543 38.4795 45.4575 38.4571C46.2232 38.3338 47.0045 38.2273 47.8014 38.1376L49.3249 37.9526C49.6531 37.9302 50.075 37.8853 50.5907 37.818C51.1063 37.7396 51.4501 37.7003 51.622 37.7003C51.7157 37.7003 51.7626 37.7115 51.7626 37.734C51.7626 37.7452 51.7157 37.762 51.622 37.7844C51.5282 37.7956 51.4032 37.8068 51.2469 37.818C50.8407 37.8517 49.5046 38.0086 47.2389 38.2889L46.395 38.4067C45.8169 38.4851 45.434 38.5468 45.2465 38.5916C45.059 38.6365 44.9496 38.6925 44.9184 38.7598C44.9184 38.7934 44.9262 38.8271 44.9418 38.8607C44.9574 38.8831 44.9731 38.8944 44.9887 38.8944C45.0356 38.8944 45.059 38.8719 45.059 38.8271C45.059 38.7822 45.1918 38.7598 45.4575 38.7598C45.5356 38.7598 45.5903 38.7654 45.6216 38.7766C45.6528 38.7878 45.6919 38.7935 45.7387 38.7935C45.7856 38.7935 45.8481 38.7822 45.9263 38.7598C46.0044 38.7374 46.3247 38.7038 46.8873 38.6589C47.0279 38.6253 47.106 38.5972 47.1217 38.5748C47.1373 38.5524 47.2232 38.5412 47.3795 38.5412L47.5436 38.558C47.6217 38.558 47.6608 38.5468 47.6608 38.5244C47.6608 38.4907 47.6764 38.4739 47.7076 38.4739H47.7545C47.7701 38.4739 47.7858 38.4739 47.8014 38.4739C47.817 38.4739 47.8248 38.4683 47.8248 38.4571C47.8405 38.4459 47.8795 38.4403 47.942 38.4403C48.0202 38.4291 48.0827 38.4235 48.1295 38.4235C48.192 38.4235 48.2467 38.4291 48.2936 38.4403C48.5749 38.4403 48.7155 38.4291 48.7155 38.4067C48.7155 38.373 48.7936 38.3562 48.9499 38.3562C49.1218 38.3562 49.2312 38.345 49.2781 38.3226C49.3406 38.3001 49.3796 38.2889 49.3953 38.2889C49.4109 38.2889 49.4187 38.2945 49.4187 38.3057L49.3718 38.3394C49.3249 38.373 49.2702 38.401 49.2077 38.4235C49.1609 38.4459 49.1218 38.4571 49.0905 38.4571L49.0202 38.4739C49.0202 38.4851 49.1296 38.4907 49.3484 38.4907C49.5828 38.4907 49.7 38.4627 49.7 38.4067C49.7 38.3842 49.6765 38.3618 49.6296 38.3394C49.5828 38.317 49.5593 38.3001 49.5593 38.2889C49.5593 38.2777 49.575 38.2721 49.6062 38.2721C49.6531 38.2609 49.7 38.2553 49.7468 38.2553C49.8093 38.2441 49.864 38.2329 49.9109 38.2217L50.0984 38.2048C50.1609 38.2048 50.1922 38.2329 50.1922 38.2889C50.1922 38.345 50.2 38.373 50.2156 38.373C50.2469 38.373 50.2781 38.373 50.3094 38.373L50.6375 38.3394H50.8954L50.9188 38.3226C50.9188 38.3114 50.9032 38.3001 50.8719 38.2889C50.8563 38.2777 50.7547 38.2721 50.5672 38.2721C50.3953 38.2721 50.3094 38.2497 50.3094 38.2048C50.3094 38.1824 50.3406 38.1656 50.4031 38.1544L50.6844 38.1712C50.9344 38.1712 51.0672 38.1488 51.0829 38.1039C51.1141 38.0591 51.2548 38.0367 51.5048 38.0367L51.8329 38.0535C52.2861 38.0535 52.5283 38.0423 52.5595 38.0199V38.003C52.5595 37.9806 52.5048 37.9638 52.3955 37.9526C52.3798 37.9526 52.372 37.947 52.372 37.9358L52.7236 37.9021L53.0986 37.8853C53.208 37.8853 53.2783 37.8965 53.3096 37.9189C53.3408 37.9302 53.4346 37.9358 53.5909 37.9358C53.7627 37.9358 53.8565 37.9189 53.8721 37.8853C53.8878 37.8517 53.9112 37.8293 53.9424 37.818C53.9737 37.8068 54.0206 37.8012 54.0831 37.8012C54.0987 37.8012 54.1065 37.8124 54.1065 37.8349V37.8517C54.1065 37.8741 54.13 37.8853 54.1768 37.8853C54.2237 37.8853 54.294 37.8741 54.3878 37.8517C54.4972 37.818 54.5753 37.7956 54.6222 37.7844C54.6691 37.7732 54.7003 37.7676 54.7159 37.7676C54.7472 37.7676 54.7706 37.7732 54.7863 37.7844C54.8019 37.7956 54.8253 37.818 54.8566 37.8517C54.8878 37.8741 54.9191 37.8853 54.9503 37.8853C54.9816 37.8853 55.0206 37.8685 55.0675 37.8349C55.13 37.79 55.1769 37.7676 55.2082 37.7676C55.2394 37.7676 55.2629 37.7732 55.2785 37.7844C55.3097 37.7956 55.3644 37.8012 55.4426 37.8012C55.5051 37.8012 55.591 37.7956 55.7004 37.7844C55.8098 37.7732 56.0051 37.7676 56.2864 37.7676C56.427 37.7564 56.5754 37.7508 56.7317 37.7508L57.2005 37.7676C57.513 37.7676 57.7708 37.7676 57.974 37.7676C58.1771 37.7564 58.2787 37.7452 58.2787 37.734C58.2474 37.7115 58.1459 37.6891 57.974 37.6667C57.8177 37.6443 57.6224 37.6218 57.388 37.5994C57.1536 37.577 56.9427 37.5658 56.7551 37.5658C56.5833 37.5546 56.4426 37.5434 56.3332 37.5321C56.2395 37.5209 56.1926 37.5097 56.1926 37.4985C56.1926 37.4873 56.2785 37.4817 56.4504 37.4817L56.7317 37.4649C56.8411 37.4649 56.9817 37.4705 57.1536 37.4817C57.3411 37.4929 57.5443 37.5097 57.763 37.5321C57.9818 37.5434 58.1537 37.5602 58.2787 37.5826C58.4037 37.605 58.4975 37.6162 58.56 37.6162C58.6068 37.6162 58.6303 37.6106 58.6303 37.5994C58.6303 37.5658 58.56 37.5153 58.4193 37.4481C58.013 37.2575 57.1614 37.1622 55.8645 37.1622L54.8097 37.1453C54.8097 37.1341 54.3878 37.1285 53.544 37.1285C53.544 37.1173 53.7784 37.0949 54.2472 37.0613C54.7159 37.0276 54.9503 37.0052 54.9503 36.994L54.4581 36.9604L54.8331 36.9099C54.9113 36.9099 54.966 36.9267 54.9972 36.9604C55.0441 36.994 55.0753 37.0108 55.091 37.0108H55.1144V36.9435C55.1144 36.9211 55.1222 36.9043 55.1378 36.8931C55.1691 36.8707 55.3175 36.8595 55.5832 36.8595C55.7238 36.8707 55.9113 36.8763 56.1457 36.8763C56.8333 36.8987 57.1927 36.9267 57.2239 36.9604C57.2708 36.994 57.3021 37.0108 57.3177 37.0108C57.3333 37.0108 57.3411 37.0052 57.3411 36.994C57.3568 36.9716 57.3958 36.9604 57.4583 36.9604C57.6458 36.9604 57.9584 37.0332 58.3959 37.179C58.849 37.3247 59.0991 37.4481 59.1459 37.549C59.1459 37.605 59.1303 37.6443 59.0991 37.6667C59.0678 37.6779 59.0522 37.6947 59.0522 37.7171C59.0522 37.7732 59.0991 37.8685 59.1928 38.003C59.3022 38.1264 59.3647 38.2609 59.3803 38.4067C59.3803 38.5524 59.3335 38.6589 59.2397 38.7262C59.1616 38.7934 59.0131 38.8271 58.7944 38.8271C58.6381 38.8271 58.4428 38.8607 58.2084 38.928C58.0834 38.9616 57.9818 38.9784 57.9037 38.9784C57.763 38.9784 57.6927 38.9168 57.6927 38.7935V38.7766C57.6927 38.7206 57.6771 38.6869 57.6458 38.6757C57.599 38.6757 57.5521 38.6925 57.5052 38.7262C57.4739 38.7598 57.3646 38.7766 57.1771 38.7766C57.0989 38.7766 57.013 38.771 56.9192 38.7598C56.8411 38.7374 56.802 38.7038 56.802 38.6589C56.802 38.6141 56.888 38.5804 57.0599 38.558C57.3099 38.5244 57.4583 38.5019 57.5052 38.4907C57.5677 38.4683 57.6693 38.3954 57.8099 38.2721L57.5755 38.3057C57.4974 38.3057 57.4427 38.3001 57.4114 38.2889C57.3802 38.2665 57.0989 38.2553 56.5676 38.2553C56.0363 38.2553 55.7629 38.2497 55.7473 38.2385C55.7316 38.2273 55.5988 38.2217 55.3488 38.2217C55.1144 38.2217 54.8175 38.2329 54.4581 38.2553C54.0362 38.2889 53.6456 38.3057 53.2862 38.3057C52.208 38.3506 51.372 38.4123 50.7782 38.4907L49.6765 38.5916C49.4734 38.6029 49.1765 38.6309 48.7858 38.6757C47.7233 38.7991 47.1529 38.8775 47.0748 38.9112C46.9966 38.9336 46.6607 38.9728 46.0669 39.0289C45.3481 39.1298 44.934 39.2139 44.8246 39.2812C44.7309 39.3372 44.559 39.8529 44.309 40.8283L44.0746 41.8038C44.0121 42.0728 43.9339 42.4989 43.8402 43.0819C43.762 43.3285 43.7074 43.5415 43.6761 43.7209C43.6448 43.9003 43.6136 44.0741 43.5823 44.2423C43.5511 44.3992 43.5355 44.5114 43.5355 44.5786C43.5355 44.6347 43.5198 44.6851 43.4886 44.73L43.4183 45.0663C43.4183 45.2457 43.387 45.4363 43.3245 45.6381C43.2933 45.7839 43.2854 45.8904 43.3011 45.9576V46.0081C43.3011 46.0978 43.2776 46.1931 43.2308 46.294C43.1839 46.4846 43.1214 47.1405 43.0432 48.2616C42.9964 48.9455 42.9729 49.5622 42.9729 50.1115C42.9573 50.2797 42.9339 50.375 42.9026 50.3974C42.887 50.4198 42.8714 50.56 42.8557 50.8179C42.8089 51.6251 42.7854 52.2754 42.7854 52.7687L42.762 53.2564L42.8089 54.484C42.8401 55.0222 42.8557 55.5435 42.8557 56.0481L42.8792 56.1994C42.8792 56.76 42.9729 57.4215 43.1604 58.1839C43.1761 58.3184 43.1917 58.4193 43.2073 58.4866C43.2229 58.5426 43.2308 58.6043 43.2308 58.6716C43.2151 58.694 43.1761 58.7052 43.1136 58.7052C43.0667 58.7052 42.9651 58.7164 42.8089 58.7388C42.4182 58.8173 42.1526 58.8846 42.0119 58.9406L41.8947 58.9575ZM34.863 40.7274C35.0817 40.6938 35.4802 40.6041 36.0584 40.4584L37.0428 40.2061C37.5585 40.0828 37.8554 40.0099 37.9335 39.9875C37.996 39.9651 38.0663 39.9426 38.1445 39.9202C38.3164 39.8417 38.4961 39.7913 38.6836 39.7689C38.8711 39.7352 39.3946 39.6287 40.254 39.4493L41.4963 39.1634C41.5744 39.1298 41.6916 39.1018 41.8479 39.0793C42.0979 39.0345 42.2229 38.9336 42.2229 38.7766V38.743L42.3166 38.4403C42.301 38.4291 42.2698 38.4235 42.2229 38.4235L41.965 38.4739C41.7463 38.5188 41.59 38.558 41.4963 38.5916C41.4025 38.6253 41.2931 38.6477 41.1681 38.6589C41.0431 38.6701 40.8009 38.715 40.4415 38.7935C39.3789 39.0289 38.6523 39.2027 38.2617 39.3148C38.0429 39.3821 37.9335 39.4213 37.9335 39.4325C37.9491 39.4325 37.957 39.4381 37.957 39.4493L37.9101 39.5334C37.8944 39.5334 37.8788 39.5222 37.8632 39.4998C37.8319 39.4661 37.7929 39.4493 37.746 39.4493C37.6679 39.4493 37.5507 39.4717 37.3944 39.5166C37.1756 39.5951 37.0663 39.6511 37.0663 39.6848C37.0663 39.7072 37.0506 39.7296 37.0194 39.752C36.9881 39.7745 36.9569 39.7857 36.9256 39.7857C36.8944 39.7857 36.8787 39.7801 36.8787 39.7689L36.9022 39.7016C36.9022 39.6792 36.8866 39.668 36.8553 39.668L36.785 39.6848C36.6912 39.7072 36.6444 39.7464 36.6444 39.8025C36.6444 39.8585 36.5193 39.9258 36.2693 40.0043C36.0193 40.0716 35.8709 40.1276 35.824 40.1725C35.7771 40.2061 35.7459 40.2229 35.7302 40.2229C35.7146 40.2229 35.7068 40.2173 35.7068 40.2061C35.7068 40.1837 35.6912 40.1725 35.6599 40.1725C35.5505 40.1725 35.3943 40.2341 35.1911 40.3575C35.0661 40.4472 34.9411 40.5144 34.8161 40.5593C34.6755 40.6041 34.6052 40.6378 34.6052 40.6602C34.6052 40.6714 34.6208 40.6882 34.652 40.7106C34.6677 40.7218 34.6989 40.7274 34.7458 40.7274H34.863ZM36.2693 40.5761C36.5662 40.5649 36.8084 40.5481 36.9959 40.5256L37.1131 40.5088C37.3788 40.4752 37.6366 40.4135 37.8866 40.3238C38.0116 40.279 38.0741 40.2453 38.0741 40.2229C38.0741 40.2005 38.1992 40.1781 38.4492 40.1557C38.6679 40.1557 38.8008 40.1388 38.8476 40.1052C38.8945 40.0604 38.9961 40.0379 39.1523 40.0379C39.293 40.0379 39.3867 40.0211 39.4336 39.9875C39.4649 39.9426 39.5274 39.9034 39.6211 39.8698C39.8086 39.8249 39.9337 39.8025 39.9962 39.8025C40.043 39.8025 40.0899 39.8081 40.1368 39.8193C40.168 39.8305 40.2227 39.8361 40.3009 39.8361C40.3634 39.8361 40.4181 39.8305 40.4649 39.8193C40.5274 39.7969 40.5587 39.7745 40.5587 39.752C40.5587 39.7296 40.5821 39.7072 40.629 39.6848C40.6759 39.6511 40.7462 39.6231 40.84 39.6007C40.9493 39.567 41.0275 39.5502 41.0744 39.5502C41.1212 39.5502 41.1525 39.5614 41.1681 39.5839C41.1994 39.6063 41.2306 39.6175 41.2619 39.6175C41.2931 39.6175 41.3322 39.5951 41.3791 39.5502C41.4259 39.5054 41.5041 39.483 41.6135 39.483C41.7228 39.483 41.8244 39.4549 41.9182 39.3989C42.0275 39.3316 42.09 39.2755 42.1057 39.2307C42.1057 39.2195 42.0979 39.2083 42.0822 39.1971C42.0822 39.1859 42.0666 39.1803 42.0354 39.1803L40.1837 39.5839C39.1055 39.8081 38.4882 39.9482 38.332 40.0043L38.1445 40.0716L37.2303 40.307L36.2693 40.5761ZM41.6838 58.2175C41.6994 58.2175 41.7072 58.1783 41.7072 58.0998L41.5666 56.3844L41.4728 55.5772C41.4259 54.8372 41.4025 53.6376 41.4025 51.9783C41.4025 50.2629 41.3947 49.394 41.3791 49.3716C41.3634 49.4276 41.3478 49.7359 41.3322 50.2965C41.2853 51.4289 41.2619 52.4379 41.2619 53.3236C41.2619 54.4897 41.2697 55.1175 41.2853 55.2072C41.3166 55.2408 41.3478 55.5828 41.3791 56.2331C41.3947 56.6367 41.4416 57.0963 41.5197 57.6121C41.5978 57.7802 41.6369 57.9428 41.6369 58.0998C41.6369 58.1783 41.6525 58.2175 41.6838 58.2175ZM41.4259 49.2875C41.4728 49.2538 41.4963 49.0857 41.4963 48.783L41.4728 48.3457C41.4416 48.3569 41.4181 48.413 41.4025 48.5139C41.4025 48.6148 41.3947 48.7269 41.3791 48.8502C41.3791 48.9736 41.3791 49.0801 41.3791 49.1698C41.3791 49.2482 41.3947 49.2875 41.4259 49.2875ZM41.4963 48.2616C41.5431 48.1944 41.5666 48.1327 41.5666 48.0766C41.5666 47.9982 41.5588 47.9589 41.5431 47.9589C41.5275 47.9589 41.5041 47.9925 41.4728 48.0598C41.4416 48.1271 41.4259 48.1775 41.4259 48.2112C41.4259 48.2448 41.4416 48.2616 41.4728 48.2616H41.4963ZM41.1916 58.2175C41.2541 58.2175 41.2853 58.0998 41.2853 57.8643L41.2619 57.4607L41.1447 56.0144L41.0978 55.2913C41.0665 54.7531 41.0509 54.0804 41.0509 53.2732C41.0509 53.0041 41.0509 52.651 41.0509 52.2137C41.0509 51.7652 41.0509 51.3112 41.0509 50.8515C41.0509 50.3806 41.0587 50.0947 41.0744 49.9938C41.1212 49.6911 41.1447 49.2482 41.1447 48.6652C41.1916 47.5665 41.2931 46.6191 41.4494 45.8231L41.5431 45.3018C41.6369 44.7076 41.6838 44.3376 41.6838 44.1918C41.6838 44.0349 41.7072 43.8891 41.7541 43.7546L41.8244 43.4182C41.8557 43.194 41.9025 42.9529 41.965 42.6951C42.0432 42.2802 42.0822 42.0392 42.0822 41.9719C42.0822 41.9383 42.0744 41.9215 42.0588 41.9215H42.0354C42.0197 41.9327 41.9963 41.9719 41.965 42.0392C41.9494 42.0953 41.9338 42.1625 41.9182 42.241C41.9025 42.3195 41.8791 42.4092 41.8479 42.5101C41.8322 42.5998 41.8088 42.6783 41.7775 42.7455C41.7619 42.8016 41.7385 42.8969 41.7072 43.0314C41.6916 43.166 41.6682 43.3005 41.6369 43.435C41.6213 43.5696 41.5978 43.6873 41.5666 43.7882C41.5353 43.8779 41.5119 43.9283 41.4963 43.9396C41.4806 43.9396 41.4728 43.9452 41.4728 43.9564L41.5197 44.1918C41.5197 44.2255 41.5041 44.2423 41.4728 44.2423C41.4416 44.2423 41.4259 44.2759 41.4259 44.3432L41.4494 44.4945C41.4494 44.517 41.4416 44.545 41.4259 44.5786C41.4259 44.6123 41.4181 44.6347 41.4025 44.6459C41.3869 44.6459 41.3713 44.6739 41.3556 44.73C41.34 44.7748 41.3244 44.8253 41.3088 44.8813C41.3088 44.9374 41.3088 44.9935 41.3088 45.0495C41.3088 45.0944 41.3166 45.1168 41.3322 45.1168C41.3634 45.1168 41.3791 45.128 41.3791 45.1504C41.3791 45.1616 41.3634 45.1728 41.3322 45.184C41.3166 45.1953 41.3088 45.2345 41.3088 45.3018L41.2384 45.6045C41.1916 45.8623 41.1525 46.1258 41.1212 46.3949C41.0275 46.8434 40.9572 47.4039 40.9103 48.0766L40.8634 48.7493C40.8009 49.6238 40.7696 51.0029 40.7696 52.8864C40.7696 54.9942 40.7853 56.149 40.8165 56.3508L40.8868 56.7208C40.9493 57.2253 40.9962 57.6009 41.0275 57.8475C41.0744 58.0942 41.129 58.2175 41.1916 58.2175ZM42.0588 41.8206C42.0744 41.8206 42.09 41.8094 42.1057 41.7869C42.1213 41.7533 42.1369 41.7253 42.1526 41.7029C42.1682 41.6692 42.176 41.6468 42.176 41.6356C42.176 41.6019 42.1604 41.5795 42.1291 41.5683C42.0666 41.5683 42.0354 41.6244 42.0354 41.7365C42.0354 41.7925 42.0432 41.8206 42.0588 41.8206ZM42.1057 41.4842C42.1213 41.4842 42.1369 41.473 42.1526 41.4506C42.1838 41.4282 42.2072 41.3721 42.2229 41.2824C42.2541 41.1815 42.2854 41.0694 42.3166 40.9461L42.4104 40.4584C42.4104 40.4023 42.4026 40.3743 42.3869 40.3743C42.3088 40.3743 42.2541 40.5537 42.2229 40.9124C42.1916 40.9909 42.1682 41.0694 42.1526 41.1479C42.1369 41.2264 42.1135 41.2824 42.0822 41.3161C42.0666 41.3497 42.0588 41.3833 42.0588 41.417C42.0588 41.4618 42.0744 41.4842 42.1057 41.4842ZM42.4104 40.2902C42.426 40.2902 42.4495 40.2734 42.4807 40.2397C42.5276 40.1949 42.551 40.1276 42.551 40.0379C42.551 39.9819 42.5354 39.9538 42.5041 39.9538C42.4885 39.9538 42.4573 39.9931 42.4104 40.0716C42.3791 40.1388 42.3713 40.1893 42.3869 40.2229C42.3869 40.2453 42.3869 40.2622 42.3869 40.2734C42.3869 40.2846 42.3948 40.2902 42.4104 40.2902ZM42.7854 39.1803C42.8323 39.1466 42.8557 39.1186 42.8557 39.0962C42.8557 39.085 42.8479 39.0793 42.8323 39.0793C42.8323 39.0681 42.8245 39.0625 42.8089 39.0625L42.762 39.0962C42.7307 39.1186 42.7151 39.141 42.7151 39.1634C42.7151 39.1746 42.7229 39.1803 42.7385 39.1803H42.762H42.7854Z" fill="#FAF9FF"/>
<path d="M49.4524 56.6199C49.3118 56.6199 49.1633 56.5974 49.007 56.5526C48.8508 56.5077 48.7101 56.4461 48.5851 56.3676C48.4601 56.2891 48.3664 56.2162 48.3039 56.149C48.2414 56.0817 48.2101 56.0312 48.2101 55.9976C48.2101 55.9864 48.2179 55.9752 48.2336 55.964C48.2492 55.9415 48.257 55.9135 48.257 55.8799C48.257 55.779 48.2023 55.6613 48.0929 55.5267C47.9992 55.3922 47.9288 55.3249 47.882 55.3249C47.8507 55.3249 47.8273 55.3417 47.8116 55.3754C47.796 55.409 47.7726 55.4258 47.7413 55.4258C47.5851 55.4258 47.3351 54.7924 46.9913 53.5255C46.7413 52.6846 46.6162 51.4513 46.6162 49.8256L46.6397 48.1439C46.6397 44.5226 47.7726 40.4079 50.0384 35.8C50.3665 35.2282 50.7415 34.7629 51.1634 34.4041C51.601 34.0341 51.9369 33.8491 52.1713 33.8491H52.3354C52.4917 33.8491 52.601 33.8211 52.6635 33.7651C52.7417 33.6978 52.9604 33.6642 53.3198 33.6642C53.898 33.6642 54.3746 33.7202 54.7496 33.8323C55.6091 34.135 56.1091 34.6059 56.2497 35.245C56.281 35.4468 56.2966 35.6654 56.2966 35.9009C56.2966 37.0557 55.8591 38.6813 54.984 40.7779C54.3902 42.2242 53.8511 43.351 53.3667 44.1582C52.8823 44.9654 52.2416 45.9128 51.4447 47.0003C50.7572 47.9533 49.929 49.1305 48.9602 50.532V51.5578C48.9602 52.1745 49.007 52.5669 49.1008 52.735C49.132 52.7687 49.1555 52.8135 49.1711 52.8696C49.1711 52.9368 49.1633 52.9985 49.1477 53.0546C49.132 53.1106 49.1242 53.1611 49.1242 53.2059C49.1242 53.2508 49.1399 53.2732 49.1711 53.2732C49.2336 53.2732 49.3508 53.0602 49.5227 52.6341C49.6165 52.3987 49.679 52.2361 49.7102 52.1464C49.7415 52.0455 49.7571 51.9783 49.7571 51.9446C49.7571 51.911 49.7493 51.8942 49.7337 51.8942C49.7024 51.8942 49.6712 51.9054 49.6399 51.9278C49.6087 51.939 49.5852 51.9446 49.5696 51.9446C49.5383 51.9446 49.5227 51.9334 49.5227 51.911L49.5461 51.8269C49.6086 51.7484 49.6712 51.7092 49.7337 51.7092C49.7649 51.7092 49.7962 51.7148 49.8274 51.726C49.8587 51.7372 49.8821 51.7428 49.8977 51.7428C49.9134 51.7428 49.9212 51.7316 49.9212 51.7092L49.8743 51.4906C49.8743 51.4457 49.8977 51.4233 49.9446 51.4233C50.0071 51.4233 50.1946 51.1206 50.5071 50.5152C51.0697 49.3828 51.7025 48.3962 52.4057 47.5553C52.8432 47.0059 53.5464 46.7312 54.5152 46.7312C54.7028 46.7312 54.8512 46.7537 54.9606 46.7985C55.07 46.8321 55.195 46.9331 55.3356 47.1012C55.5387 47.3927 55.6559 47.701 55.6872 48.0262L55.781 49.1866C55.8591 50.6441 56.0232 51.7765 56.2732 52.5837C56.4763 53.2676 56.6951 53.6095 56.9295 53.6095C57.0076 53.6095 57.1561 53.5591 57.3748 53.4582C57.8905 53.234 58.2811 52.9985 58.5468 52.7519C58.6249 52.6734 58.7421 52.5613 58.8984 52.4155C59.0546 52.2698 59.2031 52.1128 59.3437 51.9446C59.6094 51.6531 59.7812 51.5074 59.8594 51.5074C59.9062 51.5074 59.9375 51.5354 59.9531 51.5915C59.9844 51.6363 60 51.6812 60 51.726C60 51.8381 59.9531 52.0231 59.8594 52.281C59.7656 52.5276 59.6328 52.8135 59.4609 53.1387C59.289 53.4526 59.1249 53.6992 58.9687 53.8786C58.5624 54.271 58.0467 54.4672 57.4217 54.4672C57.0935 54.4672 56.7263 54.4112 56.3201 54.2991C55.3044 54.0636 54.6168 53.5423 54.2574 52.735C53.898 51.9166 53.6949 50.4479 53.648 48.3289C53.648 48.1719 53.6402 48.0878 53.6246 48.0766C53.6089 48.0766 53.5699 48.1383 53.5074 48.2616C53.398 48.4298 53.2886 48.5139 53.1792 48.5139C53.0698 48.5139 53.0151 48.5755 53.0151 48.6989C53.0151 48.8222 52.8979 48.9567 52.6635 49.1025C52.4917 49.2482 52.4057 49.3772 52.4057 49.4893L52.4292 49.607C52.4292 49.7416 52.351 49.8649 52.1948 49.977C52.0385 50.0779 51.9369 50.1283 51.8901 50.1283V50.1115C51.8901 49.9882 52.2182 49.4388 52.8745 48.4634C53.2652 47.8916 53.4605 47.5721 53.4605 47.5048H53.437C53.3589 47.5048 53.0386 47.9477 52.476 48.8334C52.0541 49.4949 51.6635 50.1508 51.3041 50.801C50.9603 51.4513 50.7806 51.8605 50.765 52.0287V52.0455C50.7806 52.0455 50.9525 51.7652 51.2806 51.2047C51.6088 50.588 51.7885 50.2797 51.8197 50.2797V50.2965C51.8197 50.4311 51.6557 50.958 51.3275 51.8774L50.6947 53.66C50.5228 54.1533 50.3899 54.6915 50.2962 55.2745C50.1712 55.9023 50.0227 56.3003 49.8509 56.4685C49.7571 56.5694 49.6243 56.6199 49.4524 56.6199ZM54.82 52.466C54.8356 52.466 54.8434 52.4379 54.8434 52.3819C54.8434 52.2922 54.8121 52.152 54.7496 51.9614C54.6403 51.6139 54.5074 50.56 54.3512 48.7998V50.0274L54.3277 50.4983C54.3277 51.171 54.4605 51.7708 54.7262 52.2978C54.7731 52.4099 54.8043 52.466 54.82 52.466ZM49.4993 54.0132C49.5305 54.0132 49.6165 53.8618 49.7571 53.5591L50.5306 51.8269C50.9212 50.9748 51.3275 50.1956 51.7494 49.4893C52.1713 48.7381 52.7104 47.9309 53.3667 47.0676L52.9683 47.3871C52.7182 47.6114 52.3979 47.9925 52.0073 48.5307C51.6322 49.0689 51.2884 49.6294 50.9759 50.2124C50.804 50.5488 50.6009 50.9972 50.3665 51.5578C50.1321 52.1072 49.9212 52.6173 49.7337 53.0882C49.5618 53.5591 49.4758 53.8506 49.4758 53.9627C49.4758 53.9963 49.4836 54.0132 49.4993 54.0132ZM55.3591 37.5658C55.3903 37.5658 55.4294 37.4425 55.4762 37.1958C55.5544 36.7698 55.5934 36.439 55.5934 36.2036C55.5934 36.0578 55.5856 35.985 55.57 35.985C55.5387 35.985 55.4997 36.1195 55.4528 36.3886C55.3747 36.781 55.3356 37.1061 55.3356 37.364C55.3356 37.4985 55.3434 37.5658 55.3591 37.5658ZM50.4368 47.1012C50.4837 47.1012 50.804 46.6584 51.3978 45.7727C51.9604 44.943 52.4526 44.1582 52.8745 43.4182C54.234 41.0302 55.0153 39.326 55.2184 38.3057V38.2553C55.1559 38.2553 54.984 38.6533 54.7028 39.4493C53.4839 42.2971 52.1635 44.6683 50.7415 46.5631C50.5384 46.8321 50.4368 47.0115 50.4368 47.1012ZM54.9371 35.1104V35.0936C54.9371 35.0488 54.8746 34.8974 54.7496 34.6396C54.6871 34.5162 54.6246 34.4209 54.5621 34.3537C54.5152 34.2864 54.4762 34.2528 54.4449 34.2528C54.4293 34.2528 54.4215 34.264 54.4215 34.2864C54.4215 34.3873 54.484 34.5387 54.609 34.7405C54.7965 34.9871 54.9059 35.1104 54.9371 35.1104ZM48.9836 48.4298L49.7805 47.3367C50.2493 46.6752 50.8119 45.8399 51.4682 44.8309C51.8588 44.2479 52.1791 43.7938 52.4292 43.4687C52.7573 43.0314 52.9839 42.6446 53.1089 42.3083L53.1558 42.1233C53.1558 42.0672 53.1401 42.0392 53.1089 42.0392C53.0776 42.0392 53.0464 42.0448 53.0151 42.056L52.9917 42.0897L52.9683 42.0728C52.9683 42.0168 53.0229 41.9383 53.1323 41.8374C53.2417 41.7253 53.3667 41.5459 53.5074 41.2992C53.8199 40.7387 54.0465 40.2173 54.1871 39.7352C54.2496 39.5783 54.2808 39.4661 54.2808 39.3989C54.2808 39.3652 54.273 39.3428 54.2574 39.3316C54.2418 39.3204 54.234 39.3036 54.234 39.2812C54.234 39.2363 54.2574 39.2027 54.3043 39.1803C54.4605 39.0906 54.609 38.586 54.7496 37.6667C54.7809 37.42 54.8512 37.0557 54.9606 36.5736C55.0075 36.3269 55.0309 36.1139 55.0309 35.9345C55.0309 35.8 55.0153 35.6878 54.984 35.5982C54.9528 35.4972 54.9215 35.4468 54.8903 35.4468C54.859 35.4468 54.8356 35.5701 54.82 35.8168C54.8043 36.0522 54.7731 36.1699 54.7262 36.1699C54.7106 36.1699 54.6949 36.1643 54.6793 36.1531C54.6637 36.1307 54.6481 36.0746 54.6324 35.985C54.6324 35.8953 54.6324 35.7944 54.6324 35.6822V35.5141C54.6324 35.3235 54.5856 35.1104 54.4918 34.875C54.3355 34.4714 54.0933 34.2584 53.7652 34.2359C53.6558 34.2359 53.5542 34.292 53.4605 34.4041C52.3667 35.7719 51.515 37.2687 50.9056 38.8944C50.2962 40.52 49.8509 42.0953 49.5696 43.62C49.3039 45.1448 49.1321 46.4453 49.0539 47.5217L48.9836 48.4298ZM49.8274 48.0094C49.8587 48.0094 49.929 47.9477 50.0384 47.8244C50.179 47.645 50.2493 47.5048 50.2493 47.4039C50.2493 47.3927 50.2415 47.3871 50.2259 47.3871C50.2103 47.3871 50.1477 47.4544 50.0384 47.5889C49.8821 47.7795 49.804 47.9141 49.804 47.9925C49.804 48.0038 49.8118 48.0094 49.8274 48.0094Z" fill="#FAF9FF"/>
</svg>
