<svg width="125" height="35" viewBox="0 0 125 35" fill="none" xmlns="http://www.w3.org/2000/svg">
<g clip-path="url(#clip0_125_375)">
<path d="M33.9172 16.1847V25.674C33.9172 26.1438 33.6353 26.5196 33.2595 26.8014L25.0856 31.4991C24.7097 31.687 24.24 31.687 23.7702 31.4991L17.9451 28.0228C18.7907 27.741 19.4484 26.8954 19.4484 25.9558V23.7949C19.5423 23.8889 23.9581 26.5196 23.9581 26.5196C24.24 26.7075 24.6158 26.7075 24.9916 26.5196L29.1255 24.1707C29.4074 23.9828 29.5953 23.701 29.5953 23.3252V18.5335C29.5953 18.1577 29.4074 17.8759 29.1255 17.688L24.9916 15.0573C24.7097 14.8694 24.3339 14.8694 23.9581 15.0573L17.6632 18.4396C17.3814 18.6275 17.0056 18.6275 16.6298 18.4396L14.9386 17.5001V16.2787C14.9386 15.8089 15.2205 15.4331 15.5963 15.1512L17.0995 14.3056L22.173 11.3931L22.267 11.2991L23.7702 10.4536C24.146 10.2656 24.6158 10.2656 25.0856 10.4536L26.4949 11.1112L26.5888 11.2052L33.2595 15.0573C33.6353 15.2452 33.9172 15.7149 33.9172 16.1847Z" fill="#9E9E9E"/>
<path d="M26.5888 10.3596L25.1795 9.51405C24.8037 9.32614 24.334 9.32614 23.8642 9.51405L22.3609 10.3596L22.267 10.4536C21.3275 9.88986 17.6633 7.72894 17.6633 7.72894C17.3814 7.54103 17.0056 7.54103 16.6298 7.72894L12.4958 10.0778C12.214 10.2657 12.0261 10.5475 12.0261 10.9233V11.4871V15.715C12.0261 16.0908 12.214 16.3726 12.4958 16.5605L15.0326 17.9698L16.7237 18.9094C17.0056 19.0973 17.3814 19.0973 17.7572 18.9094L19.3544 17.9698V22.5736C19.2605 22.5736 17.8512 23.4191 17.8512 23.4191C17.4754 23.607 17.0056 23.8889 16.5358 23.701L15.0326 22.9494L8.3619 19.0973C7.98608 18.9094 7.70422 18.4396 7.70422 17.9698V16.3726V11.3931V8.48056C7.70422 8.0108 7.98608 7.63498 8.3619 7.35312L16.5358 2.65546C16.9116 2.46755 17.3814 2.46755 17.8512 2.65546L26.0251 7.35312C26.4009 7.54103 26.6828 8.0108 26.6828 8.48056C26.5888 9.32614 26.5888 9.70195 26.5888 10.3596Z" fill="#9E9E9E"/>
<path d="M18.8846 23.5131V26.1438V26.4256C18.8846 26.8954 18.6028 27.2712 18.2269 27.5531L17.2874 28.0228L16.8176 28.3047L10.147 32.1568C9.77114 32.3447 9.30138 32.3447 8.83161 32.1568L0.657673 27.4591C0.28186 27.1773 0 26.8015 0 26.3317V26.0498V16.8424C0 16.3726 0.28186 15.9968 0.657673 15.715L7.14045 12.0508V16.9364V17.0303L4.88557 18.3457C4.60371 18.5336 4.41581 18.8154 4.41581 19.1912V23.701V23.9829C4.41581 24.3587 4.60371 24.6405 4.88557 24.8284L9.01952 27.2712C9.30138 27.4591 9.67719 27.4591 10.053 27.2712L14.1869 24.9224C14.4688 24.7345 14.6567 24.4526 14.6567 24.0768V23.5131L14.8446 23.607L16.16 24.3587C16.5358 24.5466 17.0055 24.5466 17.4753 24.3587C17.5693 24.3587 17.5693 24.3587 17.6632 24.2647L18.8846 23.5131Z" fill="#9E9E9E"/>
<path d="M46.7887 24.7345C45.9431 24.4526 45.2854 24.1708 44.8157 23.7949L45.6613 21.8219C46.131 22.1977 46.6947 22.4796 47.3524 22.6675C48.0101 22.8554 48.6678 22.9494 49.3254 22.9494C50.0771 22.9494 50.6408 22.8554 50.9226 22.5736C51.2985 22.3856 51.4864 22.1038 51.4864 21.728C51.4864 21.4461 51.3924 21.2582 51.2045 21.0703C51.0166 20.8824 50.7347 20.7884 50.3589 20.6005C50.0771 20.5066 49.6073 20.4126 49.0436 20.2247C48.198 20.0368 47.4464 19.8489 46.9766 19.661C46.4129 19.4731 45.9431 19.0973 45.5673 18.7215C45.1915 18.2517 45.0036 17.688 45.0036 16.9364C45.0036 16.2787 45.1915 15.715 45.5673 15.1512C45.9431 14.5875 46.4129 14.2117 47.1645 13.9298C47.9161 13.648 48.7617 13.4601 49.7952 13.4601C50.5468 13.4601 51.2045 13.554 51.8622 13.7419C52.5198 13.9298 53.1775 14.1178 53.6473 14.4936L52.8017 16.4666C51.7682 15.9029 50.7347 15.621 49.7012 15.621C48.9496 15.621 48.4799 15.715 48.104 15.9968C47.7282 16.2787 47.5403 16.5605 47.5403 16.9364C47.5403 17.3122 47.7282 17.594 48.104 17.7819C48.4799 17.9698 49.1375 18.1577 49.9831 18.3457C50.8287 18.5336 51.5803 18.7215 52.0501 18.9094C52.6138 19.0973 53.0836 19.4731 53.4594 19.8489C53.8352 20.3187 54.0231 20.8824 54.0231 21.634C54.0231 22.2917 53.8352 22.8554 53.4594 23.4191C53.0836 23.9829 52.5198 24.3587 51.8622 24.6405C51.1105 24.9224 50.265 25.1103 49.2315 25.1103C48.4799 25.0163 47.6343 24.9224 46.7887 24.7345Z" fill="#9E9E9E"/>
<path d="M64.6398 22.7615V24.8285H55.9022V13.5541H64.358V15.621H58.4389V18.0638H63.7003V20.1308H58.4389V22.7615H64.6398Z" fill="#9E9E9E"/>
<path d="M68.9617 24.2648C68.0222 23.795 67.2705 23.0434 66.8008 22.1978C66.237 21.3522 66.0491 20.3188 66.0491 19.1913C66.0491 18.0639 66.331 17.1243 66.8008 16.1848C67.3645 15.3392 68.0222 14.5876 68.9617 14.1178C69.9012 13.6481 70.9347 13.3662 72.1561 13.3662C73.2835 13.3662 74.411 13.6481 75.2566 14.1178C76.1961 14.5876 76.9477 15.3392 77.4175 16.1848C77.9812 17.0304 78.2631 18.0639 78.2631 19.1913C78.2631 20.3188 77.9812 21.2583 77.4175 22.1978C76.8538 23.0434 76.1021 23.795 75.2566 24.2648C74.317 24.7346 73.2835 25.0164 72.1561 25.0164C70.9347 25.0164 69.9012 24.8285 68.9617 24.2648ZM73.9412 22.3857C74.5049 22.1039 74.8807 21.6341 75.1626 21.0704C75.4445 20.5067 75.6324 19.9429 75.6324 19.1913C75.6324 18.5336 75.4445 17.876 75.1626 17.3123C74.8807 16.7485 74.411 16.3727 73.9412 15.9969C73.3775 15.715 72.8138 15.5271 72.1561 15.5271C71.4984 15.5271 70.9347 15.715 70.371 15.9969C69.8073 16.2788 69.4314 16.7485 69.1496 17.3123C68.8677 17.876 68.6798 18.4397 68.6798 19.1913C68.6798 19.849 68.8677 20.5067 69.1496 21.0704C69.4314 21.6341 69.9012 22.0099 70.371 22.3857C70.9347 22.6676 71.4984 22.8555 72.1561 22.8555C72.8138 22.8555 73.3775 22.6676 73.9412 22.3857Z" fill="#9E9E9E"/>
<path d="M94.9867 24.8284V18.0638L91.6984 23.607H90.5709L87.2826 18.1577V24.7345H84.8398V13.4601H87.0007L91.2286 20.4126L95.3626 13.4601H97.5235V24.7345H94.9867V24.8284Z" fill="#9E9E9E"/>
<path d="M100.06 14.5876C99.7784 14.3057 99.5905 14.0238 99.5905 13.5541C99.5905 13.1783 99.7784 12.8024 100.06 12.5206C100.342 12.2387 100.718 12.1448 101.188 12.1448C101.657 12.1448 102.033 12.2387 102.315 12.5206C102.597 12.8024 102.785 13.0843 102.785 13.4601C102.785 13.8359 102.597 14.2117 102.315 14.4936C102.033 14.7755 101.657 14.8694 101.188 14.8694C100.718 15.0573 100.342 14.8694 100.06 14.5876ZM99.8723 16.1848H102.409V24.8285H99.8723V16.1848Z" fill="#9E9E9E"/>
<path d="M112.556 17.0304C113.214 17.688 113.59 18.6276 113.59 19.849V24.8285H111.053V20.2248C111.053 19.5671 110.865 19.0034 110.583 18.7215C110.301 18.3457 109.831 18.2517 109.268 18.2517C108.61 18.2517 108.14 18.4397 107.764 18.8155C107.389 19.1913 107.201 19.755 107.201 20.6006V24.8285H104.664V16.1848H107.013V17.2183C107.389 16.8424 107.764 16.5606 108.234 16.3727C108.704 16.1848 109.268 16.0908 109.831 16.0908C111.053 16.0908 111.898 16.4666 112.556 17.0304Z" fill="#9E9E9E"/>
<path d="M124.77 12.9904V24.9224H122.421V23.8889C121.763 24.6406 120.918 25.0164 119.696 25.0164C118.851 25.0164 118.193 24.8285 117.442 24.4527C116.784 24.0768 116.22 23.6071 115.938 22.8555C115.563 22.1978 115.375 21.4462 115.375 20.5066C115.375 19.661 115.563 18.8155 115.938 18.1578C116.314 17.5001 116.784 16.9364 117.442 16.5606C118.099 16.1848 118.851 15.9969 119.696 15.9969C120.824 15.9969 121.669 16.3727 122.327 17.0303V12.9904H124.77ZM121.67 22.2917C122.045 21.822 122.327 21.2582 122.327 20.5066C122.327 19.755 122.139 19.1913 121.67 18.7215C121.294 18.2517 120.73 18.0638 120.072 18.0638C119.415 18.0638 118.945 18.2517 118.475 18.7215C118.099 19.1913 117.817 19.755 117.817 20.5066C117.817 21.2582 118.005 21.822 118.475 22.2917C118.851 22.7615 119.415 22.9494 120.072 22.9494C120.73 22.9494 121.2 22.7615 121.67 22.2917Z" fill="#9E9E9E"/>
</g>
<defs>
<clipPath id="clip0_125_375">
<rect width="124.77" height="29.6892" fill="white" transform="translate(0 2.6554)"/>
</clipPath>
</defs>
</svg>
