<svg width="97" height="96" viewBox="0 0 97 96" fill="none" xmlns="http://www.w3.org/2000/svg">
<g filter="url(#filter0_d_125_418)">
<rect x="13.28" y="13" width="70" height="70" rx="5" fill="white" shape-rendering="crispEdges"/>
<g clip-path="url(#clip0_125_418)">
<path d="M64.2534 64.1981L57.5186 52.5329C60.01 50.1174 61.5613 46.7373 61.5613 43.0012C61.5613 35.6779 55.6034 29.72 48.28 29.72C40.9567 29.72 34.9988 35.6779 34.9988 43.0012C34.9988 46.7373 36.55 50.1174 39.0416 52.533L32.3067 64.1981C32.1486 64.4719 32.1711 64.814 32.3638 65.0647C32.5564 65.3154 32.8811 65.4252 33.1865 65.3431L38.3782 63.9443L39.7628 69.1399C39.8442 69.4454 40.1017 69.6718 40.4152 69.7133C40.4496 69.7178 40.4839 69.72 40.5179 69.72C40.7943 69.72 41.0535 69.5732 41.1943 69.3294L48.28 57.0564L55.3658 69.3293C55.5066 69.5732 55.7658 69.72 56.0421 69.72C56.0762 69.72 56.1105 69.7177 56.1449 69.7132C56.4583 69.6717 56.7159 69.4454 56.7973 69.1398L58.1818 63.9443L63.3736 65.343C63.6791 65.4254 64.0037 65.3154 64.1964 65.0647C64.389 64.814 64.4115 64.4719 64.2534 64.1981ZM36.5613 43.0012C36.5613 36.5395 41.8183 31.2825 48.28 31.2825C54.7418 31.2825 59.9988 36.5395 59.9988 43.0012C59.9988 49.4629 54.7418 54.72 48.28 54.72C41.8183 54.72 36.5613 49.4629 36.5613 43.0012ZM40.786 66.9115L39.6864 62.785C39.6329 62.5845 39.5018 62.4134 39.3221 62.3097C39.1423 62.2058 38.9287 62.1779 38.7282 62.2318L34.6047 63.3428L40.247 53.5702C42.1497 55.0199 44.4536 55.9686 46.9605 56.2171L40.786 66.9115ZM57.8319 62.2318C57.6314 62.1778 57.4178 62.2058 57.238 62.3096C57.0582 62.4134 56.9271 62.5844 56.8737 62.785L55.7741 66.9115L49.5996 56.2169C52.1065 55.9685 54.4103 55.0197 56.3131 53.57L61.9553 63.3427L57.8319 62.2318Z" fill="#E61C1C"/>
<path d="M43.3857 41.4082C43.2192 41.9211 43.3557 42.4734 43.7419 42.8497L44.9913 44.0669L44.6968 45.7861C44.6058 46.3176 44.8204 46.8446 45.2567 47.1615C45.5032 47.3404 45.7914 47.4313 46.0816 47.4313C46.3052 47.4313 46.53 47.3773 46.7376 47.2681L48.2813 46.456L49.8254 47.2672C50.3028 47.518 50.8703 47.4769 51.3064 47.1598C51.7426 46.8428 51.9568 46.3157 51.8654 45.7843L51.5701 44.0651L52.8189 42.8472C53.2049 42.4708 53.3411 41.9183 53.1743 41.4056C53.0076 40.8929 52.5725 40.5262 52.0389 40.4488L50.3126 40.1984L49.5403 38.6344C49.3015 38.151 48.8185 37.8508 48.2794 37.8508C48.2793 37.8508 48.2792 37.8508 48.279 37.8508C47.7399 37.851 47.2568 38.1515 47.0182 38.635L46.2467 40.1994L44.5206 40.4508C43.9871 40.5286 43.5522 40.8954 43.3857 41.4082ZM46.8783 41.6865C47.1328 41.6495 47.3527 41.4896 47.4665 41.259L48.2796 39.6103L49.0936 41.2586C49.2076 41.4892 49.4276 41.649 49.682 41.6858L51.5015 41.9497L50.1854 43.2333C50.0013 43.4129 49.9173 43.6715 49.9608 43.9249L50.2721 45.7368L48.6446 44.8817C48.417 44.7621 48.1451 44.7622 47.9175 44.8818L46.2904 45.7378L46.6008 43.9258C46.6442 43.6723 46.5601 43.4137 46.3759 43.2343L45.0591 41.9514L46.8783 41.6865Z" fill="#E61C1C"/>
<path d="M48.28 52.845C53.7079 52.845 58.1238 48.4291 58.1238 43.0012C58.1238 39.0005 55.7347 35.4282 52.0374 33.9002C51.6383 33.7352 51.1817 33.9251 51.017 34.3238C50.8522 34.7226 51.0418 35.1794 51.4406 35.3442C54.5513 36.6297 56.5613 39.6354 56.5613 43.0012C56.5613 47.5676 52.8464 51.2825 48.28 51.2825C43.7137 51.2825 39.9988 47.5676 39.9988 43.0012C39.9988 39.6273 42.0153 36.619 45.1362 35.3373C45.5353 35.1734 45.726 34.7169 45.5621 34.3179C45.3982 33.9187 44.9418 33.7281 44.5427 33.8919C40.8332 35.4154 38.4363 38.991 38.4363 43.0012C38.4363 48.4291 42.8522 52.845 48.28 52.845Z" fill="#E61C1C"/>
<path d="M48.2902 34.72C48.4956 34.72 48.6972 34.6364 48.8425 34.4911C48.9878 34.3458 49.0714 34.1442 49.0714 33.9387C49.0714 33.7333 48.9878 33.5317 48.8425 33.3864C48.6972 33.2411 48.4956 33.1575 48.2902 33.1575C48.0847 33.1575 47.8831 33.2411 47.7378 33.3864C47.5917 33.5317 47.5089 33.7333 47.5089 33.9387C47.5089 34.1442 47.5917 34.3458 47.7378 34.4911C47.8831 34.6364 48.0847 34.72 48.2902 34.72Z" fill="#E61C1C"/>
</g>
</g>
<defs>
<filter id="filter0_d_125_418" x="0.280029" y="0" width="96" height="96" filterUnits="userSpaceOnUse" color-interpolation-filters="sRGB">
<feFlood flood-opacity="0" result="BackgroundImageFix"/>
<feColorMatrix in="SourceAlpha" type="matrix" values="0 0 0 0 0 0 0 0 0 0 0 0 0 0 0 0 0 0 127 0" result="hardAlpha"/>
<feOffset/>
<feGaussianBlur stdDeviation="6.5"/>
<feComposite in2="hardAlpha" operator="out"/>
<feColorMatrix type="matrix" values="0 0 0 0 0 0 0 0 0 0 0 0 0 0 0 0 0 0 0.15 0"/>
<feBlend mode="normal" in2="BackgroundImageFix" result="effect1_dropShadow_125_418"/>
<feBlend mode="normal" in="SourceGraphic" in2="effect1_dropShadow_125_418" result="shape"/>
</filter>
<clipPath id="clip0_125_418">
<rect width="40" height="40" fill="white" transform="translate(28.28 29.72)"/>
</clipPath>
</defs>
</svg>
