<svg width="125" height="35" viewBox="0 0 125 35" fill="none" xmlns="http://www.w3.org/2000/svg">
<g clip-path="url(#clip0_125_337)">
<path d="M36.7106 6.90788C38.0922 8.05919 39.9343 8.63485 42.0067 8.51972C42.6974 8.51972 43.3882 8.40459 44.1942 8.28945C42.8126 6.10195 40.9705 4.14472 38.6678 2.64801C36.4803 1.26643 34.1777 0.460507 31.8751 0.115112L33.9474 3.3388C34.6382 4.60524 35.5593 5.98682 36.7106 6.90788ZM17.829 21.1842C18.6349 19.8026 19.4409 18.421 19.556 16.9243C19.6711 15.773 19.2106 14.5066 18.7501 13.2401L18.4047 11.9737C17.7139 10.2467 16.908 8.51972 16.2172 6.90788C16.1021 6.67761 15.9869 6.56248 15.9869 6.44735C15.9869 6.33222 15.8718 6.33222 15.8718 6.21709C15.8718 6.10195 15.7567 5.98682 15.7567 5.98682C15.181 6.56248 14.7205 7.13814 14.2599 7.82893C10.0001 14.5066 10.806 22.796 15.5264 28.5526C15.4113 27.0559 15.6415 25.5592 16.2172 24.1776C16.6777 23.1414 17.2534 22.2204 17.829 21.1842ZM46.1514 21.7598H46.0363C45.806 21.7598 45.5757 21.7598 45.3455 21.7598C45.2303 21.7598 45.1152 21.7598 45.1152 21.7598C43.5034 21.9901 42.1218 22.3355 40.8553 23.0263C39.2435 24.0625 38.3224 25.9046 38.4376 27.7467C38.4376 28.3223 38.5527 28.7829 38.6678 29.3585C38.783 30.1645 39.0132 30.9704 39.0132 31.7763C40.9705 30.5098 42.5823 28.7829 43.9639 26.7105C44.8849 25.2138 45.6909 23.4868 46.1514 21.7598ZM45.2303 19.1118C45.6909 18.9967 46.1514 18.8816 46.6119 18.8816C46.7271 17.1546 46.6119 15.4276 46.2665 13.7006C46.0363 13.7006 45.806 13.8158 45.6909 13.8158C44.6547 14.046 43.6185 14.3914 42.5823 14.852C42.0067 15.0822 41.431 15.3125 40.9705 15.4276C39.4738 15.8881 37.2863 16.4638 35.0988 16.0033C34.2928 15.773 33.6021 15.5427 32.9113 15.0822C31.6448 14.2763 30.6086 13.0098 30.033 11.6283C29.5724 10.3618 29.4573 9.09538 29.3422 7.82893C29.3422 7.13814 29.2271 6.56248 29.1119 5.98682C28.9968 4.95064 28.6514 3.91445 28.0757 2.87827C27.5001 1.72695 26.9244 0.921033 26.3488 0.230244C24.0461 0.345375 21.8586 1.1513 19.9014 2.30261C19.7863 2.76314 19.556 3.10853 19.556 3.45393C19.2106 5.5263 20.7073 7.59867 21.8586 8.98024C21.9738 9.21051 22.0889 9.44077 22.3192 9.5559C23.8159 11.2829 25.4277 13.3552 25.7731 15.8881C26.1185 18.5362 25.0823 20.8388 24.1613 23.0263C23.3553 24.7533 22.6646 26.3651 22.6646 28.0921C22.6646 30.0493 23.7007 32.1217 25.5428 33.8487C25.8882 34.1941 26.3488 34.5395 26.8093 34.8848C27.8455 35 28.8817 35.1151 29.9178 35C30.3784 34.6546 30.8389 34.4243 31.1843 33.9638C32.1053 32.8125 32.3356 31.2006 32.4507 29.5888C32.4507 29.3585 32.4507 29.1283 32.4507 28.898C32.5659 27.171 32.5659 25.4441 33.3718 23.7171C34.2928 21.7598 36.0198 20.148 37.9771 19.5723C39.4738 19.1118 41.0856 19.1118 42.6974 19.1118H42.8126C43.6185 19.1118 44.4244 19.227 45.1152 19.1118H45.2303Z" fill="#9E9E9E"/>
<path d="M66.9902 17.8454V23.4868H64.227V17.8454L59.8521 8.86511H62.7303L65.4935 15.1973L68.2567 8.86511H71.3652L66.9902 17.8454Z" fill="#9E9E9E"/>
<path d="M73.0921 23.1415C72.4014 22.7961 71.9408 22.2204 71.5954 21.5296C71.25 20.8389 71.0198 20.0329 71.0198 19.1119V17.3849C71.0198 16.4639 71.25 15.6579 71.5954 14.9671C71.9408 14.2764 72.5165 13.8158 73.0921 13.4704C73.7829 13.125 74.5889 12.8948 75.5099 12.8948C76.431 12.8948 77.2369 13.125 77.9277 13.4704C78.6185 13.8158 79.079 14.3915 79.4244 14.9671C79.7698 15.6579 80 16.4639 80 17.3849V19.1119C80 20.0329 79.7698 20.8389 79.4244 21.5296C79.079 22.2204 78.5033 22.681 77.9277 23.0264C77.2369 23.3717 76.431 23.602 75.5099 23.602C74.5889 23.602 73.7829 23.4869 73.0921 23.1415ZM76.8915 20.4935C77.2369 20.1481 77.352 19.6875 77.352 19.1119V17.3849C77.352 16.8092 77.2369 16.3487 76.8915 16.0033C76.5461 15.6579 76.2007 15.5428 75.625 15.5428C75.0494 15.5428 74.5889 15.6579 74.3586 16.0033C74.0132 16.3487 73.8981 16.8092 73.8981 17.3849V19.1119C73.8981 19.6875 74.0132 20.1481 74.3586 20.4935C74.704 20.8389 75.0494 20.954 75.625 20.954C76.2007 20.954 76.5461 20.8389 76.8915 20.4935Z" fill="#9E9E9E"/>
<path d="M84.0297 23.1414C83.454 22.796 83.1086 22.2204 82.8784 21.6447C82.6481 20.9539 82.4178 20.148 82.4178 19.227V17.5C82.4178 16.5789 82.533 15.6579 82.8784 14.9671C83.2238 14.2763 83.5692 13.7006 84.0297 13.3552C84.4902 13.0099 85.181 12.7796 85.9869 12.7796C86.5626 12.7796 87.0231 12.8947 87.4836 13.2401C87.9442 13.5855 88.2896 14.046 88.635 14.6217L88.4047 16.9243C88.4047 16.5789 88.2896 16.2335 88.1744 16.0033C88.0593 15.773 87.829 15.5427 87.5988 15.4276C87.3685 15.3125 87.1382 15.1973 86.7929 15.1973C86.2172 15.1973 85.8718 15.4276 85.5264 15.773C85.2961 16.1184 85.0659 16.5789 85.0659 17.2697V18.9967C85.0659 19.5723 85.181 20.148 85.5264 20.4934C85.8718 20.8388 86.2172 20.9539 86.7929 20.9539C87.1382 20.9539 87.3685 20.8388 87.5988 20.7237C87.829 20.6085 88.0593 20.3783 88.1744 20.148C88.2896 19.9177 88.4047 19.5724 88.4047 19.227L88.5198 21.6447C88.2896 22.2204 87.9442 22.6809 87.4836 23.0263C87.0231 23.3717 86.5626 23.4868 85.8718 23.4868C85.181 23.7171 84.4902 23.4868 84.0297 23.1414ZM88.2896 8.86511H91.0527V23.602H88.2896V8.86511Z" fill="#9E9E9E"/>
<path d="M95.1974 23.1414C94.6217 22.796 94.2764 22.2203 94.0461 21.6447C93.8158 20.9539 93.5856 20.148 93.5856 19.2269V17.4999C93.5856 16.5789 93.7007 15.6578 94.0461 14.967C94.3915 14.2763 94.7369 13.7006 95.1974 13.3552C95.6579 13.0098 96.3487 12.7795 97.1546 12.7795C97.7303 12.7795 98.1908 12.8947 98.6514 13.2401C99.1119 13.5855 99.4573 14.046 99.8027 14.6216L99.5724 16.9243C99.5724 16.5789 99.4573 16.2335 99.3422 16.0032C99.227 15.773 98.9968 15.5427 98.7665 15.4276C98.5362 15.3124 98.306 15.1973 97.9606 15.1973C97.3849 15.1973 97.0395 15.4276 96.6941 15.773C96.4639 16.1184 96.2336 16.5789 96.2336 17.2697V18.9966C96.2336 19.5723 96.3487 20.148 96.6941 20.4934C97.0395 20.8388 97.3849 20.9539 97.9606 20.9539C98.306 20.9539 98.5362 20.8388 98.7665 20.7236C98.9968 20.6085 99.227 20.3782 99.3422 20.148C99.4573 19.9177 99.5724 19.5723 99.5724 19.2269L99.6875 21.6447C99.4573 22.2203 99.1119 22.6809 98.6514 23.0263C98.1908 23.3716 97.7303 23.4868 97.0395 23.4868C96.3487 23.717 95.6579 23.4868 95.1974 23.1414ZM96.3487 27.8618C96.3487 27.8618 96.0033 27.7466 95.3125 27.4013C94.6218 27.0559 94.1612 26.7105 93.8158 26.1348L95.6579 24.4078C95.8882 24.6381 96.2336 24.8684 96.4639 24.9835C96.8093 25.0986 97.1546 25.2138 97.5 25.2138C98.0757 25.2138 98.5362 25.0986 98.8816 24.7532C99.227 24.4078 99.4573 23.9473 99.4573 23.4868V13.1249H102.22V23.3716C102.22 24.2927 101.99 25.2138 101.645 25.9045C101.299 26.5953 100.724 27.171 100.033 27.5164C99.3421 27.8618 98.4211 28.092 97.5 28.092C96.6941 27.8618 96.3487 27.8618 96.3487 27.8618Z" fill="#9E9E9E"/>
<path d="M103.602 13.0099H106.25L109.819 22.1053L108.092 24.2928L103.602 13.0099ZM113.273 13.0099L108.553 26.0198C108.322 26.4803 108.207 26.8257 107.862 27.1711C107.632 27.4013 107.286 27.6316 106.941 27.7467C106.595 27.8619 106.135 27.977 105.559 27.977H104.984V25.329H105.559C105.905 25.329 106.135 25.2138 106.25 25.0987C106.48 24.9836 106.595 24.7533 106.711 24.4079L110.625 13.0099H113.273Z" fill="#9E9E9E"/>
</g>
<defs>
<clipPath id="clip0_125_337">
<rect width="101.776" height="35" fill="white" transform="translate(11.4968)"/>
</clipPath>
</defs>
</svg>
