<svg width="1512" height="944" viewBox="0 0 1512 944" fill="none" xmlns="http://www.w3.org/2000/svg">
<path d="M1439.01 83.9113C1417.3 83.9224 1396.48 86.9791 1381.13 92.4101C1365.79 97.8411 1357.17 105.202 1357.17 112.877C1357.17 112.877 1385.8 164.776 1357.17 177.313C1345.63 182.347 1296.67 181.903 1283.56 177.313C1232.35 159.205 1283.56 74.9412 1283.56 74.9412C1283.56 71.1366 1281.44 67.3693 1277.32 63.8544C1273.2 60.3395 1267.16 57.1459 1259.55 54.4561C1251.93 51.7662 1242.9 49.6328 1232.95 48.1776C1223 46.7224 1212.34 45.974 1201.58 45.9751C1179.87 45.9862 1159.06 49.0394 1143.72 54.465C1128.38 59.8905 1119.75 67.2453 1119.73 74.916C1119.73 74.916 1152.62 110.998 1107.08 130.902C1095.54 135.936 1046.58 135.491 1033.47 130.902C959.27 104.679 1046.12 28.9663 1046.12 28.9663C1046.12 25.1617 1044 21.3944 1039.88 17.8795C1035.76 14.3646 1029.72 11.1711 1022.11 8.48119C1014.5 5.79133 1005.46 3.65788 995.511 2.20269C985.564 0.747496 974.903 -0.000929484 964.138 0.000172656C942.42 0.0112894 921.603 3.06798 906.258 8.49898C890.912 13.93 882.293 21.2913 882.293 28.9663C882.293 28.9663 950.556 134.434 884.667 163.274C875.787 167.16 838.13 166.807 828.134 163.274C761.912 139.88 825.759 44.9597 825.759 44.9597C825.759 37.2767 817.125 29.9082 801.754 24.4746C786.384 19.0411 765.536 15.9875 743.796 15.9852C722.051 15.9852 701.198 19.0379 685.822 24.4717C670.446 29.9055 661.809 37.2752 661.809 44.9597C661.809 44.9597 724.231 117.895 665.37 143.631C656.822 147.373 620.518 147.038 610.76 143.631C559.544 125.531 607.198 74.9244 607.198 74.9244C607.198 67.2421 598.562 59.8745 583.191 54.4423C567.82 49.0101 546.973 45.9583 525.234 45.9583C514.469 45.9572 503.808 46.7056 493.861 48.1608C483.914 49.616 474.876 51.7494 467.262 54.4393C459.649 57.1292 453.609 60.3227 449.489 63.8376C445.368 67.3525 443.247 71.1198 443.247 74.9244C443.247 74.9244 488.788 157.409 443.247 177.296C433.489 181.567 392.056 181.181 381.062 177.296C306.863 151.065 381.062 28.9495 381.062 28.9495C381.065 25.1453 378.948 21.3782 374.83 17.8634C370.712 14.3485 364.674 11.1549 357.063 8.46492C349.451 5.77495 340.414 3.64136 330.469 2.18607C320.523 0.730773 309.863 -0.0177029 299.099 -0.0166003C288.333 -0.0177025 277.673 0.73071 267.726 2.1859C257.779 3.64109 248.74 5.77454 241.127 8.46441C233.513 11.1543 227.474 14.3478 223.353 17.8627C219.233 21.3776 217.112 25.1449 217.112 28.9495C217.112 28.9495 282.977 127.478 217.112 156.327C207.781 160.405 168.247 160.027 157.752 156.327C125.508 144.931 157.752 112.861 157.752 112.861C157.756 109.056 155.638 105.289 151.52 101.774C147.402 98.2596 141.364 95.066 133.753 92.376C126.141 89.6861 117.104 87.5525 107.159 86.0972C97.213 84.6419 86.5534 83.8934 75.7889 83.8945C65.0245 83.8934 54.3649 84.6419 44.4192 86.0972C34.4735 87.5525 25.4367 89.6861 17.8251 92.376C10.2135 95.066 4.17619 98.2596 0.0582476 101.774C-4.0597 105.289 -6.17761 109.056 -6.17449 112.861V177.296H-9V778.653H-7.59909V915.009C-7.59909 922.693 1.03882 930.063 16.4144 935.497C31.79 940.931 52.6437 943.983 74.3881 943.983C96.1283 943.981 116.976 940.928 132.346 935.494C147.717 930.06 156.352 922.692 156.352 915.009C156.352 915.009 92.7183 821.028 160.934 796.904C171.429 793.195 210.962 792.826 220.293 796.904C243.61 807.108 215.711 831.098 215.711 831.098C215.711 838.781 224.346 846.149 239.716 851.583C255.086 857.016 275.934 860.07 297.674 860.072C319.419 860.072 340.272 857.02 355.648 851.586C371.024 846.152 379.661 838.782 379.661 831.098C379.661 831.098 328.209 788.832 354.422 779.56C365.415 775.674 416.607 766.839 441.846 778.653C483.778 798.289 441.846 877.048 441.846 877.048C441.837 880.852 443.949 884.62 448.061 888.136C452.172 891.652 458.204 894.848 465.811 897.54C473.418 900.232 482.451 902.368 492.394 903.827C502.338 905.285 512.997 906.037 523.762 906.039C534.528 906.039 545.188 905.289 555.134 903.833C565.08 902.377 574.116 900.243 581.728 897.552C589.339 894.861 595.376 891.667 599.494 888.152C603.611 884.636 605.729 880.869 605.726 877.064C605.726 877.064 533.616 807.628 582.837 790.233C592.477 786.826 619.402 772.612 668.481 786.516C706.281 797.206 660.241 847.1 660.241 847.1C660.238 850.904 662.356 854.671 666.474 858.186C670.592 861.701 676.629 864.894 684.241 867.584C691.853 870.274 700.889 872.408 710.835 873.863C720.781 875.318 731.44 876.067 742.205 876.066C752.969 876.067 763.629 875.318 773.575 873.863C783.52 872.408 792.557 870.274 800.169 867.584C807.78 864.894 813.818 861.701 817.936 858.186C822.054 854.671 824.172 850.904 824.168 847.1C824.168 847.1 789.954 790.77 824.168 778.67C834.164 775.138 871.822 774.785 880.702 778.67C904.019 788.874 880.702 831.115 880.702 831.115C880.702 838.799 889.34 846.169 904.716 851.603C920.091 857.036 940.945 860.089 962.689 860.089C973.455 860.089 984.115 859.34 994.061 857.883C1004.01 856.427 1013.04 854.293 1020.65 851.602C1028.27 848.911 1034.3 845.717 1038.42 842.202C1042.54 838.687 1044.66 834.919 1044.65 831.115C1044.65 831.115 1006.09 803.164 1026.87 792.297C1057.74 776.111 1121.54 784.938 1133.1 789.981C1176.83 809.121 1118.14 877.064 1118.14 877.064C1118.14 884.749 1126.78 892.119 1142.15 897.552C1157.53 902.986 1178.38 906.039 1200.13 906.039C1210.89 906.039 1221.55 905.289 1231.5 903.833C1241.44 902.377 1250.48 900.243 1258.09 897.552C1265.7 894.861 1271.74 891.667 1275.86 888.152C1279.98 884.636 1282.09 880.869 1282.09 877.064C1282.09 877.064 1232.87 796.065 1282.09 778.67C1295.08 774.08 1344.04 773.635 1355.7 778.67C1416.34 805.186 1355.7 915.026 1355.7 915.026C1355.7 922.71 1364.33 930.08 1379.71 935.514C1395.09 940.948 1415.94 944 1437.68 944C1448.45 944 1459.11 943.251 1469.05 941.795C1479 940.338 1488.04 938.204 1495.65 935.513C1503.26 932.823 1509.3 929.628 1513.41 926.113C1517.53 922.598 1519.65 918.83 1519.65 915.026V778.67H1521.07V112.877C1521.07 109.071 1518.95 105.301 1514.82 101.785C1510.7 98.2683 1504.65 95.0736 1497.03 92.3834C1489.41 89.6932 1480.36 87.5603 1470.41 86.1066C1460.45 84.6528 1449.78 83.9069 1439.01 83.9113Z" fill="#9D5FED"/>
</svg>
