<svg width="1512" height="1614" viewBox="0 0 1512 1614" fill="none" xmlns="http://www.w3.org/2000/svg">
<path d="M1389.42 114.259C1404.95 107.545 1426.01 103.766 1447.98 103.752C1458.88 103.747 1469.67 104.669 1479.74 106.466C1489.81 108.263 1498.97 110.9 1506.68 114.226C1514.39 117.551 1520.51 121.5 1524.68 125.848C1528.85 130.195 1531 134.854 1531 139.56V1926H-16.1249V962.597H-17V219.195H-14.1414V139.54C-14.1445 134.837 -12.0018 130.18 -7.83561 125.835C-3.66942 121.49 2.43859 117.542 10.1394 114.216C17.8402 110.891 26.9829 108.253 37.0452 106.454C47.1074 104.655 57.8918 103.73 68.7824 103.731C79.673 103.73 90.4576 104.655 100.52 106.454C110.582 108.253 119.725 110.891 127.426 114.216C135.126 117.542 141.234 121.49 145.401 125.835C149.567 130.18 151.709 134.837 151.706 139.54C151.706 139.54 119.084 179.186 151.706 193.273C162.324 197.847 202.321 198.314 211.761 193.273C278.398 157.61 211.761 35.8081 211.761 35.8081C211.761 31.1048 213.907 26.4477 218.076 22.1025C222.245 17.7574 228.355 13.8095 236.058 10.4843C243.76 7.15905 252.905 4.52166 262.968 2.72275C273.032 0.923831 283.817 -0.00136097 294.709 1.5035e-06C305.6 -0.00136142 316.384 0.92391 326.446 2.72295C336.509 4.522 345.651 7.15955 353.352 10.4849C361.053 13.8103 367.161 17.7583 371.327 22.1033C375.493 26.4484 377.636 31.1053 377.633 35.8081C377.633 35.8081 302.564 186.769 377.633 219.195C388.755 223.998 430.673 224.475 440.547 219.195C486.621 194.611 440.547 92.6426 440.547 92.6426C440.547 87.9393 442.692 83.2821 446.861 78.937C451.03 74.5919 457.14 70.644 464.843 67.3188C472.546 63.9935 481.69 61.3561 491.753 59.5572C501.817 57.7583 512.603 56.8331 523.494 56.8345C545.487 56.8345 566.579 60.6071 582.13 67.3224C597.682 74.0378 606.418 83.1457 606.418 92.6426C606.418 92.6426 558.206 155.203 610.022 177.578C619.895 181.789 656.624 182.204 665.272 177.578C724.823 145.763 661.669 55.6001 661.669 55.6001C661.669 46.1004 670.408 36.9898 685.964 30.2726C701.519 23.5553 722.617 19.7816 744.617 19.7816C766.612 19.7843 787.704 23.5593 803.254 30.2763C818.805 36.9932 827.541 46.1022 827.541 55.6001C827.541 55.6001 762.945 172.941 829.943 201.861C840.056 206.229 878.155 206.664 887.139 201.861C953.8 166.209 884.737 35.8288 884.737 35.8288C884.737 26.3409 893.457 17.2409 908.982 10.527C924.508 3.81318 945.569 0.0344791 967.541 0.0207364C978.432 0.0193739 989.218 0.944582 999.281 2.7435C1009.34 4.54241 1018.49 7.1798 1026.19 10.505C1033.89 13.8303 1040.01 17.7782 1044.17 22.1233C1048.34 26.4684 1050.49 31.1256 1050.49 35.8288C1050.49 35.8288 962.616 129.426 1037.68 161.842C1050.94 167.516 1100.48 168.066 1112.15 161.842C1158.23 137.237 1124.96 92.6322 1124.96 92.6322C1124.98 83.1497 1133.7 74.0576 1149.23 67.3505C1164.75 60.6434 1185.8 56.869 1207.76 56.8552C1218.65 56.8539 1229.44 57.7791 1239.5 59.578C1249.56 61.3769 1258.71 64.0143 1266.41 67.3395C1274.11 70.6647 1280.22 74.6126 1284.39 78.9578C1288.56 83.3029 1290.71 87.9601 1290.71 92.6633C1290.71 92.6633 1238.89 196.83 1290.71 219.216C1303.97 224.89 1353.5 225.44 1365.18 219.216C1394.15 203.718 1365.18 139.56 1365.18 139.56C1365.18 130.072 1373.9 120.972 1389.42 114.259Z" fill="#7668FD"/>
</svg>
