<svg width="428" height="1062" viewBox="0 0 428 1062" fill="none" xmlns="http://www.w3.org/2000/svg">
<path d="M393.032 63.0617C397.415 59.3562 403.361 57.2706 409.563 57.263C412.64 57.26 415.687 57.769 418.53 58.7609C421.373 59.7527 423.957 61.208 426.134 63.0435C428.311 64.879 430.037 67.0587 431.215 69.4579C432.394 71.8572 433 74.429 433 77.0263V1063H-3.75297V531.278H-4V120.978H-3.19301V77.0148C-3.1939 74.4193 -2.58901 71.849 -1.4129 69.4509C-0.236779 67.0528 1.48751 64.8738 3.66145 63.0384C5.83539 61.2031 8.41637 59.7474 11.2569 58.7545C14.0975 57.7615 17.1419 57.2508 20.2164 57.2516C23.2908 57.2508 26.3352 57.7615 29.1758 58.7545C32.0164 59.7474 34.5973 61.2031 36.7713 63.0384C38.9452 64.8738 40.6695 67.0528 41.8456 69.4509C43.0218 71.849 43.6266 74.4193 43.6258 77.0148C43.6258 77.0148 34.4166 98.8964 43.6258 106.671C46.6231 109.196 57.9142 109.454 60.5792 106.671C79.3908 86.9881 60.5792 19.7632 60.5792 19.7632C60.5792 17.1674 61.185 14.597 62.3618 12.1989C63.5387 9.80069 65.2636 7.62176 67.4381 5.7865C69.6126 3.95123 72.194 2.4956 75.0349 1.50274C77.8759 0.509882 80.9207 -0.000751148 83.9954 8.29812e-07C87.0698 -0.000751397 90.1143 0.509925 92.9548 1.50286C95.7954 2.49579 98.3764 3.95151 100.55 5.78684C102.724 7.62218 104.449 9.80117 105.625 12.1993C106.801 14.5974 107.406 17.1677 107.405 19.7632C107.405 19.7632 86.2129 103.081 107.405 120.978C110.545 123.629 122.378 123.892 125.165 120.978C138.172 107.41 125.165 51.1314 125.165 51.1314C125.165 48.5356 125.771 45.9652 126.948 43.567C128.125 41.1688 129.85 38.9899 132.024 37.1546C134.199 35.3194 136.78 33.8637 139.621 32.8709C142.462 31.878 145.507 31.3674 148.581 31.3681C154.79 31.3681 160.744 33.4503 165.134 37.1567C169.524 40.863 171.991 45.8899 171.991 51.1314C171.991 51.1314 158.381 85.6598 173.008 98.009C175.795 100.333 186.164 100.562 188.605 98.009C205.416 80.4499 187.588 30.6869 187.588 30.6869C187.588 25.4438 190.055 20.4155 194.446 16.7081C198.838 13.0007 204.794 10.9179 211.004 10.9179C217.213 10.9194 223.168 13.0029 227.558 16.7101C231.947 20.4173 234.414 25.4448 234.414 30.6869C234.414 30.6869 216.178 95.4499 235.092 111.412C237.947 113.822 248.702 114.062 251.238 111.412C270.057 91.7342 250.56 19.7747 250.56 19.7747C250.56 14.5381 253.022 9.51559 257.405 5.81008C261.787 2.10458 267.733 0.0190297 273.936 0.0114449C277.01 0.0106929 280.055 0.521335 282.896 1.51419C285.737 2.50705 288.318 3.96269 290.493 5.79795C292.667 7.63321 294.392 9.81215 295.569 12.2103C296.746 14.6085 297.352 17.1789 297.352 19.7747C297.352 19.7747 272.545 71.4328 293.737 89.3239C297.481 92.4556 311.464 92.759 314.76 89.3239C327.766 75.7439 318.374 51.1257 318.374 51.1257C318.379 45.8921 320.843 40.8739 325.226 37.1721C329.608 33.4704 335.55 31.3872 341.749 31.3796C344.824 31.3788 347.869 31.8895 350.71 32.8823C353.551 33.8752 356.132 35.3308 358.307 37.1661C360.481 39.0014 362.206 41.1803 363.383 43.5785C364.56 45.9766 365.166 48.547 365.166 51.1428C365.166 51.1428 350.538 108.635 365.166 120.99C368.909 124.121 382.892 124.425 386.188 120.99C394.366 112.436 386.188 77.0263 386.188 77.0263C386.188 71.7897 388.65 66.7672 393.032 63.0617Z" fill="#7668FD"/>
</svg>
