<svg width="428" height="604" viewBox="0 0 428 604" fill="none" xmlns="http://www.w3.org/2000/svg">
<path d="M409.456 53.6987C403.225 53.7058 397.252 55.6615 392.85 59.1364C388.447 62.6112 385.974 67.3211 385.974 72.2317C385.974 72.2317 394.19 105.438 385.974 113.459C382.663 116.68 368.616 116.395 364.855 113.459C350.161 101.873 364.855 47.9594 364.855 47.9594C364.855 45.5252 364.247 43.1148 363.064 40.8659C361.882 38.617 360.149 36.5737 357.965 34.8527C355.781 33.1316 353.187 31.7666 350.333 30.8356C347.479 29.9045 344.421 29.4257 341.332 29.4264C335.104 29.4335 329.135 31.387 324.732 34.8583C320.33 38.3297 317.855 43.0355 317.849 47.9433C317.849 47.9433 327.285 71.0291 314.218 83.7639C310.908 86.9852 296.86 86.7006 293.1 83.7639C271.811 66.9864 296.731 18.5438 296.731 18.5438C296.731 16.1096 296.122 13.6992 294.94 11.4503C293.758 9.20138 292.025 7.15808 289.841 5.43705C287.656 3.71603 285.063 2.351 282.209 1.41994C279.355 0.488884 276.296 0.0100273 273.208 0.0107325C266.976 0.0178452 261.004 1.97358 256.601 5.44843C252.198 8.92329 249.725 13.6332 249.725 18.5438C249.725 18.5438 269.311 86.0242 250.406 104.477C247.858 106.962 237.054 106.737 234.186 104.477C215.186 89.5085 233.505 28.7767 233.505 28.7767C233.505 23.861 231.027 19.1464 226.617 15.67C222.207 12.1935 216.226 10.2397 209.988 10.2383C203.749 10.2383 197.766 12.1914 193.355 15.6681C188.943 19.1447 186.465 23.86 186.465 28.7767C186.465 28.7767 204.375 75.4423 187.487 91.9084C185.034 94.3029 174.618 94.0881 171.818 91.9084C157.124 80.3279 170.796 47.9487 170.796 47.9487C170.796 43.0334 168.319 38.3195 163.908 34.8438C159.498 31.3682 153.517 29.4156 147.28 29.4156C144.191 29.4149 141.132 29.8938 138.278 30.8248C135.424 31.7559 132.831 33.1209 130.647 34.8419C128.462 36.563 126.729 38.6063 125.547 40.8552C124.365 43.104 123.756 45.5144 123.756 47.9487C123.756 47.9487 136.823 100.724 123.756 113.448C120.956 116.181 109.069 115.934 105.915 113.448C84.6258 96.6651 105.915 18.5331 105.915 18.5331C105.916 16.0991 105.308 13.6888 104.126 11.4399C102.945 9.19109 101.213 7.14773 99.0288 5.42664C96.8449 3.70554 94.2521 2.34043 91.3986 1.40931C88.545 0.478185 85.4866 -0.000704626 82.3981 7.7816e-07C79.3093 -0.000704393 76.2506 0.478144 73.3966 1.4092C70.5427 2.34026 67.9495 3.70529 65.765 5.42631C63.5806 7.14734 61.8478 9.19064 60.6655 11.4395C59.4833 13.6884 58.8748 16.0988 58.8748 18.5331C58.8748 18.5331 77.7725 81.5735 58.8748 100.031C56.1975 102.641 44.8548 102.399 41.8437 100.031C32.5924 92.7405 41.8437 72.221 41.8437 72.221C41.8446 69.787 41.237 67.3767 40.0555 65.1279C38.874 62.879 37.1418 60.8357 34.9579 59.1146C32.774 57.3935 30.1812 56.0284 27.3276 55.0972C24.4741 54.1661 21.4157 53.6872 18.3272 53.6879C15.2387 53.6872 12.1803 54.1661 9.32676 55.0972C6.4732 56.0284 3.8804 57.3935 1.69651 59.1146C-0.487377 60.8357 -2.21956 62.879 -3.40106 65.1279C-4.58255 67.3767 -5.19021 69.787 -5.18932 72.221V113.448H-6V498.208H-5.59806V585.451C-5.59806 590.368 -3.11972 595.083 1.29176 598.56C5.70324 602.036 11.6865 603.989 17.9253 603.989C24.1629 603.988 30.1444 602.034 34.5544 598.558C38.9644 595.081 41.4418 590.367 41.4418 585.451C41.4418 585.451 23.1845 525.32 42.7566 509.885C45.7677 507.512 57.1104 507.276 59.7877 509.885C66.4775 516.414 58.4729 531.763 58.4729 531.763C58.4729 536.679 60.9503 541.393 65.3603 544.87C69.7703 548.346 75.7518 550.3 81.9894 550.301C88.2282 550.301 94.2114 548.348 98.6229 544.872C103.034 541.395 105.513 536.68 105.513 531.763C105.513 531.763 90.7502 504.72 98.2711 498.788C101.425 496.302 116.113 490.649 123.354 498.208C135.385 510.771 123.354 561.162 123.354 561.162C123.352 563.597 123.958 566.008 125.137 568.257C126.317 570.507 128.048 572.551 130.23 574.274C132.413 575.996 135.005 577.363 137.857 578.296C140.71 579.229 143.769 579.71 146.857 579.712C149.946 579.712 153.005 579.232 155.858 578.3C158.712 577.369 161.305 576.003 163.488 574.282C165.672 572.56 167.404 570.516 168.586 568.267C169.767 566.018 170.375 563.607 170.374 561.173C170.374 561.173 149.685 516.746 163.807 505.617C166.573 503.437 174.298 494.342 188.379 503.239C199.225 510.078 186.015 542.001 186.015 542.001C186.014 544.435 186.622 546.845 187.803 549.094C188.985 551.343 190.717 553.387 192.901 555.108C195.085 556.829 197.678 558.194 200.531 559.125C203.385 560.056 206.443 560.535 209.532 560.534C212.62 560.535 215.679 560.056 218.532 559.125C221.386 558.194 223.979 556.829 226.162 555.108C228.346 553.387 230.079 551.343 231.26 549.094C232.442 546.845 233.049 544.435 233.048 542.001C233.048 542.001 223.232 505.961 233.048 498.219C235.916 495.958 246.721 495.733 249.269 498.219C255.958 504.747 249.269 531.774 249.269 531.774C249.269 536.69 251.747 541.406 256.158 544.882C260.57 548.359 266.553 550.312 272.792 550.312C275.881 550.312 278.939 549.833 281.793 548.901C284.647 547.969 287.239 546.604 289.423 544.882C291.607 543.161 293.339 541.117 294.52 538.868C295.702 536.618 296.309 534.208 296.309 531.774C296.309 531.774 285.245 513.89 291.206 506.938C300.062 496.581 318.367 502.229 321.685 505.456C334.233 517.702 317.393 561.173 317.393 561.173C317.393 566.09 319.871 570.805 324.283 574.282C328.694 577.758 334.678 579.712 340.916 579.712C344.005 579.712 347.064 579.232 349.917 578.3C352.771 577.369 355.364 576.003 357.547 574.282C359.731 572.56 361.463 570.516 362.645 568.267C363.826 566.018 364.434 563.607 364.433 561.173C364.433 561.173 350.311 509.348 364.433 498.219C368.159 495.282 382.206 494.997 385.551 498.219C402.95 515.184 385.551 585.462 385.551 585.462C385.551 590.378 388.03 595.094 392.441 598.57C396.853 602.047 402.836 604 409.075 604C412.163 604 415.222 603.521 418.076 602.589C420.929 601.657 423.522 600.291 425.706 598.57C427.89 596.848 429.622 594.805 430.803 592.556C431.984 590.306 432.592 587.896 432.591 585.462V498.219H433V72.2317C433 69.7961 432.391 67.3844 431.207 65.1345C430.024 62.8845 428.289 60.8405 426.103 59.1193C423.916 57.398 421.32 56.0334 418.464 55.1032C415.608 54.1731 412.547 53.6958 409.456 53.6987Z" fill="#9D5FED"/>
</svg>
