<svg width="428" height="2029" viewBox="0 0 428 2029" fill="none" xmlns="http://www.w3.org/2000/svg">
<path d="M399.386 126.791C403.95 119.34 410.14 115.147 416.598 115.132C419.801 115.126 422.974 116.149 425.934 118.144C428.895 120.138 431.585 123.064 433.851 126.754C436.117 130.444 437.915 134.827 439.142 139.651C440.369 144.475 441 149.646 441 154.868V1802.2H440.576V1989.25C440.577 1994.47 439.948 1999.64 438.723 2004.46C437.499 2009.28 435.703 2013.67 433.44 2017.36C431.177 2021.05 428.489 2023.98 425.532 2025.97C422.574 2027.97 419.404 2029 416.203 2029C409.737 2029 403.535 2024.81 398.963 2017.36C394.391 2009.9 391.822 1999.79 391.822 1989.25C391.822 1989.25 409.855 1838.58 391.822 1802.2C388.355 1795.29 373.796 1795.9 369.934 1802.2C355.297 1826.06 369.934 1937.18 369.934 1937.18C369.935 1942.4 369.305 1947.56 368.081 1952.39C366.856 1957.21 365.061 1961.59 362.797 1965.28C360.534 1968.97 357.847 1971.9 354.889 1973.9C351.932 1975.9 348.762 1976.92 345.56 1976.92C339.094 1976.92 332.893 1972.74 328.32 1965.28C323.748 1957.83 321.18 1947.72 321.18 1937.18C321.18 1937.18 338.634 1843.97 325.628 1817.72C322.189 1810.8 303.217 1798.69 294.038 1820.89C287.86 1835.8 299.327 1874.14 299.327 1874.14C299.328 1879.36 298.698 1884.53 297.473 1889.35C296.249 1894.18 294.454 1898.56 292.19 1902.25C289.927 1905.94 287.24 1908.87 284.282 1910.87C281.324 1912.86 278.154 1913.89 274.953 1913.89C268.487 1913.89 262.286 1909.7 257.713 1902.25C253.141 1894.8 250.572 1884.69 250.572 1874.14C250.572 1874.14 257.506 1816.2 250.572 1802.2C247.932 1796.87 236.733 1797.35 233.761 1802.2C223.586 1818.8 233.761 1896.07 233.761 1896.07C233.762 1901.29 233.132 1906.46 231.907 1911.28C230.683 1916.1 228.887 1920.48 226.624 1924.17C224.36 1927.86 221.673 1930.79 218.716 1932.79C215.758 1934.78 212.588 1935.81 209.387 1935.81C206.186 1935.81 203.016 1934.78 200.059 1932.79C197.101 1930.79 194.414 1927.86 192.15 1924.17C189.887 1920.48 188.092 1916.1 186.867 1911.28C185.642 1906.46 185.013 1901.29 185.014 1896.07C185.014 1896.07 198.704 1827.63 187.464 1812.96C174.297 1795.76 166.493 1809.94 162.986 1816.31C162.606 1817.01 162.276 1817.61 161.996 1818.06C147.359 1841.92 168.802 1937.18 168.802 1937.18C168.803 1942.4 168.173 1947.56 166.949 1952.39C165.724 1957.21 163.929 1961.59 161.666 1965.28C159.402 1968.97 156.715 1971.9 153.758 1973.9C150.8 1975.9 147.63 1976.92 144.428 1976.92C141.227 1976.92 138.057 1975.89 135.101 1973.89C132.144 1971.89 129.457 1968.96 127.195 1965.27C124.933 1961.57 123.14 1957.19 121.917 1952.37C120.694 1947.54 120.066 1942.37 120.069 1937.15C120.069 1937.15 132.538 1829.11 120.069 1802.18C112.563 1785.97 97.3405 1798.09 94.0714 1803.42C86.2764 1816.14 101.577 1874.12 101.577 1874.12C101.577 1884.66 99.0083 1894.77 94.436 1902.23C89.8638 1909.68 83.6624 1913.87 77.1963 1913.87C70.7314 1913.86 64.5318 1909.68 59.9611 1902.22C55.3904 1894.77 52.8227 1884.66 52.8227 1874.12C52.8227 1874.12 61.119 1841.21 54.1854 1827.21C51.4105 1821.62 39.6544 1822.13 36.5336 1827.21C16.2481 1860.31 35.1709 1989.23 35.1709 1989.23C35.1709 1999.77 32.6032 2009.88 28.0324 2017.33C23.4617 2024.79 17.2622 2028.97 10.7973 2028.98C4.3311 2028.98 -1.87021 2024.79 -6.44248 2017.34C-11.0147 2009.88 -13.5834 1999.77 -13.5834 1989.23V1802.18H-14V243.237H-13.1598V154.845C-13.1607 149.626 -12.5309 144.458 -11.3063 139.637C-10.0818 134.815 -8.28646 130.434 -6.02298 126.744C-3.75949 123.054 -1.0722 120.127 1.88536 118.131C4.84293 116.134 8.01278 115.108 11.2138 115.109C14.4149 115.108 17.5848 116.134 20.5423 118.131C23.4999 120.127 26.1872 123.054 28.4507 126.744C30.7141 130.434 32.5095 134.815 33.734 139.637C34.9586 144.458 35.5884 149.626 35.5875 154.845C35.5875 154.845 25.999 198.839 35.5875 214.471C38.7083 219.548 50.4644 220.066 53.2393 214.471C72.8257 174.897 53.2393 39.7356 53.2393 39.7356C53.2393 34.5165 53.8699 29.3485 55.0953 24.5268C56.3206 19.7051 58.1166 15.3242 60.3806 11.6342C62.6447 7.94428 65.3324 5.01761 68.2904 3.02139C71.2483 1.02516 74.4186 -0.00151025 77.6199 1.66841e-06C80.821 -0.00151075 83.9909 1.02525 86.9484 3.02161C89.906 5.01798 92.5933 7.94483 94.8568 11.6349C97.1202 15.325 98.9155 19.7061 100.14 24.5277C101.365 29.3493 101.994 34.5171 101.994 39.7356C101.994 39.7356 79.9288 207.254 101.994 243.237C105.263 248.567 117.584 249.096 120.486 243.237C134.028 215.956 120.486 102.804 120.486 102.804C120.486 97.5848 121.116 92.4168 122.342 87.5951C123.567 82.7734 125.363 78.3924 127.627 74.7025C129.891 71.0125 132.579 68.0859 135.537 66.0896C138.495 64.0934 141.665 63.0667 144.866 63.0682C151.331 63.0682 157.53 67.2547 162.101 74.7066C166.672 82.1584 169.24 92.2654 169.24 102.804C169.24 102.804 155.069 172.226 170.299 197.055C173.201 201.729 183.997 202.189 186.539 197.055C204.042 161.751 185.48 61.6984 185.48 61.6984C185.48 51.1568 188.048 41.047 192.62 33.593C197.193 26.1389 203.394 21.9513 209.86 21.9513C216.325 21.9543 222.525 26.1433 227.095 33.597C231.666 41.0507 234.234 51.1588 234.234 61.6984C234.234 61.6984 215.248 191.91 234.94 224.002C237.912 228.848 249.111 229.332 251.751 224.002C271.345 184.439 251.045 39.7587 251.045 39.7587C251.045 29.2301 253.608 19.1319 258.172 11.6817C262.735 4.23142 268.926 0.0382608 275.384 0.0230108C278.585 0.0214989 281.755 1.04819 284.713 3.04441C287.671 5.04064 290.359 7.96731 292.623 11.6573C294.887 15.3472 296.683 19.7281 297.908 24.5498C299.134 29.3715 299.764 34.5395 299.764 39.7587C299.764 39.7587 273.936 143.622 296.001 179.593C299.899 185.89 314.458 186.5 317.889 179.593C331.432 152.289 321.653 102.792 321.653 102.792C321.658 92.2698 324.224 82.1804 328.786 74.7377C333.349 67.2949 339.536 63.1065 345.991 63.0913C349.192 63.0898 352.362 64.1164 355.32 66.1127C358.278 68.1089 360.966 71.0356 363.23 74.7255C365.494 78.4154 367.29 82.7964 368.516 87.6181C369.741 92.4398 370.372 97.6078 370.372 102.827C370.372 102.827 355.142 218.419 370.372 243.26C374.269 249.556 388.828 250.167 392.26 243.26C400.775 226.063 392.26 154.868 392.26 154.868C392.26 144.339 394.823 134.241 399.386 126.791Z" fill="url(#paint0_linear_230_137)"/>
<defs>
<linearGradient id="paint0_linear_230_137" x1="-102.011" y1="-435.261" x2="1073.41" y2="-150.077" gradientUnits="userSpaceOnUse">
<stop stop-color="#EA6EE7"/>
<stop offset="0.244792" stop-color="#FD68E3"/>
<stop offset="0.5" stop-color="#B66FFA"/>
<stop offset="0.739583" stop-color="#7668FD"/>
<stop offset="1" stop-color="#7D2AE7"/>
</linearGradient>
</defs>
</svg>
