<svg width="1512" height="5326" viewBox="0 0 1512 5326" fill="none" xmlns="http://www.w3.org/2000/svg">
<path fill-rule="evenodd" clip-rule="evenodd" d="M1381.16 225.939C1396.49 212.662 1417.3 205.19 1439 205.163C1449.76 205.152 1460.42 206.976 1470.37 210.53C1480.32 214.083 1489.36 219.297 1496.98 225.873C1504.59 232.45 1510.63 240.259 1514.76 248.855C1518.88 257.452 1521 266.666 1521 275.971V1903.51H1519.58V1932.13H1521V5326H-8V1932.13H-6.60007V1903.47H-8V433.444H-5.17647V275.93C-5.17958 266.631 -3.06315 257.422 1.05191 248.83C5.16697 240.238 11.2 232.431 18.8063 225.855C26.4126 219.28 35.4431 214.064 45.3818 210.507C55.3205 206.949 65.9726 205.119 76.7296 205.122C87.4865 205.119 98.1386 206.949 108.077 210.507C118.016 214.064 127.047 219.28 134.653 225.855C142.259 232.431 148.292 240.238 152.407 248.83C156.522 257.422 158.639 266.631 158.636 275.93C158.636 275.93 126.414 354.328 158.636 382.184C169.123 391.23 208.629 392.153 217.953 382.184C283.773 311.663 217.953 70.8082 217.953 70.8082C217.953 61.5078 220.073 52.2985 224.19 43.7063C228.308 35.1141 234.343 27.3074 241.952 20.732C249.56 14.1566 258.592 8.94129 268.532 5.38405C278.472 1.82682 289.125 -0.00269126 299.883 2.97302e-06C310.64 -0.0026921 321.292 1.82697 331.231 5.38446C341.17 8.94195 350.2 14.1575 357.807 20.7332C365.413 27.3089 371.446 35.1158 375.561 43.7079C379.676 52.2999 381.792 61.5087 381.789 70.8082C381.789 70.8082 307.642 369.322 381.789 433.444C392.775 442.941 434.179 443.884 443.931 433.444C489.439 384.83 443.931 183.195 443.931 183.195C443.931 173.894 446.05 164.685 450.168 156.093C454.285 147.501 460.321 139.694 467.929 133.118C475.537 126.543 484.569 121.328 494.509 117.77C504.449 114.213 515.102 112.384 525.86 112.386C547.583 112.386 568.416 119.847 583.777 133.126C599.137 146.405 607.766 164.415 607.766 183.195C607.766 183.195 560.146 306.904 611.326 351.149C621.077 359.477 657.356 360.297 665.898 351.149C724.718 288.238 662.339 109.945 662.339 109.945C662.339 91.1605 670.971 73.145 686.336 59.862C701.7 46.5791 722.539 39.1168 744.269 39.1168C765.994 39.1222 786.827 46.5869 802.186 59.8693C817.546 73.1517 826.175 91.1641 826.175 109.945C826.175 109.945 762.372 341.98 828.547 399.168C838.536 407.803 876.168 408.665 885.042 399.168C950.884 328.667 882.669 70.8492 882.669 70.8492C882.669 52.0874 891.282 34.0926 906.617 20.8165C921.952 7.54032 942.754 0.06818 964.456 0.0410048C975.214 0.0383107 985.868 1.86785 995.808 5.42509C1005.75 8.98232 1014.78 14.1976 1022.39 20.773C1030 27.3484 1036.03 35.1552 1040.15 43.7473C1044.27 52.3395 1046.39 61.5488 1046.39 70.8492C1046.39 70.8492 959.592 255.931 1033.74 320.032C1046.84 331.252 1095.76 332.339 1107.29 320.032C1152.8 271.377 1119.94 183.174 1119.94 183.174C1119.96 164.423 1128.58 146.444 1143.91 133.181C1159.25 119.918 1180.04 112.455 1201.73 112.427C1212.49 112.425 1223.14 114.254 1233.08 117.812C1243.02 121.369 1252.05 126.584 1259.66 133.159C1267.27 139.735 1273.3 147.542 1277.42 156.134C1281.54 164.726 1283.66 173.935 1283.66 183.236C1283.66 183.236 1232.48 389.219 1283.66 433.485C1296.75 444.705 1345.68 445.792 1357.21 433.485C1385.83 402.839 1357.21 275.971 1357.21 275.971C1357.21 257.21 1365.82 239.215 1381.16 225.939ZM347.853 1932.13H455.778C452.845 1920.26 448.554 1910.37 442.531 1903.47C417.309 1874.59 366.153 1896.19 355.167 1905.69C349.101 1910.94 347.197 1920.51 347.853 1932.13ZM583.026 1932.13H677.382C675.227 1928.29 672.469 1925.09 669.006 1922.69C624.762 1892.03 598.535 1917.31 586.752 1928.66C585.474 1929.9 584.365 1930.96 583.422 1931.78C583.289 1931.89 583.157 1932.01 583.026 1932.13ZM811.48 1932.13H890.734C889.522 1919.79 886.616 1909.44 881.079 1903.51C872.205 1894.02 834.574 1894.88 824.585 1903.51C817.772 1909.41 813.675 1919.59 811.48 1932.13ZM1031.23 1932.13H1134.17C1133.88 1931.8 1133.59 1931.48 1133.3 1931.16C1122.23 1919.36 1063.29 1899.07 1031.23 1932.13ZM1266.14 1932.13H1371.74C1367.74 1920.49 1362.5 1910.74 1355.74 1903.51C1344.09 1891.21 1295.17 1892.29 1282.19 1903.51C1274.77 1909.92 1269.59 1919.86 1266.14 1932.13Z" fill="url(#paint0_linear_574_240)"/>
<defs>
<linearGradient id="paint0_linear_574_240" x1="-303.757" y1="-1142.53" x2="3510.68" y2="42.2523" gradientUnits="userSpaceOnUse">
<stop stop-color="#EA6EE7"/>
<stop offset="0.244792" stop-color="#FD68E3"/>
<stop offset="0.5" stop-color="#B66FFA"/>
<stop offset="0.739583" stop-color="#7668FD"/>
<stop offset="1" stop-color="#7D2AE7"/>
</linearGradient>
</defs>
</svg>
