<svg width="1512" height="2671" viewBox="0 0 1512 2671" fill="none" xmlns="http://www.w3.org/2000/svg">
<path d="M1439.07 238.282C1417.36 238.314 1396.56 246.957 1381.22 262.315C1365.89 277.673 1357.28 298.489 1357.28 320.192C1357.28 320.192 1385.89 466.951 1357.28 502.401C1345.74 516.638 1296.82 515.381 1283.72 502.401C1232.54 451.196 1283.72 212.917 1283.72 212.917C1283.72 202.158 1281.6 191.505 1277.48 181.566C1273.36 171.626 1267.33 162.596 1259.72 154.989C1252.11 147.383 1243.08 141.35 1233.14 137.235C1223.2 133.12 1212.54 131.004 1201.78 131.007C1180.09 131.038 1159.3 139.672 1143.97 155.014C1128.63 170.357 1120.01 191.155 1119.99 212.846C1119.99 212.846 1152.86 314.877 1107.35 371.16C1095.81 385.397 1046.89 384.14 1033.79 371.16C959.637 297.01 1046.44 82.9098 1046.44 82.9098C1046.44 72.1513 1044.32 61.4981 1040.2 51.5588C1036.08 41.6195 1030.04 32.5888 1022.44 24.9824C1014.83 17.3761 1005.8 11.3431 995.854 7.22818C985.914 3.11321 975.26 0.996832 964.502 0.999948C942.798 1.03138 921.995 9.67504 906.659 25.0327C891.324 40.3904 882.71 61.2065 882.711 82.9098C882.711 82.9098 950.929 381.15 885.083 462.704C876.209 473.69 838.576 472.694 828.586 462.704C762.408 396.55 826.214 128.136 826.214 128.136C826.214 106.41 817.585 85.5733 802.224 70.2084C786.864 54.8436 766.03 46.2085 744.304 46.2022C722.573 46.2022 701.733 54.8345 686.368 70.2C671.002 85.5656 662.37 106.406 662.37 128.136C662.37 128.136 724.752 334.382 665.929 407.156C657.387 417.739 621.107 416.79 611.354 407.156C560.173 355.974 607.795 212.869 607.795 212.869C607.795 191.146 599.165 170.311 583.804 154.95C568.443 139.589 547.609 130.96 525.885 130.96C515.127 130.956 504.473 133.073 494.532 137.188C484.592 141.303 475.56 147.336 467.951 154.942C460.342 162.548 454.307 171.579 450.189 181.518C446.071 191.458 443.952 202.111 443.952 212.869C443.952 212.869 489.462 446.118 443.952 502.354C434.199 514.432 392.794 513.34 381.807 502.354C307.657 428.179 381.807 82.8624 381.807 82.8624C381.811 72.1049 379.694 61.4523 375.579 51.5131C371.464 41.574 365.43 32.5431 357.824 24.9364C350.217 17.3298 341.186 11.2964 331.247 7.18118C321.308 3.06593 310.655 0.9494 299.898 0.952518C289.139 0.949401 278.485 3.06575 268.545 7.18071C258.604 11.2957 249.572 17.3286 241.963 24.935C234.355 32.5413 228.319 41.572 224.201 51.5113C220.083 61.4506 217.964 72.1038 217.964 82.8624C217.964 82.8624 283.786 361.479 217.964 443.057C208.639 454.589 169.131 453.521 158.643 443.057C126.42 410.834 158.643 320.145 158.643 320.145C158.647 309.387 156.53 298.735 152.415 288.795C148.299 278.856 142.266 269.825 134.66 262.219C127.053 254.612 118.022 248.579 108.083 244.464C98.1436 240.348 87.4909 238.232 76.7335 238.235C65.9761 238.232 55.3235 240.348 45.3843 244.464C35.4451 248.579 26.4142 254.612 18.8076 262.219C11.2009 269.825 5.16758 278.856 1.05233 288.795C-3.06292 298.735 -5.17945 309.387 -5.17633 320.145V502.354H-8V2202.86H-6.60001V2588.45C-6.60001 2610.18 2.03226 2631.02 17.3978 2646.38C32.7633 2661.75 53.6034 2670.38 75.3335 2670.38C97.0596 2670.37 117.894 2661.74 133.254 2646.37C148.614 2631.01 157.243 2610.17 157.243 2588.45C157.243 2588.45 93.6518 2322.69 161.823 2254.47C172.311 2243.98 211.818 2242.94 221.144 2254.47C244.445 2283.32 216.564 2351.16 216.564 2351.16C216.564 2372.89 225.193 2393.73 240.553 2409.09C255.914 2424.46 276.748 2433.09 298.474 2433.1C320.204 2433.1 341.044 2424.46 356.41 2409.1C371.775 2393.73 380.407 2372.89 380.407 2351.16C380.407 2351.16 328.988 2231.64 355.184 2205.42C366.171 2194.44 417.329 2169.45 442.552 2202.86C484.456 2258.39 442.552 2481.1 442.552 2481.1C442.542 2491.86 444.653 2502.51 448.762 2512.46C452.871 2522.4 458.899 2531.43 466.501 2539.05C474.103 2546.66 483.13 2552.7 493.067 2556.82C503.004 2560.95 513.656 2563.07 524.414 2563.08C535.173 2563.08 545.826 2560.96 555.765 2556.84C565.705 2552.72 574.735 2546.69 582.342 2539.08C589.948 2531.47 595.981 2522.44 600.096 2512.5C604.211 2502.56 606.327 2491.9 606.324 2481.15C606.324 2481.15 534.261 2284.8 583.45 2235.61C593.084 2225.97 619.992 2185.78 669.038 2225.09C706.813 2255.32 660.804 2396.41 660.804 2396.41C660.801 2407.17 662.917 2417.82 667.033 2427.76C671.148 2437.7 677.181 2446.73 684.788 2454.34C692.395 2461.95 701.425 2467.98 711.365 2472.09C721.304 2476.21 731.956 2478.33 742.714 2478.32C753.471 2478.33 764.124 2476.21 774.063 2472.09C784.002 2467.98 793.033 2461.95 800.64 2454.34C808.246 2446.73 814.28 2437.7 818.395 2427.76C822.51 2417.82 824.627 2407.17 824.624 2396.41C824.624 2396.41 790.431 2237.13 824.624 2202.91C834.613 2192.92 872.246 2191.92 881.121 2202.91C904.422 2231.76 881.121 2351.21 881.121 2351.21C881.121 2372.94 889.753 2393.78 905.118 2409.15C920.484 2424.51 941.324 2433.14 963.054 2433.14C973.813 2433.14 984.466 2431.02 994.405 2426.91C1004.34 2422.79 1013.38 2416.75 1020.98 2409.14C1028.59 2401.54 1034.62 2392.5 1038.74 2382.56C1042.85 2372.62 1044.97 2361.97 1044.96 2351.21C1044.96 2351.21 1006.43 2272.17 1027.19 2241.44C1058.04 2195.67 1121.8 2220.63 1133.35 2234.89C1177.06 2289.02 1118.4 2481.15 1118.4 2481.15C1118.4 2502.88 1127.04 2523.72 1142.4 2539.08C1157.77 2554.45 1178.61 2563.08 1200.34 2563.08C1211.1 2563.08 1221.75 2560.96 1231.69 2556.84C1241.63 2552.72 1250.66 2546.69 1258.26 2539.08C1265.87 2531.47 1271.9 2522.44 1276.02 2512.5C1280.13 2502.56 1282.25 2491.9 1282.25 2481.15C1282.25 2481.15 1233.06 2252.1 1282.25 2202.91C1295.23 2189.93 1344.15 2188.67 1355.8 2202.91C1416.41 2277.89 1355.8 2588.49 1355.8 2588.49C1355.8 2610.22 1364.44 2631.06 1379.8 2646.43C1395.17 2661.79 1416.01 2670.43 1437.74 2670.43C1448.5 2670.43 1459.15 2668.31 1469.09 2664.19C1479.03 2660.07 1488.06 2654.04 1495.67 2646.43C1503.27 2638.82 1509.3 2629.79 1513.42 2619.85C1517.53 2609.91 1519.65 2599.25 1519.65 2588.49V2202.91H1521.07V320.192C1521.07 309.428 1518.95 298.769 1514.83 288.825C1510.7 278.881 1504.66 269.847 1497.05 262.24C1489.43 254.632 1480.39 248.601 1470.44 244.49C1460.49 240.379 1449.83 238.27 1439.07 238.282Z" fill="url(#paint0_linear_209_2494)"/>
<defs>
<linearGradient id="paint0_linear_209_2494" x1="-303.771" y1="-571.703" x2="2718.21" y2="1301.12" gradientUnits="userSpaceOnUse">
<stop stop-color="#EA6EE7"/>
<stop offset="0.244792" stop-color="#FD68E3"/>
<stop offset="0.5" stop-color="#B66FFA"/>
<stop offset="0.739583" stop-color="#7668FD"/>
<stop offset="1" stop-color="#7D2AE7"/>
</linearGradient>
</defs>
</svg>
